SplineFontDB: 3.2
FontName: Nunito-SemiBold
FullName: Nunito SemiBold
FamilyName: Nunito SemiBold
Weight: Demi
Copyright: Copyright 2014 The Nunito Project Authors (https://github.com/googlefonts/nunito)
Version: 3.602-ef
ItalicAngle: 0
UnderlinePosition: -94
UnderlineWidth: 28
Ascent: 800
Descent: 200
InvalidEm: 0
sfntRevision: 0x00039a1d
LayerCount: 2
Layer: 0 1 "Back" 1
Layer: 1 1 "Fore" 0
XUID: [1021 965 1680887925 4121025]
StyleMap: 0x0040
FSType: 0
OS2Version: 4
OS2_WeightWidthSlopeOnly: 0
OS2_UseTypoMetrics: 1
CreationTime: 1592915285
ModificationTime: 1719074228
PfmFamily: 81
TTFWeight: 600
TTFWidth: 5
LineGap: 0
VLineGap: 0
Panose: 0 0 0 0 0 0 0 0 0 0
OS2TypoAscent: 1011
OS2TypoAOffset: 0
OS2TypoDescent: -353
OS2TypoDOffset: 0
OS2TypoLinegap: 0
OS2WinAscent: 1077
OS2WinAOffset: 0
OS2WinDescent: 300
OS2WinDOffset: 0
HheadAscent: 1011
HheadAOffset: 0
HheadDescent: -353
HheadDOffset: 0
OS2SubXSize: 650
OS2SubYSize: 600
OS2SubXOff: 0
OS2SubYOff: 75
OS2SupXSize: 650
OS2SupYSize: 600
OS2SupXOff: 0
OS2SupYOff: 350
OS2StrikeYSize: 28
OS2StrikeYPos: 290
OS2CapHeight: 705
OS2XHeight: 484
OS2Vendor: 'NONE'
OS2CodePages: 20000197.00000000
OS2UnicodeRanges: a00002ff.5000204b.00000000.00000000
Lookup: 1 0 0 "'aalt' Access All Alternates lookup 0" { "'aalt' Access All Alternates lookup 0 subtable"  } ['aalt' ('DFLT' <'dflt' > 'cyrl' <'BSH ' 'CHU ' 'dflt' > 'latn' <'AZE ' 'CAT ' 'CRT ' 'KAZ ' 'MOL ' 'NLD ' 'ROM ' 'TAT ' 'TRK ' 'dflt' > ) ]
Lookup: 3 0 0 "'aalt' Access All Alternates lookup 1" { "'aalt' Access All Alternates lookup 1 subtable"  } ['aalt' ('DFLT' <'dflt' > 'cyrl' <'BSH ' 'CHU ' 'dflt' > 'latn' <'AZE ' 'CAT ' 'CRT ' 'KAZ ' 'MOL ' 'NLD ' 'ROM ' 'TAT ' 'TRK ' 'dflt' > ) ]

StartChar: .notdef
Encoding: 65536 -1 0
Width: 500
GlyphClass: 1
Flags: W
LayerCount: 2
Fore
SplineSet
50 -180 m 1,0,-1
 50 705 l 1,1,-1
 450 705 l 1,2,-1
 450 -180 l 1,3,-1
 50 -180 l 1,0,-1
100 -130 m 1,4,-1
 400 -130 l 1,5,-1
 400 655 l 1,6,-1
 100 655 l 1,7,-1
 100 -130 l 1,4,-1
EndSplineSet
EndChar

StartChar: A
Encoding: 65 65 1
Width: 736
GlyphClass: 2
Flags: W
AnchorPoint: "Anchor-3" 698 0 basechar 0
AnchorPoint: "Anchor-2" 369 0 basechar 0
AnchorPoint: "Anchor-0" 369 705 basechar 0
LayerCount: 2
Fore
SplineSet
78 -7 m 256,0,1
 58 -7 58 -7 46 2 c 128,-1,2
 34 11 34 11 32 26 c 128,-1,3
 30 41 30 41 38 60 c 2,4,-1
 309 668 l 2,5,6
 319 692 319 692 334.5 702 c 128,-1,7
 350 712 350 712 369 712 c 0,8,9
 387 712 387 712 402.5 702 c 128,-1,10
 418 692 418 692 428 668 c 2,11,-1
 699 60 l 2,12,13
 708 41 708 41 706 25.5 c 128,-1,14
 704 10 704 10 693 1.5 c 128,-1,15
 682 -7 682 -7 662 -7 c 0,16,17
 640 -7 640 -7 627 4 c 128,-1,18
 614 15 614 15 604 38 c 2,19,-1
 534 200 l 1,20,-1
 581 172 l 1,21,-1
 155 172 l 1,22,-1
 201 200 l 1,23,-1
 132 38 l 2,24,25
 122 14 122 14 110 3.5 c 128,-1,26
 98 -7 98 -7 78 -7 c 256,0,1
367 590 m 1,27,-1
 216 232 l 1,28,-1
 191 256 l 1,29,-1
 544 256 l 1,30,-1
 521 232 l 1,31,-1
 369 590 l 1,32,-1
 367 590 l 1,27,-1
EndSplineSet
Substitution2: "Single Substitution lookup 29 subtable" ordfeminine
Substitution2: "'aalt' Access All Alternates lookup 0 subtable" ordfeminine
EndChar

StartChar: Aogonek
Encoding: 260 260 24
Width: 736
GlyphClass: 1
Flags: W
LayerCount: 2
Fore
SplineSet
678 -194 m 0,0,1
 627 -194 627 -194 597 -166.5 c 128,-1,2
 567 -139 567 -139 567 -93 c 0,3,4
 567 -61 567 -61 583 -32.5 c 128,-1,5
 599 -4 599 -4 627 17 c 1,6,-1
 628 3 l 1,7,8
 620 10 620 10 615 18 c 128,-1,9
 610 26 610 26 604 38 c 2,10,-1
 534 200 l 1,11,-1
 581 172 l 1,12,-1
 155 172 l 1,13,-1
 201 200 l 1,14,-1
 132 38 l 2,15,16
 122 14 122 14 110 3.5 c 128,-1,17
 98 -7 98 -7 78 -7 c 256,18,19
 58 -7 58 -7 46 2 c 128,-1,20
 34 11 34 11 31.5 26 c 128,-1,21
 29 41 29 41 37 60 c 2,22,-1
 309 668 l 2,23,24
 319 692 319 692 334.5 702 c 128,-1,25
 350 712 350 712 369 712 c 0,26,27
 387 712 387 712 402.5 702 c 128,-1,28
 418 692 418 692 428 668 c 2,29,-1
 699 60 l 2,30,31
 708 39 708 39 705.5 22.5 c 128,-1,32
 703 6 703 6 689 -1 c 0,33,34
 677 -8 677 -8 664.5 -19.5 c 128,-1,35
 652 -31 652 -31 643 -47 c 128,-1,36
 634 -63 634 -63 634 -82 c 0,37,38
 634 -109 634 -109 650.5 -122.5 c 128,-1,39
 667 -136 667 -136 691 -136 c 0,40,41
 699 -136 699 -136 707.5 -134.5 c 128,-1,42
 716 -133 716 -133 724 -131 c 0,43,44
 740 -126 740 -126 748.5 -131.5 c 128,-1,45
 757 -137 757 -137 759 -148 c 128,-1,46
 761 -159 761 -159 756 -169 c 128,-1,47
 751 -179 751 -179 738 -185 c 0,48,49
 723 -190 723 -190 707.5 -192 c 128,-1,50
 692 -194 692 -194 678 -194 c 0,0,1
367 590 m 1,51,-1
 216 232 l 1,52,-1
 191 256 l 1,53,-1
 544 256 l 1,54,-1
 521 232 l 1,55,-1
 369 590 l 1,56,-1
 367 590 l 1,51,-1
EndSplineSet
EndChar

StartChar: AE
Encoding: 198 198 28
Width: 987
GlyphClass: 2
Flags: W
AnchorPoint: "Anchor-2" 488 0 basechar 0
AnchorPoint: "Anchor-0" 487 705 basechar 0
LayerCount: 2
Fore
SplineSet
47 -7 m 0,0,1
 25 -7 25 -7 13 2 c 128,-1,2
 1 11 1 11 1 26 c 128,-1,3
 1 41 1 41 11 58 c 2,4,-1
 390 675 l 2,5,6
 399 691 399 691 412 698 c 128,-1,7
 425 705 425 705 443 705 c 2,8,-1
 898 705 l 2,9,10
 920 705 920 705 931.5 694.5 c 128,-1,11
 943 684 943 684 943 664 c 0,12,13
 943 643 943 643 931.5 632 c 128,-1,14
 920 621 920 621 898 621 c 2,15,-1
 490 621 l 1,16,-1
 514 652 l 1,17,-1
 574 372 l 1,18,-1
 538 400 l 1,19,-1
 878 400 l 2,20,21
 899 400 899 400 910.5 389 c 128,-1,22
 922 378 922 378 922 358 c 0,23,24
 922 337 922 337 910.5 326.5 c 128,-1,25
 899 316 899 316 878 316 c 2,26,-1
 556 316 l 1,27,-1
 580 344 l 1,28,-1
 643 52 l 1,29,-1
 604 84 l 1,30,-1
 898 84 l 2,31,32
 920 84 920 84 931.5 73 c 128,-1,33
 943 62 943 62 943 42 c 0,34,35
 943 21 943 21 931.5 10.5 c 128,-1,36
 920 0 920 0 898 0 c 2,37,-1
 601 0 l 2,38,39
 561 0 561 0 552 39 c 2,40,-1
 517 203 l 1,41,-1
 553 172 l 1,42,-1
 164 172 l 1,43,-1
 204 200 l 1,44,-1
 100 26 l 2,45,46
 91 10 91 10 79 1.5 c 128,-1,47
 67 -7 67 -7 47 -7 c 0,0,1
433 587 m 1,48,-1
 222 231 l 1,49,-1
 213 256 l 1,50,-1
 531 256 l 1,51,-1
 512 229 l 1,52,-1
 435 587 l 1,53,-1
 433 587 l 1,48,-1
EndSplineSet
EndChar

StartChar: B
Encoding: 66 66 30
Width: 682
GlyphClass: 2
Flags: W
AnchorPoint: "Anchor-2" 343 0 basechar 0
AnchorPoint: "Anchor-0" 342 705 basechar 0
LayerCount: 2
Fore
SplineSet
138 0 m 2,0,1
 111 0 111 0 96.5 14.5 c 128,-1,2
 82 29 82 29 82 56 c 2,3,-1
 82 649 l 2,4,5
 82 676 82 676 96.5 690.5 c 128,-1,6
 111 705 111 705 138 705 c 2,7,-1
 376 705 l 2,8,9
 449 705 449 705 500.5 683 c 128,-1,10
 552 661 552 661 579.5 620 c 128,-1,11
 607 579 607 579 607 521 c 0,12,13
 607 457 607 457 569 413 c 128,-1,14
 531 369 531 369 466 354 c 1,15,-1
 466 369 l 1,16,17
 540 359 540 359 582 313.5 c 128,-1,18
 624 268 624 268 624 195 c 0,19,20
 624 101 624 101 562 50.5 c 128,-1,21
 500 0 500 0 388 0 c 2,22,-1
 138 0 l 2,0,1
182 80 m 1,23,-1
 376 80 l 2,24,25
 451 80 451 80 487 109.5 c 128,-1,26
 523 139 523 139 523 199 c 256,27,28
 523 259 523 259 487 288 c 128,-1,29
 451 317 451 317 376 317 c 2,30,-1
 182 317 l 1,31,-1
 182 80 l 1,23,-1
182 397 m 1,32,-1
 360 397 l 2,33,34
 432 397 432 397 469 426 c 128,-1,35
 506 455 506 455 506 511 c 256,36,37
 506 567 506 567 469 596 c 128,-1,38
 432 625 432 625 360 625 c 2,39,-1
 182 625 l 1,40,-1
 182 397 l 1,32,-1
EndSplineSet
EndChar

StartChar: uni0181
Encoding: 385 385 31
Width: 817
GlyphClass: 1
Flags: W
LayerCount: 2
Fore
SplineSet
274 0 m 2,0,1
 247 0 247 0 232.5 14.5 c 128,-1,2
 218 29 218 29 218 56 c 2,3,-1
 218 629 l 1,4,-1
 189 629 l 2,5,6
 137 629 137 629 111.5 605 c 128,-1,7
 86 581 86 581 86 530 c 2,8,-1
 86 511 l 2,9,10
 86 502 86 502 81.5 492.5 c 128,-1,11
 77 483 77 483 67.5 477.5 c 128,-1,12
 58 472 58 472 43 472 c 0,13,14
 29 472 29 472 19.5 478 c 128,-1,15
 10 484 10 484 5 493.5 c 128,-1,16
 0 503 0 503 0 514 c 2,17,-1
 0 534 l 2,18,19
 0 617 0 617 49 661 c 128,-1,20
 98 705 98 705 197 705 c 2,21,-1
 512 705 l 2,22,23
 585 705 585 705 636.5 683 c 128,-1,24
 688 661 688 661 715.5 620 c 128,-1,25
 743 579 743 579 743 521 c 0,26,27
 743 457 743 457 705 413 c 128,-1,28
 667 369 667 369 602 354 c 1,29,-1
 602 369 l 1,30,31
 676 359 676 359 718 313.5 c 128,-1,32
 760 268 760 268 760 195 c 0,33,34
 760 101 760 101 698 50.5 c 128,-1,35
 636 0 636 0 523 0 c 2,36,-1
 274 0 l 2,0,1
318 80 m 1,37,-1
 512 80 l 2,38,39
 587 80 587 80 623 109.5 c 128,-1,40
 659 139 659 139 659 199 c 256,41,42
 659 259 659 259 623 288 c 128,-1,43
 587 317 587 317 512 317 c 2,44,-1
 318 317 l 1,45,-1
 318 80 l 1,37,-1
318 397 m 1,46,-1
 495 397 l 2,47,48
 568 397 568 397 605 426 c 128,-1,49
 642 455 642 455 642 511 c 256,50,51
 642 567 642 567 605 596 c 128,-1,52
 568 625 568 625 495 625 c 2,53,-1
 318 625 l 1,54,-1
 318 397 l 1,46,-1
EndSplineSet
EndChar

StartChar: C
Encoding: 67 67 32
Width: 676
GlyphClass: 2
Flags: W
AnchorPoint: "Anchor-2" 388 0 basechar 0
AnchorPoint: "Anchor-0" 389 705 basechar 0
LayerCount: 2
Fore
SplineSet
398 -9 m 0,0,1
 291 -9 291 -9 215 35 c 128,-1,2
 139 79 139 79 98.5 160.5 c 128,-1,3
 58 242 58 242 58 353 c 0,4,5
 58 436 58 436 81 502.5 c 128,-1,6
 104 569 104 569 147.5 616.5 c 128,-1,7
 191 664 191 664 254.5 689 c 128,-1,8
 318 714 318 714 398 714 c 0,9,10
 457 714 457 714 511.5 698 c 128,-1,11
 566 682 566 682 606 652 c 0,12,13
 623 641 623 641 628.5 625.5 c 128,-1,14
 634 610 634 610 630.5 596 c 128,-1,15
 627 582 627 582 617 572.5 c 128,-1,16
 607 563 607 563 591.5 562 c 128,-1,17
 576 561 576 561 558 573 c 0,18,19
 525 598 525 598 485 610 c 128,-1,20
 445 622 445 622 401 622 c 0,21,22
 325 622 325 622 273 590.5 c 128,-1,23
 221 559 221 559 194 499 c 128,-1,24
 167 439 167 439 167 353 c 256,25,26
 167 267 167 267 194 206.5 c 128,-1,27
 221 146 221 146 273 114.5 c 128,-1,28
 325 83 325 83 401 83 c 0,29,30
 445 83 445 83 485.5 95.5 c 128,-1,31
 526 108 526 108 562 133 c 0,32,33
 580 144 580 144 594.5 143 c 128,-1,34
 609 142 609 142 619 133 c 128,-1,35
 629 124 629 124 632.5 110.5 c 128,-1,36
 636 97 636 97 631.5 82.5 c 128,-1,37
 627 68 627 68 612 58 c 0,38,39
 571 25 571 25 515 8 c 128,-1,40
 459 -9 459 -9 398 -9 c 0,0,1
EndSplineSet
EndChar

StartChar: D
Encoding: 68 68 39
Width: 751
GlyphClass: 2
Flags: W
AnchorPoint: "Anchor-5" 188 358 basechar 0
AnchorPoint: "Anchor-2" 374 0 basechar 0
AnchorPoint: "Anchor-0" 374 705 basechar 0
LayerCount: 2
Fore
SplineSet
138 0 m 2,0,1
 111 0 111 0 96.5 14.5 c 128,-1,2
 82 29 82 29 82 56 c 2,3,-1
 82 649 l 2,4,5
 82 676 82 676 96.5 690.5 c 128,-1,6
 111 705 111 705 138 705 c 2,7,-1
 331 705 l 2,8,9
 505 705 505 705 599.5 614.5 c 128,-1,10
 694 524 694 524 694 353 c 0,11,12
 694 268 694 268 670 202 c 128,-1,13
 646 136 646 136 599.5 91.5 c 128,-1,14
 553 47 553 47 486 23.5 c 128,-1,15
 419 0 419 0 331 0 c 2,16,-1
 138 0 l 2,0,1
186 87 m 1,17,-1
 325 87 l 2,18,19
 391 87 391 87 439.5 103.5 c 128,-1,20
 488 120 488 120 521 153 c 128,-1,21
 554 186 554 186 570 236 c 128,-1,22
 586 286 586 286 586 353 c 0,23,24
 586 486 586 486 520.5 552 c 128,-1,25
 455 618 455 618 325 618 c 2,26,-1
 186 618 l 1,27,-1
 186 87 l 1,17,-1
EndSplineSet
EndChar

StartChar: uni018A
Encoding: 394 394 45
Width: 888
GlyphClass: 1
Flags: W
LayerCount: 2
Fore
SplineSet
274 0 m 2,0,1
 247 0 247 0 232.5 14.5 c 128,-1,2
 218 29 218 29 218 56 c 2,3,-1
 218 629 l 1,4,-1
 189 629 l 2,5,6
 137 629 137 629 111.5 605 c 128,-1,7
 86 581 86 581 86 530 c 2,8,-1
 86 511 l 2,9,10
 86 502 86 502 81.5 492.5 c 128,-1,11
 77 483 77 483 67.5 477.5 c 128,-1,12
 58 472 58 472 43 472 c 0,13,14
 29 472 29 472 19.5 478 c 128,-1,15
 10 484 10 484 5 493.5 c 128,-1,16
 0 503 0 503 0 514 c 2,17,-1
 0 534 l 2,18,19
 0 617 0 617 48 661 c 128,-1,20
 96 705 96 705 191 705 c 2,21,-1
 467 705 l 2,22,23
 641 705 641 705 735.5 614.5 c 128,-1,24
 830 524 830 524 830 353 c 0,25,26
 830 268 830 268 806 202 c 128,-1,27
 782 136 782 136 735.5 91.5 c 128,-1,28
 689 47 689 47 622 23.5 c 128,-1,29
 555 0 555 0 467 0 c 2,30,-1
 274 0 l 2,0,1
321 87 m 1,31,-1
 460 87 l 2,32,33
 527 87 527 87 575.5 103.5 c 128,-1,34
 624 120 624 120 657 153 c 128,-1,35
 690 186 690 186 706 236 c 128,-1,36
 722 286 722 286 722 353 c 0,37,38
 722 486 722 486 656.5 552 c 128,-1,39
 591 618 591 618 460 618 c 2,40,-1
 321 618 l 1,41,-1
 321 87 l 1,31,-1
EndSplineSet
EndChar

StartChar: E
Encoding: 69 69 48
Width: 589
GlyphClass: 2
Flags: W
AnchorPoint: "Anchor-3" 496 0 basechar 0
AnchorPoint: "Anchor-2" 326 0 basechar 0
AnchorPoint: "Anchor-0" 326 705 basechar 0
LayerCount: 2
Fore
SplineSet
138 0 m 2,0,1
 111 0 111 0 96.5 14.5 c 128,-1,2
 82 29 82 29 82 56 c 2,3,-1
 82 649 l 2,4,5
 82 676 82 676 96.5 690.5 c 128,-1,6
 111 705 111 705 138 705 c 2,7,-1
 503 705 l 2,8,9
 524 705 524 705 535 694.5 c 128,-1,10
 546 684 546 684 546 664 c 0,11,12
 546 643 546 643 535 632 c 128,-1,13
 524 621 524 621 503 621 c 2,14,-1
 182 621 l 1,15,-1
 182 400 l 1,16,-1
 481 400 l 2,17,18
 503 400 503 400 513.5 389 c 128,-1,19
 524 378 524 378 524 358 c 0,20,21
 524 337 524 337 513.5 326.5 c 128,-1,22
 503 316 503 316 481 316 c 2,23,-1
 182 316 l 1,24,-1
 182 84 l 1,25,-1
 503 84 l 2,26,27
 524 84 524 84 535 73 c 128,-1,28
 546 62 546 62 546 42 c 0,29,30
 546 21 546 21 535 10.5 c 128,-1,31
 524 0 524 0 503 0 c 2,32,-1
 138 0 l 2,0,1
EndSplineSet
EndChar

StartChar: uni018F
Encoding: 399 399 72
Width: 775
GlyphClass: 2
Flags: W
AnchorPoint: "Anchor-2" 387 0 basechar 0
AnchorPoint: "Anchor-0" 387 705 basechar 0
LayerCount: 2
Fore
SplineSet
394 -9 m 0,0,1
 311 -9 311 -9 248 17 c 128,-1,2
 185 43 185 43 142.5 91.5 c 128,-1,3
 100 140 100 140 79 208 c 128,-1,4
 58 276 58 276 58 357 c 0,5,6
 58 378 58 378 67 387.5 c 128,-1,7
 76 397 76 397 93 397 c 2,8,-1
 639 397 l 1,9,-1
 639 312 l 1,10,-1
 136 312 l 1,11,-1
 164 354 l 1,12,13
 164 264 164 264 189 202 c 128,-1,14
 214 140 214 140 264.5 109 c 128,-1,15
 315 78 315 78 390 78 c 0,16,17
 459 78 459 78 508.5 110 c 128,-1,18
 558 142 558 142 584 203 c 128,-1,19
 610 264 610 264 610 353 c 0,20,21
 610 441 610 441 580.5 501 c 128,-1,22
 551 561 551 561 494 592.5 c 128,-1,23
 437 624 437 624 355 624 c 0,24,25
 297 624 297 624 249.5 611.5 c 128,-1,26
 202 599 202 599 158 571 c 0,27,28
 140 562 140 562 126 563.5 c 128,-1,29
 112 565 112 565 102.5 574.5 c 128,-1,30
 93 584 93 584 90.5 597.5 c 128,-1,31
 88 611 88 611 93.5 624.5 c 128,-1,32
 99 638 99 638 114 648 c 0,33,34
 163 681 163 681 227.5 697.5 c 128,-1,35
 292 714 292 714 366 714 c 0,36,37
 473 714 473 714 552 670.5 c 128,-1,38
 631 627 631 627 674.5 546 c 128,-1,39
 718 465 718 465 718 352 c 0,40,41
 718 269 718 269 695 202.5 c 128,-1,42
 672 136 672 136 629 88.5 c 128,-1,43
 586 41 586 41 526.5 16 c 128,-1,44
 467 -9 467 -9 394 -9 c 0,0,1
EndSplineSet
EndChar

StartChar: F
Encoding: 70 70 73
Width: 554
GlyphClass: 2
Flags: W
AnchorPoint: "Anchor-2" 298 0 basechar 0
AnchorPoint: "Anchor-0" 300 705 basechar 0
LayerCount: 2
Fore
SplineSet
137 -7 m 0,0,1
 111 -7 111 -7 96.5 7 c 128,-1,2
 82 21 82 21 82 48 c 2,3,-1
 82 649 l 2,4,5
 82 676 82 676 96.5 690.5 c 128,-1,6
 111 705 111 705 138 705 c 2,7,-1
 494 705 l 2,8,9
 516 705 516 705 526.5 694.5 c 128,-1,10
 537 684 537 684 537 664 c 0,11,12
 537 643 537 643 526.5 632 c 128,-1,13
 516 621 516 621 494 621 c 2,14,-1
 186 621 l 1,15,-1
 186 396 l 1,16,-1
 474 396 l 2,17,18
 494 396 494 396 505.5 385.5 c 128,-1,19
 517 375 517 375 517 355 c 0,20,21
 517 334 517 334 505.5 323 c 128,-1,22
 494 312 494 312 474 312 c 2,23,-1
 186 312 l 1,24,-1
 186 48 l 2,25,26
 186 -7 186 -7 137 -7 c 0,0,1
EndSplineSet
EndChar

StartChar: G
Encoding: 71 71 74
Width: 731
GlyphClass: 2
Flags: W
AnchorPoint: "Anchor-2" 403 0 basechar 0
AnchorPoint: "Anchor-0" 396 705 basechar 0
LayerCount: 2
Fore
SplineSet
412 -9 m 0,0,1
 297 -9 297 -9 218 34.5 c 128,-1,2
 139 78 139 78 98.5 159 c 128,-1,3
 58 240 58 240 58 352 c 0,4,5
 58 436 58 436 81.5 502.5 c 128,-1,6
 105 569 105 569 149.5 616.5 c 128,-1,7
 194 664 194 664 258.5 689 c 128,-1,8
 323 714 323 714 405 714 c 0,9,10
 465 714 465 714 523 698.5 c 128,-1,11
 581 683 581 683 629 648 c 0,12,13
 643 638 643 638 647 625 c 128,-1,14
 651 612 651 612 647.5 598.5 c 128,-1,15
 644 585 644 585 634.5 575 c 128,-1,16
 625 565 625 565 611.5 563 c 128,-1,17
 598 561 598 561 582 571 c 0,18,19
 543 598 543 598 500 610.5 c 128,-1,20
 457 623 457 623 405 623 c 0,21,22
 327 623 327 623 273.5 591 c 128,-1,23
 220 559 220 559 193 498.5 c 128,-1,24
 166 438 166 438 166 352 c 0,25,26
 166 219 166 219 229 150 c 128,-1,27
 292 81 292 81 416 81 c 0,28,29
 461 81 461 81 504.5 89.5 c 128,-1,30
 548 98 548 98 588 114 c 1,31,-1
 567 62 l 1,32,-1
 567 295 l 1,33,-1
 438 295 l 2,34,35
 418 295 418 295 406.5 305.5 c 128,-1,36
 395 316 395 316 395 335 c 256,37,38
 395 354 395 354 406.5 363.5 c 128,-1,39
 418 373 418 373 438 373 c 2,40,-1
 611 373 l 2,41,42
 632 373 632 373 643 362 c 128,-1,43
 654 351 654 351 654 330 c 2,44,-1
 654 78 l 2,45,46
 654 60 654 60 647.5 47.5 c 128,-1,47
 641 35 641 35 626 29 c 0,48,49
 583 12 583 12 525 1.5 c 128,-1,50
 467 -9 467 -9 412 -9 c 0,0,1
EndSplineSet
EndChar

StartChar: H
Encoding: 72 72 81
Width: 767
GlyphClass: 2
Flags: W
AnchorPoint: "Anchor-5" 384 557 basechar 0
AnchorPoint: "Anchor-2" 384 0 basechar 0
AnchorPoint: "Anchor-0" 383 705 basechar 0
LayerCount: 2
Fore
SplineSet
134 -7 m 0,0,1
 109 -7 109 -7 95.5 7 c 128,-1,2
 82 21 82 21 82 46 c 2,3,-1
 82 659 l 2,4,5
 82 685 82 685 95.5 698.5 c 128,-1,6
 109 712 109 712 134 712 c 256,7,8
 159 712 159 712 172.5 698.5 c 128,-1,9
 186 685 186 685 186 659 c 2,10,-1
 186 401 l 1,11,-1
 581 401 l 1,12,-1
 581 659 l 2,13,14
 581 685 581 685 594.5 698.5 c 128,-1,15
 608 712 608 712 633 712 c 256,16,17
 658 712 658 712 671 698.5 c 128,-1,18
 684 685 684 685 684 659 c 2,19,-1
 684 46 l 2,20,21
 684 21 684 21 671 7 c 128,-1,22
 658 -7 658 -7 633 -7 c 256,23,24
 608 -7 608 -7 594.5 7 c 128,-1,25
 581 21 581 21 581 46 c 2,26,-1
 581 314 l 1,27,-1
 186 314 l 1,28,-1
 186 46 l 2,29,30
 186 21 186 21 173 7 c 128,-1,31
 160 -7 160 -7 134 -7 c 0,0,1
EndSplineSet
EndChar

StartChar: Hbar
Encoding: 294 294 82
Width: 807
GlyphClass: 1
Flags: W
LayerCount: 2
Fore
SplineSet
155 -7 m 0,0,1
 130 -7 130 -7 116 7 c 128,-1,2
 102 21 102 21 102 46 c 2,3,-1
 102 529 l 1,4,-1
 132 516 l 1,5,-1
 48 516 l 2,6,7
 7 516 7 516 7 555 c 0,8,9
 7 573 7 573 18 583 c 128,-1,10
 29 593 29 593 48 593 c 2,11,-1
 121 593 l 1,12,-1
 102 564 l 1,13,-1
 102 659 l 2,14,15
 102 685 102 685 116 698.5 c 128,-1,16
 130 712 130 712 155 712 c 256,17,18
 180 712 180 712 193 698.5 c 128,-1,19
 206 685 206 685 206 659 c 2,20,-1
 206 564 l 1,21,-1
 191 593 l 1,22,-1
 616 593 l 1,23,-1
 601 564 l 1,24,-1
 601 659 l 2,25,26
 601 685 601 685 614.5 698.5 c 128,-1,27
 628 712 628 712 653 712 c 256,28,29
 678 712 678 712 691.5 698.5 c 128,-1,30
 705 685 705 685 705 659 c 2,31,-1
 705 564 l 1,32,-1
 682 593 l 1,33,-1
 759 593 l 2,34,35
 800 593 800 593 800 555 c 0,36,37
 800 536 800 536 789.5 526 c 128,-1,38
 779 516 779 516 759 516 c 2,39,-1
 672 516 l 1,40,-1
 705 531 l 1,41,-1
 705 46 l 2,42,43
 705 21 705 21 691.5 7 c 128,-1,44
 678 -7 678 -7 653 -7 c 256,45,46
 628 -7 628 -7 614.5 7 c 128,-1,47
 601 21 601 21 601 46 c 2,48,-1
 601 307 l 1,49,-1
 206 307 l 1,50,-1
 206 46 l 2,51,52
 206 21 206 21 193.5 7 c 128,-1,53
 181 -7 181 -7 155 -7 c 0,0,1
206 394 m 1,54,-1
 601 394 l 1,55,-1
 601 516 l 1,56,-1
 206 516 l 1,57,-1
 206 394 l 1,54,-1
EndSplineSet
EndChar

StartChar: I
Encoding: 73 73 86
Width: 268
GlyphClass: 2
Flags: W
AnchorPoint: "Anchor-3" 166 0 basechar 0
AnchorPoint: "Anchor-2" 134 0 basechar 0
AnchorPoint: "Anchor-0" 134 705 basechar 0
LayerCount: 2
Fore
SplineSet
134 -7 m 0,0,1
 109 -7 109 -7 95.5 7 c 128,-1,2
 82 21 82 21 82 46 c 2,3,-1
 82 659 l 2,4,5
 82 685 82 685 95.5 698.5 c 128,-1,6
 109 712 109 712 134 712 c 256,7,8
 159 712 159 712 172.5 698.5 c 128,-1,9
 186 685 186 685 186 659 c 2,10,-1
 186 46 l 2,11,12
 186 21 186 21 173 7 c 128,-1,13
 160 -7 160 -7 134 -7 c 0,0,1
EndSplineSet
EndChar

StartChar: Iogonek
Encoding: 302 302 100
Width: 268
GlyphClass: 1
Flags: W
LayerCount: 2
Fore
SplineSet
147 -194 m 0,0,1
 96 -194 96 -194 66 -166.5 c 128,-1,2
 36 -139 36 -139 36 -93 c 0,3,4
 36 -62 36 -62 51.5 -33.5 c 128,-1,5
 67 -5 67 -5 96 16 c 1,6,-1
 95 9 l 1,7,8
 89 15 89 15 85.5 24.5 c 128,-1,9
 82 34 82 34 82 46 c 2,10,-1
 82 659 l 2,11,12
 82 685 82 685 95.5 698.5 c 128,-1,13
 109 712 109 712 134 712 c 256,14,15
 159 712 159 712 172.5 698.5 c 128,-1,16
 186 685 186 685 186 659 c 2,17,-1
 186 46 l 2,18,19
 186 28 186 28 179 15.5 c 128,-1,20
 172 3 172 3 161 -2 c 0,21,22
 138 -13 138 -13 120.5 -34 c 128,-1,23
 103 -55 103 -55 103 -82 c 256,24,25
 103 -109 103 -109 119.5 -122.5 c 128,-1,26
 136 -136 136 -136 160 -136 c 0,27,28
 168 -136 168 -136 176 -134.5 c 128,-1,29
 184 -133 184 -133 193 -131 c 0,30,31
 208 -126 208 -126 217 -131.5 c 128,-1,32
 226 -137 226 -137 228 -148 c 128,-1,33
 230 -159 230 -159 225 -169 c 128,-1,34
 220 -179 220 -179 207 -185 c 0,35,36
 192 -190 192 -190 176.5 -192 c 128,-1,37
 161 -194 161 -194 147 -194 c 0,0,1
EndSplineSet
EndChar

StartChar: J
Encoding: 74 74 102
Width: 338
GlyphClass: 2
Flags: W
AnchorPoint: "Anchor-2" 204 0 basechar 0
AnchorPoint: "Anchor-0" 203 705 basechar 0
LayerCount: 2
Fore
SplineSet
36 -6 m 2,0,1
 13 -7 13 -7 0 6 c 128,-1,2
 -13 19 -13 19 -13 39 c 0,3,4
 -13 54 -13 54 -3.5 66 c 128,-1,5
 6 78 6 78 24 79 c 2,6,-1
 55 81 l 2,7,8
 103 85 103 85 128 113.5 c 128,-1,9
 153 142 153 142 153 193 c 2,10,-1
 153 660 l 2,11,12
 153 686 153 686 166 699 c 128,-1,13
 179 712 179 712 204 712 c 256,14,15
 229 712 229 712 242.5 699 c 128,-1,16
 256 686 256 686 256 660 c 2,17,-1
 256 193 l 2,18,19
 256 133 256 133 234.5 90.5 c 128,-1,20
 213 48 213 48 172 24 c 128,-1,21
 131 0 131 0 70 -4 c 2,22,-1
 36 -6 l 2,0,1
EndSplineSet
EndChar

StartChar: K
Encoding: 75 75 104
Width: 643
GlyphClass: 2
Flags: W
AnchorPoint: "Anchor-2" 323 0 basechar 0
AnchorPoint: "Anchor-0" 323 705 basechar 0
LayerCount: 2
Fore
SplineSet
134 -7 m 0,0,1
 109 -7 109 -7 95.5 7 c 128,-1,2
 82 21 82 21 82 46 c 2,3,-1
 82 660 l 2,4,5
 82 686 82 686 95.5 699 c 128,-1,6
 109 712 109 712 134 712 c 256,7,8
 159 712 159 712 172.5 699 c 128,-1,9
 186 686 186 686 186 660 c 2,10,-1
 186 388 l 1,11,-1
 188 388 l 1,12,-1
 495 685 l 2,13,14
 510 699 510 699 523.5 705.5 c 128,-1,15
 537 712 537 712 554 712 c 0,16,17
 577 712 577 712 587.5 700.5 c 128,-1,18
 598 689 598 689 596 673 c 128,-1,19
 594 657 594 657 579 642 c 2,20,-1
 260 338 l 1,21,-1
 262 389 l 1,22,-1
 594 69 l 2,23,24
 612 52 612 52 613 34 c 128,-1,25
 614 16 614 16 602 4.5 c 128,-1,26
 590 -7 590 -7 568 -7 c 0,27,28
 548 -7 548 -7 536 1 c 128,-1,29
 524 9 524 9 508 24 c 2,30,-1
 188 329 l 1,31,-1
 186 329 l 1,32,-1
 186 46 l 2,33,34
 186 21 186 21 173 7 c 128,-1,35
 160 -7 160 -7 134 -7 c 0,0,1
EndSplineSet
EndChar

StartChar: L
Encoding: 76 76 106
Width: 552
GlyphClass: 2
Flags: W
AnchorPoint: "Anchor-5" 179 387 basechar 0
AnchorPoint: "Anchor-2" 309 0 basechar 0
AnchorPoint: "Anchor-1" 296 705 basechar 0
AnchorPoint: "Anchor-0" 134 705 basechar 0
LayerCount: 2
Fore
SplineSet
135 0 m 2,0,1
 110 0 110 0 96 14 c 128,-1,2
 82 28 82 28 82 53 c 2,3,-1
 82 656 l 2,4,5
 82 682 82 682 95.5 695.5 c 128,-1,6
 109 709 109 709 134 709 c 256,7,8
 159 709 159 709 172.5 695.5 c 128,-1,9
 186 682 186 682 186 656 c 2,10,-1
 186 89 l 1,11,-1
 496 89 l 2,12,13
 518 89 518 89 530 77.5 c 128,-1,14
 542 66 542 66 542 45 c 256,15,16
 542 24 542 24 530 12 c 128,-1,17
 518 0 518 0 496 0 c 2,18,-1
 135 0 l 2,0,1
EndSplineSet
EndChar

StartChar: M
Encoding: 77 77 116
Width: 861
GlyphClass: 2
Flags: W
AnchorPoint: "Anchor-2" 431 0 basechar 0
AnchorPoint: "Anchor-0" 431 705 basechar 0
LayerCount: 2
Fore
SplineSet
132 -7 m 256,0,1
 109 -7 109 -7 96.5 6 c 128,-1,2
 84 19 84 19 84 42 c 2,3,-1
 84 663 l 2,4,5
 84 687 84 687 97 699.5 c 128,-1,6
 110 712 110 712 132 712 c 0,7,8
 153 712 153 712 164.5 704.5 c 128,-1,9
 176 697 176 697 186 678 c 2,10,-1
 448 189 l 1,11,-1
 417 189 l 1,12,-1
 678 678 l 2,13,14
 688 697 688 697 699 704.5 c 128,-1,15
 710 712 710 712 731 712 c 0,16,17
 753 712 753 712 765 699.5 c 128,-1,18
 777 687 777 687 777 663 c 2,19,-1
 777 42 l 2,20,21
 777 19 777 19 765.5 6 c 128,-1,22
 754 -7 754 -7 731 -7 c 256,23,24
 708 -7 708 -7 696 6 c 128,-1,25
 684 19 684 19 684 42 c 2,26,-1
 684 558 l 1,27,-1
 706 558 l 1,28,-1
 474 129 l 2,29,30
 466 114 466 114 457 107 c 128,-1,31
 448 100 448 100 432 100 c 256,32,33
 416 100 416 100 406 107.5 c 128,-1,34
 396 115 396 115 388 129 c 2,35,-1
 154 559 l 1,36,-1
 178 559 l 1,37,-1
 178 42 l 2,38,39
 178 19 178 19 166.5 6 c 128,-1,40
 155 -7 155 -7 132 -7 c 256,0,1
EndSplineSet
EndChar

StartChar: N
Encoding: 78 78 118
Width: 743
GlyphClass: 2
Flags: W
AnchorPoint: "Anchor-2" 372 0 basechar 0
AnchorPoint: "Anchor-0" 372 705 basechar 0
LayerCount: 2
Fore
SplineSet
131 -7 m 256,0,1
 108 -7 108 -7 95 6 c 128,-1,2
 82 19 82 19 82 43 c 2,3,-1
 82 660 l 2,4,5
 82 685 82 685 94.5 698.5 c 128,-1,6
 107 712 107 712 128 712 c 0,7,8
 146 712 146 712 155.5 705.5 c 128,-1,9
 165 699 165 699 178 682 c 2,10,-1
 590 139 l 1,11,-1
 565 139 l 1,12,-1
 565 663 l 2,13,14
 565 686 565 686 577.5 699 c 128,-1,15
 590 712 590 712 613 712 c 0,16,17
 637 712 637 712 649 699 c 128,-1,18
 661 686 661 686 661 663 c 2,19,-1
 661 42 l 2,20,21
 661 19 661 19 649.5 6 c 128,-1,22
 638 -7 638 -7 619 -7 c 0,23,24
 601 -7 601 -7 589.5 0 c 128,-1,25
 578 7 578 7 565 24 c 2,26,-1
 155 566 l 1,27,-1
 178 566 l 1,28,-1
 178 43 l 2,29,30
 178 19 178 19 166 6 c 128,-1,31
 154 -7 154 -7 131 -7 c 256,0,1
EndSplineSet
EndChar

StartChar: Eng
Encoding: 330 330 128
Width: 743
GlyphClass: 2
Flags: W
AnchorPoint: "Anchor-2" 372 0 basechar 0
AnchorPoint: "Anchor-0" 372 705 basechar 0
LayerCount: 2
Fore
SplineSet
477 -190 m 0,0,1
 459 -191 459 -191 447.5 -184 c 128,-1,2
 436 -177 436 -177 432 -166 c 128,-1,3
 428 -155 428 -155 430 -143.5 c 128,-1,4
 432 -132 432 -132 440 -123.5 c 128,-1,5
 448 -115 448 -115 462 -114 c 0,6,7
 513 -110 513 -110 539 -87 c 128,-1,8
 565 -64 565 -64 565 -11 c 2,9,-1
 565 43 l 1,10,-1
 584 0 l 1,11,-1
 155 566 l 1,12,-1
 178 566 l 1,13,-1
 178 43 l 2,14,15
 178 19 178 19 166 6 c 128,-1,16
 154 -7 154 -7 131 -7 c 256,17,18
 108 -7 108 -7 95 6 c 128,-1,19
 82 19 82 19 82 43 c 2,20,-1
 82 660 l 2,21,22
 82 685 82 685 94.5 698.5 c 128,-1,23
 107 712 107 712 128 712 c 0,24,25
 146 712 146 712 155.5 705.5 c 128,-1,26
 165 699 165 699 178 682 c 2,27,-1
 590 139 l 1,28,-1
 565 139 l 1,29,-1
 565 663 l 2,30,31
 565 686 565 686 577.5 699 c 128,-1,32
 590 712 590 712 613 712 c 0,33,34
 637 712 637 712 649 699 c 128,-1,35
 661 686 661 686 661 663 c 2,36,-1
 661 0 l 2,37,38
 661 -98 661 -98 614 -141.5 c 128,-1,39
 567 -185 567 -185 477 -190 c 0,0,1
EndSplineSet
EndChar

StartChar: O
Encoding: 79 79 129
Width: 775
GlyphClass: 2
Flags: W
AnchorPoint: "Anchor-5" 388 353 basechar 0
AnchorPoint: "Anchor-3" 446 0 basechar 0
AnchorPoint: "Anchor-2" 387 0 basechar 0
AnchorPoint: "Anchor-1" 457 705 basechar 0
AnchorPoint: "Anchor-0" 387 705 basechar 0
LayerCount: 2
Fore
SplineSet
388 -9 m 0,0,1
 288 -9 288 -9 213.5 35.5 c 128,-1,2
 139 80 139 80 98.5 161.5 c 128,-1,3
 58 243 58 243 58 353 c 0,4,5
 58 436 58 436 81 502.5 c 128,-1,6
 104 569 104 569 147 616.5 c 128,-1,7
 190 664 190 664 251 689 c 128,-1,8
 312 714 312 714 388 714 c 0,9,10
 489 714 489 714 563 670 c 128,-1,11
 637 626 637 626 677.5 545 c 128,-1,12
 718 464 718 464 718 354 c 0,13,14
 718 271 718 271 695 204 c 128,-1,15
 672 137 672 137 628.5 89 c 128,-1,16
 585 41 585 41 524 16 c 128,-1,17
 463 -9 463 -9 388 -9 c 0,0,1
388 81 m 0,18,19
 458 81 458 81 507.5 113 c 128,-1,20
 557 145 557 145 583.5 206 c 128,-1,21
 610 267 610 267 610 353 c 0,22,23
 610 482 610 482 552 553 c 128,-1,24
 494 624 494 624 388 624 c 0,25,26
 318 624 318 624 268.5 592.5 c 128,-1,27
 219 561 219 561 192.5 500 c 128,-1,28
 166 439 166 439 166 353 c 0,29,30
 166 225 166 225 224.5 153 c 128,-1,31
 283 81 283 81 388 81 c 0,18,19
EndSplineSet
Substitution2: "Single Substitution lookup 29 subtable" ordmasculine
Substitution2: "'aalt' Access All Alternates lookup 0 subtable" ordmasculine
EndChar

StartChar: OE
Encoding: 338 338 163
Width: 1051
GlyphClass: 2
Flags: W
AnchorPoint: "Anchor-2" 594 0 basechar 0
AnchorPoint: "Anchor-0" 594 705 basechar 0
LayerCount: 2
Fore
SplineSet
421 0 m 2,0,1
 247 0 247 0 152.5 91.5 c 128,-1,2
 58 183 58 183 58 353 c 0,3,4
 58 438 58 438 82 504 c 128,-1,5
 106 570 106 570 152.5 614.5 c 128,-1,6
 199 659 199 659 266.5 682 c 128,-1,7
 334 705 334 705 421 705 c 2,8,-1
 964 705 l 2,9,10
 985 705 985 705 996.5 694.5 c 128,-1,11
 1008 684 1008 684 1008 664 c 0,12,13
 1008 643 1008 643 996.5 632 c 128,-1,14
 985 621 985 621 964 621 c 2,15,-1
 644 621 l 1,16,-1
 644 400 l 1,17,-1
 943 400 l 2,18,19
 964 400 964 400 975 389 c 128,-1,20
 986 378 986 378 986 358 c 0,21,22
 986 337 986 337 975 326.5 c 128,-1,23
 964 316 964 316 943 316 c 2,24,-1
 644 316 l 1,25,-1
 644 84 l 1,26,-1
 964 84 l 2,27,28
 985 84 985 84 996.5 73 c 128,-1,29
 1008 62 1008 62 1008 42 c 0,30,31
 1008 21 1008 21 996.5 10.5 c 128,-1,32
 985 0 985 0 964 0 c 2,33,-1
 421 0 l 2,0,1
427 87 m 2,34,-1
 544 87 l 1,35,-1
 544 618 l 1,36,-1
 427 618 l 2,37,38
 362 618 362 618 313 602 c 128,-1,39
 264 586 264 586 231 552.5 c 128,-1,40
 198 519 198 519 182 469.5 c 128,-1,41
 166 420 166 420 166 353 c 0,42,43
 166 220 166 220 231 153.5 c 128,-1,44
 296 87 296 87 427 87 c 2,34,-1
EndSplineSet
EndChar

StartChar: P
Encoding: 80 80 164
Width: 642
GlyphClass: 2
Flags: W
AnchorPoint: "Anchor-2" 327 0 basechar 0
AnchorPoint: "Anchor-0" 327 705 basechar 0
LayerCount: 2
Fore
SplineSet
134 -7 m 0,0,1
 109 -7 109 -7 95.5 7 c 128,-1,2
 82 21 82 21 82 46 c 2,3,-1
 82 652 l 2,4,5
 82 678 82 678 96 691.5 c 128,-1,6
 110 705 110 705 135 705 c 2,7,-1
 374 705 l 2,8,9
 488 705 488 705 550 648.5 c 128,-1,10
 612 592 612 592 612 490 c 0,11,12
 612 387 612 387 550 330.5 c 128,-1,13
 488 274 488 274 374 274 c 2,14,-1
 186 274 l 1,15,-1
 186 46 l 2,16,17
 186 21 186 21 173 7 c 128,-1,18
 160 -7 160 -7 134 -7 c 0,0,1
186 357 m 1,19,-1
 359 357 l 2,20,21
 434 357 434 357 472.5 390.5 c 128,-1,22
 511 424 511 424 511 490 c 0,23,24
 511 555 511 555 472.5 588.5 c 128,-1,25
 434 622 434 622 359 622 c 2,26,-1
 186 622 l 1,27,-1
 186 357 l 1,19,-1
EndSplineSet
EndChar

StartChar: Thorn
Encoding: 222 222 165
Width: 644
GlyphClass: 2
Flags: W
AnchorPoint: "Anchor-2" 329 0 basechar 0
AnchorPoint: "Anchor-0" 329 705 basechar 0
LayerCount: 2
Fore
SplineSet
134 -4 m 0,0,1
 109 -4 109 -4 95.5 10 c 128,-1,2
 82 24 82 24 82 49 c 2,3,-1
 82 656 l 2,4,5
 82 682 82 682 96.5 695.5 c 128,-1,6
 111 709 111 709 135 709 c 0,7,8
 160 709 160 709 173 696 c 128,-1,9
 186 683 186 683 186 661 c 2,10,-1
 186 582 l 1,11,-1
 375 582 l 2,12,13
 490 582 490 582 551.5 525.5 c 128,-1,14
 613 469 613 469 613 366 c 0,15,16
 613 264 613 264 551.5 207 c 128,-1,17
 490 150 490 150 375 150 c 2,18,-1
 186 150 l 1,19,-1
 186 49 l 2,20,21
 186 24 186 24 173 10 c 128,-1,22
 160 -4 160 -4 134 -4 c 0,0,1
186 233 m 1,23,-1
 361 233 l 2,24,25
 436 233 436 233 474.5 267 c 128,-1,26
 513 301 513 301 513 366 c 0,27,28
 513 432 513 432 474.5 465.5 c 128,-1,29
 436 499 436 499 361 499 c 2,30,-1
 186 499 l 1,31,-1
 186 233 l 1,23,-1
EndSplineSet
EndChar

StartChar: Q
Encoding: 81 81 166
Width: 775
GlyphClass: 2
Flags: W
AnchorPoint: "Anchor-5" 388 353 basechar 0
AnchorPoint: "Anchor-3" 446 0 basechar 0
AnchorPoint: "Anchor-2" 377 0 basechar 0
AnchorPoint: "Anchor-1" 457 705 basechar 0
AnchorPoint: "Anchor-0" 377 705 basechar 0
LayerCount: 2
Fore
SplineSet
643 -124 m 2,0,1
 655 -142 655 -142 653 -157 c 128,-1,2
 651 -172 651 -172 640.5 -182.5 c 128,-1,3
 630 -193 630 -193 614.5 -195.5 c 128,-1,4
 599 -198 599 -198 583.5 -192 c 128,-1,5
 568 -186 568 -186 557 -168 c 2,6,-1
 491 -61 l 2,7,8
 476 -36 476 -36 450 -22.5 c 128,-1,9
 424 -9 424 -9 387 -9 c 1,10,-1
 469 24 l 1,11,12
 516 24 516 24 543.5 7.5 c 128,-1,13
 571 -9 571 -9 598 -52 c 2,14,-1
 643 -124 l 2,0,1
388 -9 m 0,15,16
 288 -9 288 -9 213.5 35.5 c 128,-1,17
 139 80 139 80 98.5 161.5 c 128,-1,18
 58 243 58 243 58 353 c 0,19,20
 58 436 58 436 81 502.5 c 128,-1,21
 104 569 104 569 147 616.5 c 128,-1,22
 190 664 190 664 251 689 c 128,-1,23
 312 714 312 714 388 714 c 0,24,25
 489 714 489 714 563 670 c 128,-1,26
 637 626 637 626 677.5 545 c 128,-1,27
 718 464 718 464 718 354 c 0,28,29
 718 271 718 271 695 204 c 128,-1,30
 672 137 672 137 628.5 89 c 128,-1,31
 585 41 585 41 524 16 c 128,-1,32
 463 -9 463 -9 388 -9 c 0,15,16
388 81 m 0,33,34
 458 81 458 81 507.5 113 c 128,-1,35
 557 145 557 145 583.5 206 c 128,-1,36
 610 267 610 267 610 353 c 0,37,38
 610 482 610 482 552 553 c 128,-1,39
 494 624 494 624 388 624 c 0,40,41
 318 624 318 624 268.5 592.5 c 128,-1,42
 219 561 219 561 192.5 500 c 128,-1,43
 166 439 166 439 166 353 c 0,44,45
 166 225 166 225 224.5 153 c 128,-1,46
 283 81 283 81 388 81 c 0,33,34
EndSplineSet
EndChar

StartChar: R
Encoding: 82 82 167
Width: 677
GlyphClass: 2
Flags: W
AnchorPoint: "Anchor-2" 345 0 basechar 0
AnchorPoint: "Anchor-0" 344 705 basechar 0
LayerCount: 2
Fore
SplineSet
134 -7 m 0,0,1
 109 -7 109 -7 95.5 7 c 128,-1,2
 82 21 82 21 82 46 c 2,3,-1
 82 652 l 2,4,5
 82 678 82 678 96 691.5 c 128,-1,6
 110 705 110 705 135 705 c 2,7,-1
 374 705 l 2,8,9
 488 705 488 705 550 651 c 128,-1,10
 612 597 612 597 612 498 c 0,11,12
 612 434 612 434 584 388 c 128,-1,13
 556 342 556 342 502.5 318 c 128,-1,14
 449 294 449 294 374 294 c 1,15,-1
 383 308 l 1,16,-1
 409 308 l 2,17,18
 449 308 449 308 478.5 288 c 128,-1,19
 508 268 508 268 532 224 c 2,20,-1
 618 64 l 2,21,22
 628 46 628 46 627.5 29.5 c 128,-1,23
 627 13 627 13 615.5 3 c 128,-1,24
 604 -7 604 -7 583 -7 c 0,25,26
 561 -7 561 -7 547.5 2.5 c 128,-1,27
 534 12 534 12 523 31 c 2,28,-1
 418 225 l 2,29,30
 397 264 397 264 370 277.5 c 128,-1,31
 343 291 343 291 299 291 c 2,32,-1
 186 291 l 1,33,-1
 186 46 l 2,34,35
 186 21 186 21 173 7 c 128,-1,36
 160 -7 160 -7 134 -7 c 0,0,1
186 369 m 1,37,-1
 357 369 l 2,38,39
 433 369 433 369 472 401 c 128,-1,40
 511 433 511 433 511 496 c 0,41,42
 511 558 511 558 472 590 c 128,-1,43
 433 622 433 622 357 622 c 2,44,-1
 186 622 l 1,45,-1
 186 369 l 1,37,-1
EndSplineSet
EndChar

StartChar: S
Encoding: 83 83 175
Width: 622
GlyphClass: 2
Flags: W
AnchorPoint: "Anchor-2" 319 0 basechar 0
AnchorPoint: "Anchor-0" 319 705 basechar 0
LayerCount: 2
Fore
SplineSet
317 -9 m 0,0,1
 271 -9 271 -9 227 -2 c 128,-1,2
 183 5 183 5 144 19.5 c 128,-1,3
 105 34 105 34 74 55 c 0,4,5
 59 66 59 66 53.5 80 c 128,-1,6
 48 94 48 94 50.5 107.5 c 128,-1,7
 53 121 53 121 62 131 c 128,-1,8
 71 141 71 141 84 143.5 c 128,-1,9
 97 146 97 146 113 135 c 0,10,11
 158 106 158 106 208 92.5 c 128,-1,12
 258 79 258 79 317 79 c 0,13,14
 402 79 402 79 442.5 109.5 c 128,-1,15
 483 140 483 140 483 189 c 0,16,17
 483 229 483 229 454 252.5 c 128,-1,18
 425 276 425 276 357 290 c 2,19,-1
 250 312 l 2,20,21
 155 332 155 332 108.5 378 c 128,-1,22
 62 424 62 424 62 502 c 0,23,24
 62 549 62 549 81.5 588 c 128,-1,25
 101 627 101 627 136 655.5 c 128,-1,26
 171 684 171 684 220 699 c 128,-1,27
 269 714 269 714 327 714 c 0,28,29
 389 714 389 714 443.5 698 c 128,-1,30
 498 682 498 682 541 649 c 0,31,32
 554 640 554 640 558.5 626.5 c 128,-1,33
 563 613 563 613 560.5 600 c 128,-1,34
 558 587 558 587 549 578 c 128,-1,35
 540 569 540 569 526 567.5 c 128,-1,36
 512 566 512 566 495 577 c 0,37,38
 456 603 456 603 415.5 614.5 c 128,-1,39
 375 626 375 626 326 626 c 256,40,41
 277 626 277 626 240.5 611 c 128,-1,42
 204 596 204 596 184.5 569 c 128,-1,43
 165 542 165 542 165 505 c 0,44,45
 165 463 165 463 192 438 c 128,-1,46
 219 413 219 413 282 400 c 2,47,-1
 388 378 l 2,48,49
 488 357 488 357 537 313 c 128,-1,50
 586 269 586 269 586 196 c 0,51,52
 586 149 586 149 567 111.5 c 128,-1,53
 548 74 548 74 513 47 c 128,-1,54
 478 20 478 20 428.5 5.5 c 128,-1,55
 379 -9 379 -9 317 -9 c 0,0,1
EndSplineSet
EndChar

StartChar: uni1E9E
Encoding: 7838 7838 186
Width: 720
GlyphClass: 1
Flags: W
LayerCount: 2
Fore
SplineSet
441 -9 m 0,0,1
 390 -9 390 -9 346 2.5 c 128,-1,2
 302 14 302 14 269 36 c 0,3,4
 255 45 255 45 250.5 57.5 c 128,-1,5
 246 70 246 70 249 83 c 128,-1,6
 252 96 252 96 260 105 c 128,-1,7
 268 114 268 114 279.5 116.5 c 128,-1,8
 291 119 291 119 304 111 c 0,9,10
 335 92 335 92 366 83.5 c 128,-1,11
 397 75 397 75 431 75 c 0,12,13
 495 75 495 75 528.5 107.5 c 128,-1,14
 562 140 562 140 562 195 c 0,15,16
 562 252 562 252 525.5 282 c 128,-1,17
 489 312 489 312 413 312 c 2,18,-1
 324 312 l 2,19,20
 305 312 305 312 293 323 c 128,-1,21
 281 334 281 334 281 354 c 0,22,23
 281 375 281 375 292 385 c 128,-1,24
 303 395 303 395 320 395 c 2,25,-1
 391 395 l 2,26,27
 453 395 453 395 489 425 c 128,-1,28
 525 455 525 455 525 512 c 256,29,30
 525 569 525 569 486 599 c 128,-1,31
 447 629 447 629 373 629 c 0,32,33
 280 629 280 629 233 585.5 c 128,-1,34
 186 542 186 542 186 454 c 2,35,-1
 186 46 l 2,36,37
 186 21 186 21 172.5 7 c 128,-1,38
 159 -7 159 -7 134 -7 c 256,39,40
 109 -7 109 -7 95.5 7 c 128,-1,41
 82 21 82 21 82 46 c 2,42,-1
 82 456 l 2,43,44
 82 541 82 541 117 598.5 c 128,-1,45
 152 656 152 656 217.5 685 c 128,-1,46
 283 714 283 714 376 714 c 0,47,48
 453 714 453 714 508.5 691.5 c 128,-1,49
 564 669 564 669 595 627 c 128,-1,50
 626 585 626 585 626 526 c 0,51,52
 626 463 626 463 592 416.5 c 128,-1,53
 558 370 558 370 498 354 c 1,54,-1
 498 370 l 1,55,56
 549 365 549 365 585.5 341.5 c 128,-1,57
 622 318 622 318 642.5 279.5 c 128,-1,58
 663 241 663 241 663 190 c 0,59,60
 663 126 663 126 636.5 82 c 128,-1,61
 610 38 610 38 560.5 14.5 c 128,-1,62
 511 -9 511 -9 441 -9 c 0,0,1
EndSplineSet
EndChar

StartChar: T
Encoding: 84 84 187
Width: 611
GlyphClass: 2
Flags: W
AnchorPoint: "Anchor-5" 306 358 basechar 0
AnchorPoint: "Anchor-2" 306 0 basechar 0
AnchorPoint: "Anchor-0" 306 705 basechar 0
LayerCount: 2
Fore
SplineSet
306 -7 m 0,0,1
 281 -7 281 -7 267.5 7 c 128,-1,2
 254 21 254 21 254 46 c 2,3,-1
 254 618 l 1,4,-1
 42 618 l 2,5,6
 21 618 21 618 9 629.5 c 128,-1,7
 -3 641 -3 641 -3 662 c 256,8,9
 -3 683 -3 683 9 694 c 128,-1,10
 21 705 21 705 42 705 c 2,11,-1
 569 705 l 2,12,13
 591 705 591 705 603 694 c 128,-1,14
 615 683 615 683 615 662 c 256,15,16
 615 641 615 641 603 629.5 c 128,-1,17
 591 618 591 618 569 618 c 2,18,-1
 357 618 l 1,19,-1
 357 46 l 2,20,21
 357 21 357 21 344.5 7 c 128,-1,22
 332 -7 332 -7 306 -7 c 0,0,1
EndSplineSet
EndChar

StartChar: U
Encoding: 85 85 194
Width: 733
GlyphClass: 2
Flags: W
AnchorPoint: "Anchor-3" 424 0 basechar 0
AnchorPoint: "Anchor-2" 367 0 basechar 0
AnchorPoint: "Anchor-1" 577 705 basechar 0
AnchorPoint: "Anchor-0" 367 705 basechar 0
LayerCount: 2
Fore
SplineSet
367 -9 m 0,0,1
 296 -9 296 -9 242 9.5 c 128,-1,2
 188 28 188 28 151.5 65 c 128,-1,3
 115 102 115 102 96 157 c 128,-1,4
 77 212 77 212 77 284 c 2,5,-1
 77 660 l 2,6,7
 77 686 77 686 90.5 699 c 128,-1,8
 104 712 104 712 129 712 c 256,9,10
 154 712 154 712 167.5 699 c 128,-1,11
 181 686 181 686 181 660 c 2,12,-1
 181 286 l 2,13,14
 181 183 181 183 228.5 132 c 128,-1,15
 276 81 276 81 367 81 c 0,16,17
 459 81 459 81 506 132 c 128,-1,18
 553 183 553 183 553 286 c 2,19,-1
 553 660 l 2,20,21
 553 686 553 686 566.5 699 c 128,-1,22
 580 712 580 712 604 712 c 0,23,24
 629 712 629 712 642 699 c 128,-1,25
 655 686 655 686 655 660 c 2,26,-1
 655 284 l 2,27,28
 655 188 655 188 622.5 122.5 c 128,-1,29
 590 57 590 57 526 24 c 128,-1,30
 462 -9 462 -9 367 -9 c 0,0,1
EndSplineSet
EndChar

StartChar: V
Encoding: 86 86 217
Width: 700
GlyphClass: 2
Flags: W
AnchorPoint: "Anchor-2" 350 0 basechar 0
AnchorPoint: "Anchor-0" 349 705 basechar 0
LayerCount: 2
Fore
SplineSet
350 -7 m 0,0,1
 328 -7 328 -7 313.5 3.5 c 128,-1,2
 299 14 299 14 290 35 c 2,3,-1
 21 644 l 2,4,5
 13 665 13 665 17 680 c 128,-1,6
 21 695 21 695 33.5 703.5 c 128,-1,7
 46 712 46 712 64 712 c 0,8,9
 87 712 87 712 99 702 c 128,-1,10
 111 692 111 692 119 672 c 2,11,-1
 371 88 l 1,12,-1
 334 88 l 1,13,-1
 584 673 l 2,14,15
 593 692 593 692 605.5 702 c 128,-1,16
 618 712 618 712 640 712 c 0,17,18
 658 712 658 712 669.5 703.5 c 128,-1,19
 681 695 681 695 684 680 c 128,-1,20
 687 665 687 665 678 644 c 2,21,-1
 410 35 l 2,22,23
 401 14 401 14 387 3.5 c 128,-1,24
 373 -7 373 -7 350 -7 c 0,0,1
EndSplineSet
EndChar

StartChar: W
Encoding: 87 87 218
Width: 1107
GlyphClass: 2
Flags: W
AnchorPoint: "Anchor-2" 554 0 basechar 0
AnchorPoint: "Anchor-0" 554 705 basechar 0
LayerCount: 2
Fore
SplineSet
319 -7 m 256,0,1
 297 -7 297 -7 283.5 4 c 128,-1,2
 270 15 270 15 261 38 c 2,3,-1
 46 651 l 2,4,5
 37 677 37 677 49.5 694.5 c 128,-1,6
 62 712 62 712 91 712 c 0,7,8
 113 712 113 712 125.5 702 c 128,-1,9
 138 692 138 692 145 670 c 2,10,-1
 340 96 l 1,11,-1
 303 96 l 1,12,-1
 503 668 l 2,13,14
 512 690 512 690 524 701 c 128,-1,15
 536 712 536 712 556 712 c 256,16,17
 576 712 576 712 587.5 701 c 128,-1,18
 599 690 599 690 608 667 c 2,19,-1
 804 96 l 1,20,-1
 771 96 l 1,21,-1
 968 670 l 2,22,23
 975 691 975 691 987.5 701.5 c 128,-1,24
 1000 712 1000 712 1021 712 c 0,25,26
 1047 712 1047 712 1059.5 694.5 c 128,-1,27
 1072 677 1072 677 1062 651 c 2,28,-1
 846 37 l 2,29,30
 837 15 837 15 824 4 c 128,-1,31
 811 -7 811 -7 789 -7 c 0,32,33
 766 -7 766 -7 753 4 c 128,-1,34
 740 15 740 15 732 38 c 2,35,-1
 543 579 l 1,36,-1
 565 579 l 1,37,-1
 374 37 l 2,38,39
 366 15 366 15 353.5 4 c 128,-1,40
 341 -7 341 -7 319 -7 c 256,0,1
EndSplineSet
EndChar

StartChar: X
Encoding: 88 88 223
Width: 660
GlyphClass: 2
Flags: W
AnchorPoint: "Anchor-2" 331 0 basechar 0
AnchorPoint: "Anchor-0" 330 705 basechar 0
LayerCount: 2
Fore
SplineSet
88 -7 m 0,0,1
 68 -7 68 -7 55 3.5 c 128,-1,2
 42 14 42 14 40 30.5 c 128,-1,3
 38 47 38 47 51 64 c 2,4,-1
 287 381 l 1,5,-1
 287 339 l 1,6,-1
 64 639 l 2,7,8
 51 657 51 657 52.5 674 c 128,-1,9
 54 691 54 691 67 701.5 c 128,-1,10
 80 712 80 712 99 712 c 0,11,12
 115 712 115 712 127.5 704.5 c 128,-1,13
 140 697 140 697 153 679 c 2,14,-1
 347 413 l 1,15,-1
 315 413 l 1,16,-1
 507 679 l 2,17,18
 520 697 520 697 532.5 704.5 c 128,-1,19
 545 712 545 712 562 712 c 0,20,21
 582 712 582 712 595 701.5 c 128,-1,22
 608 691 608 691 609.5 674.5 c 128,-1,23
 611 658 611 658 597 639 c 2,24,-1
 374 339 l 1,25,-1
 374 381 l 1,26,-1
 609 64 l 2,27,28
 622 47 622 47 620.5 30.5 c 128,-1,29
 619 14 619 14 606 3.5 c 128,-1,30
 593 -7 593 -7 572 -7 c 0,31,32
 557 -7 557 -7 544 1 c 128,-1,33
 531 9 531 9 517 26 c 2,34,-1
 311 308 l 1,35,-1
 349 308 l 1,36,-1
 144 26 l 2,37,38
 131 9 131 9 117.5 1 c 128,-1,39
 104 -7 104 -7 88 -7 c 0,0,1
EndSplineSet
EndChar

StartChar: Y
Encoding: 89 89 224
Width: 606
GlyphClass: 2
Flags: W
AnchorPoint: "Anchor-2" 304 0 basechar 0
AnchorPoint: "Anchor-0" 303 705 basechar 0
LayerCount: 2
Fore
SplineSet
303 -7 m 0,0,1
 278 -7 278 -7 264.5 7 c 128,-1,2
 251 21 251 21 251 47 c 2,3,-1
 251 364 l 1,4,-1
 274 298 l 1,5,-1
 27 641 l 2,6,7
 16 656 16 656 17 672.5 c 128,-1,8
 18 689 18 689 30.5 700.5 c 128,-1,9
 43 712 43 712 64 712 c 0,10,11
 80 712 80 712 93.5 704 c 128,-1,12
 107 696 107 696 119 679 c 2,13,-1
 317 404 l 1,14,-1
 293 404 l 1,15,-1
 491 679 l 2,16,17
 504 697 504 697 516 704.5 c 128,-1,18
 528 712 528 712 546 712 c 0,19,20
 567 712 567 712 578.5 701.5 c 128,-1,21
 590 691 590 691 590.5 674.5 c 128,-1,22
 591 658 591 658 578 640 c 2,23,-1
 333 298 l 1,24,-1
 354 364 l 1,25,-1
 354 47 l 2,26,27
 354 -7 354 -7 303 -7 c 0,0,1
EndSplineSet
EndChar

StartChar: uni01B3
Encoding: 435 435 231
Width: 616
GlyphClass: 1
Flags: W
LayerCount: 2
Fore
SplineSet
303 -7 m 0,0,1
 278 -7 278 -7 264.5 7 c 128,-1,2
 251 21 251 21 251 48 c 2,3,-1
 251 364 l 1,4,-1
 274 298 l 1,5,-1
 27 641 l 2,6,7
 16 656 16 656 17.5 672.5 c 128,-1,8
 19 689 19 689 31 700.5 c 128,-1,9
 43 712 43 712 65 712 c 0,10,11
 79 712 79 712 88 708.5 c 128,-1,12
 97 705 97 705 105 697 c 128,-1,13
 113 689 113 689 123 674 c 2,14,-1
 317 404 l 1,15,-1
 294 404 l 1,16,-1
 449 627 l 2,17,18
 470 657 470 657 493.5 675.5 c 128,-1,19
 517 694 517 694 545 703.5 c 128,-1,20
 573 713 573 713 607 713 c 0,21,22
 642 713 642 713 661.5 705 c 128,-1,23
 681 697 681 697 681 669 c 0,24,25
 681 658 681 658 677 650 c 128,-1,26
 673 642 673 642 666 638.5 c 128,-1,27
 659 635 659 635 650 635 c 0,28,29
 645 636 645 636 637 636.5 c 128,-1,30
 629 637 629 637 624 637 c 0,31,32
 601 637 601 637 577.5 625.5 c 128,-1,33
 554 614 554 614 535 587 c 2,34,-1
 333 298 l 1,35,-1
 354 364 l 1,36,-1
 354 48 l 2,37,38
 354 -7 354 -7 303 -7 c 0,0,1
EndSplineSet
EndChar

StartChar: Z
Encoding: 90 90 235
Width: 596
GlyphClass: 2
Flags: W
AnchorPoint: "Anchor-2" 310 0 basechar 0
AnchorPoint: "Anchor-0" 309 705 basechar 0
LayerCount: 2
Fore
SplineSet
95 0 m 2,0,1
 75 0 75 0 62.5 8 c 128,-1,2
 50 16 50 16 45.5 30.5 c 128,-1,3
 41 45 41 45 45.5 62.5 c 128,-1,4
 50 80 50 80 64 99 c 2,5,-1
 464 653 l 1,6,-1
 464 618 l 1,7,-1
 87 618 l 2,8,9
 64 618 64 618 52 629.5 c 128,-1,10
 40 641 40 641 40 662 c 256,11,12
 40 683 40 683 52 694 c 128,-1,13
 64 705 64 705 87 705 c 2,14,-1
 512 705 l 2,15,16
 532 705 532 705 545 697 c 128,-1,17
 558 689 558 689 562.5 675 c 128,-1,18
 567 661 567 661 562.5 643 c 128,-1,19
 558 625 558 625 544 606 c 2,20,-1
 143 52 l 1,21,-1
 143 87 l 1,22,-1
 535 87 l 2,23,24
 558 87 558 87 570 76 c 128,-1,25
 582 65 582 65 582 44 c 256,26,27
 582 23 582 23 570 11.5 c 128,-1,28
 558 0 558 0 535 0 c 2,29,-1
 95 0 l 2,0,1
EndSplineSet
EndChar

StartChar: a
Encoding: 97 97 242
Width: 537
GlyphClass: 2
Flags: W
AnchorPoint: "Anchor-3" 445 0 basechar 0
AnchorPoint: "Anchor-2" 271 0 basechar 0
AnchorPoint: "Anchor-0" 275 484 basechar 0
LayerCount: 2
Fore
SplineSet
227 -9 m 0,0,1
 176 -9 176 -9 135.5 11 c 128,-1,2
 95 31 95 31 72 65 c 128,-1,3
 49 99 49 99 49 142 c 0,4,5
 49 196 49 196 76.5 227.5 c 128,-1,6
 104 259 104 259 167.5 272.5 c 128,-1,7
 231 286 231 286 339 286 c 2,8,-1
 386 286 l 1,9,-1
 386 224 l 1,10,-1
 340 224 l 2,11,12
 268 224 268 224 226 217 c 128,-1,13
 184 210 184 210 166.5 193.5 c 128,-1,14
 149 177 149 177 149 148 c 0,15,16
 149 110 149 110 175 86.5 c 128,-1,17
 201 63 201 63 247 63 c 0,18,19
 284 63 284 63 312 80.5 c 128,-1,20
 340 98 340 98 356.5 128 c 128,-1,21
 373 158 373 158 373 197 c 2,22,-1
 373 312 l 2,23,24
 373 369 373 369 349 394 c 128,-1,25
 325 419 325 419 270 419 c 0,26,27
 238 419 238 419 203.5 411 c 128,-1,28
 169 403 169 403 132 384 c 0,29,30
 115 376 115 376 103 379 c 128,-1,31
 91 382 91 382 84 392.5 c 128,-1,32
 77 403 77 403 76.5 415.5 c 128,-1,33
 76 428 76 428 82.5 440 c 128,-1,34
 89 452 89 452 105 458 c 0,35,36
 149 479 149 479 192 488 c 128,-1,37
 235 497 235 497 273 497 c 0,38,39
 340 497 340 497 383.5 476 c 128,-1,40
 427 455 427 455 448 412 c 128,-1,41
 469 369 469 369 469 301 c 2,42,-1
 469 44 l 2,43,44
 469 20 469 20 457 6.5 c 128,-1,45
 445 -7 445 -7 422 -7 c 0,46,47
 400 -7 400 -7 387 6.5 c 128,-1,48
 374 20 374 20 374 44 c 2,49,-1
 374 109 l 1,50,-1
 383 109 l 1,51,52
 375 72 375 72 353.5 45.5 c 128,-1,53
 332 19 332 19 300 5 c 128,-1,54
 268 -9 268 -9 227 -9 c 0,0,1
EndSplineSet
Substitution2: "'ss01' Style Set 1 lookup 35 subtable" a.ss01
Substitution2: "'salt' Stylistic Alternatives lookup 34 subtable" a.ss01
Substitution2: "Single Substitution lookup 29 subtable" ordfeminine
AlternateSubs2: "'aalt' Access All Alternates lookup 1 subtable" a.ss01 ordfeminine
EndChar

StartChar: aogonek
Encoding: 261 261 265
Width: 537
GlyphClass: 1
Flags: W
LayerCount: 2
Fore
SplineSet
425 -194 m 0,0,1
 374 -194 374 -194 344 -166.5 c 128,-1,2
 314 -139 314 -139 314 -93 c 0,3,4
 314 -58 314 -58 334.5 -26 c 128,-1,5
 355 6 355 6 390 28 c 1,6,-1
 386 8 l 1,7,8
 380 16 380 16 377 24.5 c 128,-1,9
 374 33 374 33 374 45 c 2,10,-1
 374 109 l 1,11,-1
 383 109 l 1,12,13
 375 72 375 72 353.5 45.5 c 128,-1,14
 332 19 332 19 300 5 c 128,-1,15
 268 -9 268 -9 227 -9 c 0,16,17
 176 -9 176 -9 135.5 11 c 128,-1,18
 95 31 95 31 72 65 c 128,-1,19
 49 99 49 99 49 142 c 0,20,21
 49 196 49 196 76.5 227.5 c 128,-1,22
 104 259 104 259 167.5 272.5 c 128,-1,23
 231 286 231 286 339 286 c 2,24,-1
 386 286 l 1,25,-1
 386 224 l 1,26,-1
 340 224 l 2,27,28
 268 224 268 224 226 217 c 128,-1,29
 184 210 184 210 166.5 193.5 c 128,-1,30
 149 177 149 177 149 148 c 0,31,32
 149 110 149 110 175 86.5 c 128,-1,33
 201 63 201 63 247 63 c 0,34,35
 284 63 284 63 312 80.5 c 128,-1,36
 340 98 340 98 356.5 128 c 128,-1,37
 373 158 373 158 373 197 c 2,38,-1
 373 312 l 2,39,40
 373 369 373 369 349 394 c 128,-1,41
 325 419 325 419 270 419 c 0,42,43
 238 419 238 419 203.5 411 c 128,-1,44
 169 403 169 403 132 384 c 0,45,46
 115 376 115 376 103 379 c 128,-1,47
 91 382 91 382 84 392.5 c 128,-1,48
 77 403 77 403 76.5 415.5 c 128,-1,49
 76 428 76 428 82.5 440 c 128,-1,50
 89 452 89 452 105 458 c 0,51,52
 149 479 149 479 192 488 c 128,-1,53
 235 497 235 497 273 497 c 0,54,55
 340 497 340 497 383.5 476 c 128,-1,56
 427 455 427 455 448 412 c 128,-1,57
 469 369 469 369 469 301 c 2,58,-1
 469 44 l 2,59,60
 469 23 469 23 460.5 11.5 c 128,-1,61
 452 0 452 0 437 -7 c 0,62,63
 415 -18 415 -18 398 -37 c 128,-1,64
 381 -56 381 -56 381 -82 c 0,65,66
 381 -109 381 -109 397.5 -122.5 c 128,-1,67
 414 -136 414 -136 438 -136 c 0,68,69
 446 -136 446 -136 454.5 -134.5 c 128,-1,70
 463 -133 463 -133 471 -131 c 0,71,72
 486 -126 486 -126 495 -131.5 c 128,-1,73
 504 -137 504 -137 506 -148 c 128,-1,74
 508 -159 508 -159 503 -169 c 128,-1,75
 498 -179 498 -179 485 -185 c 0,76,77
 470 -190 470 -190 454.5 -192 c 128,-1,78
 439 -194 439 -194 425 -194 c 0,0,1
EndSplineSet
Substitution2: "'ss01' Style Set 1 lookup 35 subtable" aogonek.ss01
Substitution2: "'salt' Stylistic Alternatives lookup 34 subtable" aogonek.ss01
Substitution2: "'aalt' Access All Alternates lookup 0 subtable" aogonek.ss01
EndChar

StartChar: ae
Encoding: 230 230 269
Width: 863
GlyphClass: 2
Flags: W
AnchorPoint: "Anchor-2" 415 0 basechar 0
AnchorPoint: "Anchor-0" 415 484 basechar 0
LayerCount: 2
Fore
SplineSet
235 -9 m 0,0,1
 180 -9 180 -9 138 11 c 128,-1,2
 96 31 96 31 72.5 65 c 128,-1,3
 49 99 49 99 49 142 c 0,4,5
 49 196 49 196 77 227.5 c 128,-1,6
 105 259 105 259 168.5 272 c 128,-1,7
 232 285 232 285 341 285 c 2,8,-1
 386 285 l 1,9,-1
 386 223 l 1,10,-1
 340 223 l 2,11,12
 268 223 268 223 226 216.5 c 128,-1,13
 184 210 184 210 166.5 193.5 c 128,-1,14
 149 177 149 177 149 148 c 0,15,16
 149 110 149 110 175 86.5 c 128,-1,17
 201 63 201 63 248 63 c 0,18,19
 286 63 286 63 314 81 c 128,-1,20
 342 99 342 99 358 130.5 c 128,-1,21
 374 162 374 162 374 202 c 2,22,-1
 374 311 l 2,23,24
 374 368 374 368 349.5 393.5 c 128,-1,25
 325 419 325 419 272 419 c 0,26,27
 239 419 239 419 204.5 411 c 128,-1,28
 170 403 170 403 132 384 c 0,29,30
 116 376 116 376 104 379 c 128,-1,31
 92 382 92 382 85 392.5 c 128,-1,32
 78 403 78 403 77.5 415.5 c 128,-1,33
 77 428 77 428 83.5 440 c 128,-1,34
 90 452 90 452 106 458 c 0,35,36
 150 479 150 479 193 488 c 128,-1,37
 236 497 236 497 274 497 c 0,38,39
 345 497 345 497 388.5 469 c 128,-1,40
 432 441 432 441 449 385 c 1,41,-1
 423 385 l 1,42,43
 449 439 449 439 500 468 c 128,-1,44
 551 497 551 497 611 497 c 0,45,46
 660 497 660 497 699.5 480.5 c 128,-1,47
 739 464 739 464 767 433 c 128,-1,48
 795 402 795 402 810 357 c 128,-1,49
 825 312 825 312 825 256 c 2,50,-1
 825 253 l 2,51,52
 825 238 825 238 814.5 230.5 c 128,-1,53
 804 223 804 223 784 223 c 2,54,-1
 463 223 l 1,55,-1
 463 285 l 1,56,-1
 755 285 l 1,57,-1
 739 272 l 1,58,59
 739 321 739 321 725 355 c 128,-1,60
 711 389 711 389 682.5 407.5 c 128,-1,61
 654 426 654 426 612 426 c 0,62,63
 569 426 569 426 537.5 405.5 c 128,-1,64
 506 385 506 385 489 346.5 c 128,-1,65
 472 308 472 308 472 255 c 2,66,-1
 472 248 l 2,67,68
 472 160 472 160 511 114.5 c 128,-1,69
 550 69 550 69 629 69 c 0,70,71
 658 69 658 69 691.5 77 c 128,-1,72
 725 85 725 85 756 104 c 0,73,74
 773 114 773 114 786.5 113 c 128,-1,75
 800 112 800 112 808 104 c 128,-1,76
 816 96 816 96 818.5 84 c 128,-1,77
 821 72 821 72 815 59.5 c 128,-1,78
 809 47 809 47 794 37 c 0,79,80
 760 14 760 14 715 2.5 c 128,-1,81
 670 -9 670 -9 629 -9 c 0,82,83
 545 -9 545 -9 485.5 27.5 c 128,-1,84
 426 64 426 64 403 138 c 1,85,-1
 425 138 l 1,86,87
 410 69 410 69 360 30 c 128,-1,88
 310 -9 310 -9 235 -9 c 0,0,1
EndSplineSet
EndChar

StartChar: b
Encoding: 98 98 271
Width: 591
GlyphClass: 2
Flags: W
AnchorPoint: "Anchor-2" 308 0 basechar 0
AnchorPoint: "Anchor-0" 309 705 basechar 0
LayerCount: 2
Fore
SplineSet
333 -9 m 0,0,1
 269 -9 269 -9 222 23.5 c 128,-1,2
 175 56 175 56 159 110 c 1,3,-1
 170 128 l 1,4,-1
 170 44 l 2,5,6
 170 20 170 20 157 6.5 c 128,-1,7
 144 -7 144 -7 121 -7 c 0,8,9
 97 -7 97 -7 84 6.5 c 128,-1,10
 71 20 71 20 71 44 c 2,11,-1
 71 661 l 2,12,13
 71 686 71 686 84 699 c 128,-1,14
 97 712 97 712 121 712 c 256,15,16
 145 712 145 712 158.5 699 c 128,-1,17
 172 686 172 686 172 661 c 2,18,-1
 172 381 l 1,19,-1
 160 381 l 1,20,21
 176 434 176 434 223 465.5 c 128,-1,22
 270 497 270 497 333 497 c 0,23,24
 399 497 399 497 447 466 c 128,-1,25
 495 435 495 435 521.5 379 c 128,-1,26
 548 323 548 323 548 244 c 0,27,28
 548 167 548 167 521.5 109.5 c 128,-1,29
 495 52 495 52 446.5 21.5 c 128,-1,30
 398 -9 398 -9 333 -9 c 0,0,1
308 69 m 0,31,32
 350 69 350 69 381 89 c 128,-1,33
 412 109 412 109 429 148 c 128,-1,34
 446 187 446 187 446 244 c 0,35,36
 446 330 446 330 408.5 374 c 128,-1,37
 371 418 371 418 308 418 c 0,38,39
 267 418 267 418 235.5 398.5 c 128,-1,40
 204 379 204 379 187 340 c 128,-1,41
 170 301 170 301 170 244 c 0,42,43
 170 159 170 159 208 114 c 128,-1,44
 246 69 246 69 308 69 c 0,31,32
EndSplineSet
EndChar

StartChar: uni0253
Encoding: 595 595 272
Width: 591
GlyphClass: 1
Flags: W
LayerCount: 2
Fore
SplineSet
333 -9 m 0,0,1
 269 -9 269 -9 222 23.5 c 128,-1,2
 175 56 175 56 159 110 c 1,3,-1
 170 128 l 1,4,-1
 170 44 l 2,5,6
 170 20 170 20 157 6.5 c 128,-1,7
 144 -7 144 -7 121 -7 c 0,8,9
 97 -7 97 -7 84 6.5 c 128,-1,10
 71 20 71 20 71 44 c 2,11,-1
 71 533 l 2,12,13
 71 618 71 618 116.5 666 c 128,-1,14
 162 714 162 714 248 714 c 0,15,16
 286 714 286 714 301.5 703 c 128,-1,17
 317 692 317 692 317 672 c 256,18,19
 317 652 317 652 309 640.5 c 128,-1,20
 301 629 301 629 286 631 c 0,21,22
 281 631 281 631 274.5 632 c 128,-1,23
 268 633 268 633 259 633 c 0,24,25
 218 633 218 633 195 608 c 128,-1,26
 172 583 172 583 172 534 c 2,27,-1
 172 381 l 1,28,-1
 160 381 l 1,29,30
 176 434 176 434 223 465.5 c 128,-1,31
 270 497 270 497 333 497 c 0,32,33
 399 497 399 497 447 466 c 128,-1,34
 495 435 495 435 521.5 379 c 128,-1,35
 548 323 548 323 548 244 c 0,36,37
 548 167 548 167 521.5 109.5 c 128,-1,38
 495 52 495 52 446.5 21.5 c 128,-1,39
 398 -9 398 -9 333 -9 c 0,0,1
308 69 m 0,40,41
 350 69 350 69 381 89 c 128,-1,42
 412 109 412 109 429 148 c 128,-1,43
 446 187 446 187 446 244 c 0,44,45
 446 330 446 330 408.5 374 c 128,-1,46
 371 418 371 418 308 418 c 0,47,48
 267 418 267 418 235.5 398.5 c 128,-1,49
 204 379 204 379 187 340 c 128,-1,50
 170 301 170 301 170 244 c 0,51,52
 170 159 170 159 208 114 c 128,-1,53
 246 69 246 69 308 69 c 0,40,41
EndSplineSet
EndChar

StartChar: c
Encoding: 99 99 273
Width: 467
GlyphClass: 2
Flags: W
AnchorPoint: "Anchor-2" 281 0 basechar 0
AnchorPoint: "Anchor-0" 281 484 basechar 0
LayerCount: 2
Fore
SplineSet
286 -9 m 0,0,1
 211 -9 211 -9 156.5 22.5 c 128,-1,2
 102 54 102 54 72 111.5 c 128,-1,3
 42 169 42 169 42 247 c 0,4,5
 42 305 42 305 59 351.5 c 128,-1,6
 76 398 76 398 107.5 430 c 128,-1,7
 139 462 139 462 184.5 479.5 c 128,-1,8
 230 497 230 497 286 497 c 0,9,10
 321 497 321 497 359.5 486.5 c 128,-1,11
 398 476 398 476 431 452 c 0,12,13
 444 444 444 444 447.5 432.5 c 128,-1,14
 451 421 451 421 448.5 409 c 128,-1,15
 446 397 446 397 437.5 388.5 c 128,-1,16
 429 380 429 380 417 378.5 c 128,-1,17
 405 377 405 377 391 385 c 0,18,19
 367 402 367 402 342 409.5 c 128,-1,20
 317 417 317 417 294 417 c 0,21,22
 258 417 258 417 230.5 405.5 c 128,-1,23
 203 394 203 394 184 372.5 c 128,-1,24
 165 351 165 351 155.5 319 c 128,-1,25
 146 287 146 287 146 246 c 0,26,27
 146 164 146 164 184.5 117.5 c 128,-1,28
 223 71 223 71 294 71 c 0,29,30
 317 71 317 71 342 78 c 128,-1,31
 367 85 367 85 391 102 c 0,32,33
 405 110 405 110 417 108 c 128,-1,34
 429 106 429 106 436.5 97.5 c 128,-1,35
 444 89 444 89 446.5 77.5 c 128,-1,36
 449 66 449 66 445 54 c 128,-1,37
 441 42 441 42 428 34 c 0,38,39
 396 11 396 11 358.5 1 c 128,-1,40
 321 -9 321 -9 286 -9 c 0,0,1
EndSplineSet
EndChar

StartChar: d
Encoding: 100 100 280
Width: 591
GlyphClass: 2
Flags: W
AnchorPoint: "Anchor-5" 293 246 basechar 0
AnchorPoint: "Anchor-4" 420 586 basechar 0
AnchorPoint: "Anchor-2" 297 0 basechar 0
AnchorPoint: "Anchor-1" 564 705 basechar 0
AnchorPoint: "Anchor-0" 296 705 basechar 0
LayerCount: 2
Fore
SplineSet
257 -9 m 0,0,1
 193 -9 193 -9 144.5 21.5 c 128,-1,2
 96 52 96 52 69 109.5 c 128,-1,3
 42 167 42 167 42 244 c 0,4,5
 42 323 42 323 69 379 c 128,-1,6
 96 435 96 435 144.5 466 c 128,-1,7
 193 497 193 497 257 497 c 256,8,9
 321 497 321 497 367.5 465.5 c 128,-1,10
 414 434 414 434 430 381 c 1,11,-1
 419 381 l 1,12,-1
 419 661 l 2,13,14
 419 686 419 686 432 699 c 128,-1,15
 445 712 445 712 469 712 c 256,16,17
 493 712 493 712 506.5 699 c 128,-1,18
 520 686 520 686 520 661 c 2,19,-1
 520 44 l 2,20,21
 520 20 520 20 507 6.5 c 128,-1,22
 494 -7 494 -7 470 -7 c 256,23,24
 446 -7 446 -7 433 6.5 c 128,-1,25
 420 20 420 20 420 44 c 2,26,-1
 420 132 l 1,27,-1
 431 110 l 1,28,29
 415 56 415 56 368.5 23.5 c 128,-1,30
 322 -9 322 -9 257 -9 c 0,0,1
283 69 m 0,31,32
 324 69 324 69 355 89 c 128,-1,33
 386 109 386 109 403.5 148 c 128,-1,34
 421 187 421 187 421 244 c 0,35,36
 421 330 421 330 383 374 c 128,-1,37
 345 418 345 418 283 418 c 0,38,39
 241 418 241 418 210 398.5 c 128,-1,40
 179 379 179 379 161.5 340 c 128,-1,41
 144 301 144 301 144 244 c 0,42,43
 144 159 144 159 182 114 c 128,-1,44
 220 69 220 69 283 69 c 0,31,32
EndSplineSet
EndChar

StartChar: eth
Encoding: 240 240 281
Width: 569
GlyphClass: 1
Flags: W
LayerCount: 2
Fore
SplineSet
279 -9 m 0,0,1
 208 -9 208 -9 155 20 c 128,-1,2
 102 49 102 49 72 101 c 128,-1,3
 42 153 42 153 42 222 c 256,4,5
 42 291 42 291 71.5 342 c 128,-1,6
 101 393 101 393 153 422 c 128,-1,7
 205 451 205 451 273 451 c 0,8,9
 320 451 320 451 357.5 436 c 128,-1,10
 395 421 395 421 420 389 c 128,-1,11
 445 357 445 357 456 307 c 1,12,-1
 431 307 l 1,13,14
 432 400 432 400 393 469 c 128,-1,15
 354 538 354 538 292 579 c 1,16,-1
 313 579 l 1,17,-1
 164 513 l 2,18,19
 146 504 146 504 132 509 c 128,-1,20
 118 514 118 514 112.5 526 c 128,-1,21
 107 538 107 538 112.5 552 c 128,-1,22
 118 566 118 566 138 574 c 2,23,-1
 242 620 l 1,24,-1
 245 607 l 1,25,26
 227 617 227 617 206.5 624.5 c 128,-1,27
 186 632 186 632 164 639 c 0,28,29
 144 645 144 645 136.5 658 c 128,-1,30
 129 671 129 671 132.5 684 c 128,-1,31
 136 697 136 697 149 704.5 c 128,-1,32
 162 712 162 712 184 707 c 0,33,34
 226 696 226 696 261.5 680.5 c 128,-1,35
 297 665 297 665 330 646 c 1,36,-1
 302 647 l 1,37,-1
 426 702 l 2,38,39
 444 710 444 710 458 705 c 128,-1,40
 472 700 472 700 477.5 688 c 128,-1,41
 483 676 483 676 478.5 663 c 128,-1,42
 474 650 474 650 455 642 c 2,43,-1
 368 604 l 1,44,-1
 372 616 l 1,45,46
 422 578 422 578 456.5 527 c 128,-1,47
 491 476 491 476 509 416 c 128,-1,48
 527 356 527 356 527 286 c 0,49,50
 527 215 527 215 511 160 c 128,-1,51
 495 105 495 105 463 67.5 c 128,-1,52
 431 30 431 30 385 10.5 c 128,-1,53
 339 -9 339 -9 279 -9 c 0,0,1
282 70 m 0,54,55
 325 70 325 70 356 88.5 c 128,-1,56
 387 107 387 107 403.5 141.5 c 128,-1,57
 420 176 420 176 420 222 c 0,58,59
 420 292 420 292 383.5 332.5 c 128,-1,60
 347 373 347 373 282 373 c 0,61,62
 239 373 239 373 208.5 354.5 c 128,-1,63
 178 336 178 336 161 302.5 c 128,-1,64
 144 269 144 269 144 222 c 0,65,66
 144 150 144 150 180.5 110 c 128,-1,67
 217 70 217 70 282 70 c 0,54,55
EndSplineSet
EndChar

StartChar: dcroat
Encoding: 273 273 283
Width: 591
GlyphClass: 1
Flags: W
LayerCount: 2
Fore
SplineSet
258 -9 m 256,0,1
 194 -9 194 -9 145.5 21.5 c 128,-1,2
 97 52 97 52 70 109.5 c 128,-1,3
 43 167 43 167 43 244 c 0,4,5
 43 323 43 323 69.5 379 c 128,-1,6
 96 435 96 435 144.5 466 c 128,-1,7
 193 497 193 497 258 497 c 0,8,9
 322 497 322 497 368.5 465.5 c 128,-1,10
 415 434 415 434 431 381 c 1,11,-1
 420 381 l 1,12,-1
 420 549 l 1,13,-1
 263 549 l 2,14,15
 245 549 245 549 234.5 558.5 c 128,-1,16
 224 568 224 568 224 586 c 0,17,18
 224 603 224 603 234.5 612.5 c 128,-1,19
 245 622 245 622 263 622 c 2,20,-1
 462 622 l 1,21,-1
 420 579 l 1,22,-1
 420 668 l 2,23,24
 420 688 420 688 433 700 c 128,-1,25
 446 712 446 712 470 712 c 256,26,27
 494 712 494 712 507.5 700 c 128,-1,28
 521 688 521 688 521 668 c 2,29,-1
 521 579 l 1,30,-1
 478 622 l 1,31,-1
 576 622 l 2,32,33
 595 622 595 622 605 612.5 c 128,-1,34
 615 603 615 603 615 586 c 0,35,36
 615 568 615 568 605 558.5 c 128,-1,37
 595 549 595 549 576 549 c 2,38,-1
 521 549 l 1,39,-1
 521 44 l 2,40,41
 521 20 521 20 508 6.5 c 128,-1,42
 495 -7 495 -7 471 -7 c 0,43,44
 446 -7 446 -7 433 6.5 c 128,-1,45
 420 20 420 20 420 44 c 2,46,-1
 420 130 l 1,47,-1
 431 109 l 1,48,49
 415 56 415 56 368.5 23.5 c 128,-1,50
 322 -9 322 -9 258 -9 c 256,0,1
283 69 m 0,51,52
 325 69 325 69 356 89 c 128,-1,53
 387 109 387 109 404 148 c 128,-1,54
 421 187 421 187 421 244 c 0,55,56
 421 330 421 330 383.5 374 c 128,-1,57
 346 418 346 418 283 418 c 0,58,59
 242 418 242 418 210.5 398.5 c 128,-1,60
 179 379 179 379 162 340 c 128,-1,61
 145 301 145 301 145 244 c 0,62,63
 145 159 145 159 183 114 c 128,-1,64
 221 69 221 69 283 69 c 0,51,52
EndSplineSet
EndChar

StartChar: uni0257
Encoding: 599 599 285
Width: 591
GlyphClass: 1
Flags: W
LayerCount: 2
Fore
SplineSet
257 -9 m 0,0,1
 193 -9 193 -9 144.5 21.5 c 128,-1,2
 96 52 96 52 69 109.5 c 128,-1,3
 42 167 42 167 42 244 c 0,4,5
 42 323 42 323 69 379 c 128,-1,6
 96 435 96 435 144.5 466 c 128,-1,7
 193 497 193 497 257 497 c 256,8,9
 321 497 321 497 367.5 465.5 c 128,-1,10
 414 434 414 434 430 381 c 1,11,-1
 419 381 l 1,12,-1
 419 533 l 2,13,14
 419 618 419 618 464.5 666 c 128,-1,15
 510 714 510 714 597 714 c 0,16,17
 634 714 634 714 649.5 703 c 128,-1,18
 665 692 665 692 665 672 c 256,19,20
 665 652 665 652 657 640.5 c 128,-1,21
 649 629 649 629 635 631 c 0,22,23
 629 631 629 631 622.5 632 c 128,-1,24
 616 633 616 633 607 633 c 0,25,26
 566 633 566 633 543 608 c 128,-1,27
 520 583 520 583 520 534 c 2,28,-1
 520 44 l 2,29,30
 520 20 520 20 507 6.5 c 128,-1,31
 494 -7 494 -7 470 -7 c 256,32,33
 446 -7 446 -7 433 6.5 c 128,-1,34
 420 20 420 20 420 44 c 2,35,-1
 420 132 l 1,36,-1
 431 110 l 1,37,38
 415 56 415 56 368.5 23.5 c 128,-1,39
 322 -9 322 -9 257 -9 c 0,0,1
283 70 m 0,40,41
 324 70 324 70 355 89.5 c 128,-1,42
 386 109 386 109 403.5 148 c 128,-1,43
 421 187 421 187 421 244 c 0,44,45
 421 330 421 330 383 374 c 128,-1,46
 345 418 345 418 283 418 c 0,47,48
 241 418 241 418 210 398.5 c 128,-1,49
 179 379 179 379 161.5 340 c 128,-1,50
 144 301 144 301 144 244 c 0,51,52
 144 159 144 159 182 114.5 c 128,-1,53
 220 70 220 70 283 70 c 0,40,41
EndSplineSet
EndChar

StartChar: e
Encoding: 101 101 288
Width: 537
GlyphClass: 2
Flags: W
AnchorPoint: "Anchor-3" 363 0 basechar 0
AnchorPoint: "Anchor-2" 282 0 basechar 0
AnchorPoint: "Anchor-0" 282 484 basechar 0
LayerCount: 2
Fore
SplineSet
300 -9 m 0,0,1
 220 -9 220 -9 162.5 21.5 c 128,-1,2
 105 52 105 52 73.5 108.5 c 128,-1,3
 42 165 42 165 42 243 c 0,4,5
 42 319 42 319 73 376 c 128,-1,6
 104 433 104 433 158 465 c 128,-1,7
 212 497 212 497 281 497 c 0,8,9
 332 497 332 497 372 480.5 c 128,-1,10
 412 464 412 464 440.5 432.5 c 128,-1,11
 469 401 469 401 483.5 356 c 128,-1,12
 498 311 498 311 498 255 c 0,13,14
 498 238 498 238 488 229.5 c 128,-1,15
 478 221 478 221 458 221 c 2,16,-1
 122 221 l 1,17,-1
 122 283 l 1,18,-1
 430 283 l 1,19,-1
 413 269 l 1,20,21
 413 319 413 319 398.5 354 c 128,-1,22
 384 389 384 389 355.5 407.5 c 128,-1,23
 327 426 327 426 285 426 c 0,24,25
 238 426 238 426 205.5 404 c 128,-1,26
 173 382 173 382 156 343 c 128,-1,27
 139 304 139 304 139 252 c 2,28,-1
 139 246 l 2,29,30
 139 158 139 158 180.5 113.5 c 128,-1,31
 222 69 222 69 301 69 c 0,32,33
 331 69 331 69 364.5 77 c 128,-1,34
 398 85 398 85 428 104 c 0,35,36
 445 114 445 114 458.5 113 c 128,-1,37
 472 112 472 112 480.5 104 c 128,-1,38
 489 96 489 96 491 84 c 128,-1,39
 493 72 493 72 487 59.5 c 128,-1,40
 481 47 481 47 466 37 c 0,41,42
 432 14 432 14 387 2.5 c 128,-1,43
 342 -9 342 -9 300 -9 c 0,0,1
EndSplineSet
EndChar

StartChar: uni0259
Encoding: 601 601 311
Width: 537
GlyphClass: 1
Flags: W
LayerCount: 2
Fore
SplineSet
259 -9 m 256,0,1
 189 -9 189 -9 140 19.5 c 128,-1,2
 91 48 91 48 65 102.5 c 128,-1,3
 39 157 39 157 39 233 c 0,4,5
 39 249 39 249 49.5 257.5 c 128,-1,6
 60 266 60 266 79 266 c 2,7,-1
 416 266 l 1,8,-1
 416 204 l 1,9,-1
 108 204 l 1,10,-1
 127 219 l 1,11,12
 128 169 128 169 142.5 134 c 128,-1,13
 157 99 157 99 185.5 80.5 c 128,-1,14
 214 62 214 62 257 62 c 0,15,16
 302 62 302 62 334 83 c 128,-1,17
 366 104 366 104 382.5 143 c 128,-1,18
 399 182 399 182 399 235 c 2,19,-1
 399 242 l 2,20,21
 399 329 399 329 357 373.5 c 128,-1,22
 315 418 315 418 236 418 c 0,23,24
 207 418 207 418 173.5 410 c 128,-1,25
 140 402 140 402 109 382 c 0,26,27
 92 372 92 372 78.5 373 c 128,-1,28
 65 374 65 374 57 382.5 c 128,-1,29
 49 391 49 391 47 403.5 c 128,-1,30
 45 416 45 416 50.5 428.5 c 128,-1,31
 56 441 56 441 71 450 c 0,32,33
 105 473 105 473 150.5 485 c 128,-1,34
 196 497 196 497 237 497 c 0,35,36
 317 497 317 497 374.5 466.5 c 128,-1,37
 432 436 432 436 463.5 379.5 c 128,-1,38
 495 323 495 323 495 245 c 0,39,40
 495 169 495 169 465 112 c 128,-1,41
 435 55 435 55 382 23 c 128,-1,42
 329 -9 329 -9 259 -9 c 256,0,1
EndSplineSet
EndChar

StartChar: f
Encoding: 102 102 314
Width: 347
GlyphClass: 2
Flags: W
AnchorPoint: "Anchor-2" 151 0 basechar 0
AnchorPoint: "Anchor-0" 151 705 basechar 0
LayerCount: 2
Fore
SplineSet
151 -7 m 0,0,1
 127 -7 127 -7 113.5 6.5 c 128,-1,2
 100 20 100 20 100 44 c 2,3,-1
 100 410 l 1,4,-1
 44 410 l 2,5,6
 25 410 25 410 14 420.5 c 128,-1,7
 3 431 3 431 3 449 c 0,8,9
 3 468 3 468 14 478 c 128,-1,10
 25 488 25 488 44 488 c 2,11,-1
 129 488 l 1,12,-1
 100 461 l 1,13,-1
 100 497 l 2,14,15
 100 596 100 596 149 646.5 c 128,-1,16
 198 697 198 697 292 706 c 2,17,-1
 323 708 l 2,18,19
 340 710 340 710 350 703 c 128,-1,20
 360 696 360 696 363 685 c 128,-1,21
 366 674 366 674 363.5 662.5 c 128,-1,22
 361 651 361 651 353 642 c 128,-1,23
 345 633 345 633 333 632 c 2,24,-1
 314 631 l 2,25,26
 255 626 255 626 228 597.5 c 128,-1,27
 201 569 201 569 201 511 c 2,28,-1
 201 472 l 1,29,-1
 187 488 l 1,30,-1
 298 488 l 2,31,32
 319 488 319 488 329.5 478 c 128,-1,33
 340 468 340 468 340 449 c 0,34,35
 340 431 340 431 329.5 420.5 c 128,-1,36
 319 410 319 410 298 410 c 2,37,-1
 201 410 l 1,38,-1
 201 44 l 2,39,40
 201 -7 201 -7 151 -7 c 0,0,1
EndSplineSet
EndChar

StartChar: g
Encoding: 103 103 315
Width: 594
GlyphClass: 2
Flags: W
AnchorPoint: "Anchor-0" 299 484 basechar 0
LayerCount: 2
Fore
SplineSet
292 -189 m 0,0,1
 238 -189 238 -189 187.5 -178 c 128,-1,2
 137 -167 137 -167 96 -142 c 0,3,4
 81 -134 81 -134 76 -122.5 c 128,-1,5
 71 -111 71 -111 73.5 -99 c 128,-1,6
 76 -87 76 -87 84 -78 c 128,-1,7
 92 -69 92 -69 103.5 -66 c 128,-1,8
 115 -63 115 -63 128 -70 c 0,9,10
 172 -94 172 -94 211.5 -102.5 c 128,-1,11
 251 -111 251 -111 285 -111 c 0,12,13
 355 -111 355 -111 390 -75.5 c 128,-1,14
 425 -40 425 -40 425 29 c 2,15,-1
 425 131 l 1,16,-1
 434 131 l 1,17,18
 419 76 419 76 371 44 c 128,-1,19
 323 12 323 12 260 12 c 0,20,21
 194 12 194 12 145 42.5 c 128,-1,22
 96 73 96 73 69 127.5 c 128,-1,23
 42 182 42 182 42 255 c 0,24,25
 42 310 42 310 57.5 354 c 128,-1,26
 73 398 73 398 101.5 430 c 128,-1,27
 130 462 130 462 170.5 479.5 c 128,-1,28
 211 497 211 497 260 497 c 0,29,30
 324 497 324 497 371.5 465 c 128,-1,31
 419 433 419 433 433 378 c 1,32,-1
 423 361 l 1,33,-1
 423 444 l 2,34,35
 423 469 423 469 436.5 482 c 128,-1,36
 450 495 450 495 473 495 c 0,37,38
 497 495 497 495 510 482 c 128,-1,39
 523 469 523 469 523 444 c 2,40,-1
 523 41 l 2,41,42
 523 -73 523 -73 464 -131 c 128,-1,43
 405 -189 405 -189 292 -189 c 0,0,1
284 91 m 0,44,45
 328 91 328 91 359 111 c 128,-1,46
 390 131 390 131 407 168 c 128,-1,47
 424 205 424 205 424 255 c 0,48,49
 424 330 424 330 386.5 374 c 128,-1,50
 349 418 349 418 284 418 c 0,51,52
 241 418 241 418 210 398 c 128,-1,53
 179 378 179 378 161.5 341.5 c 128,-1,54
 144 305 144 305 144 255 c 0,55,56
 144 179 144 179 182 135 c 128,-1,57
 220 91 220 91 284 91 c 0,44,45
EndSplineSet
EndChar

StartChar: uni01E5
Encoding: 485 485 322
Width: 594
GlyphClass: 1
Flags: W
LayerCount: 2
Fore
SplineSet
292 -189 m 0,0,1
 238 -189 238 -189 188.5 -178 c 128,-1,2
 139 -167 139 -167 96 -142 c 0,3,4
 81 -134 81 -134 76 -122.5 c 128,-1,5
 71 -111 71 -111 74 -98.5 c 128,-1,6
 77 -86 77 -86 85 -77 c 128,-1,7
 93 -68 93 -68 104 -65.5 c 128,-1,8
 115 -63 115 -63 128 -70 c 0,9,10
 165 -92 165 -92 208 -101.5 c 128,-1,11
 251 -111 251 -111 285 -111 c 0,12,13
 331 -110 331 -110 361.5 -94.5 c 128,-1,14
 392 -79 392 -79 407 -49 c 1,15,-1
 416 -59 l 1,16,-1
 326 -59 l 2,17,18
 311 -59 311 -59 301.5 -49 c 128,-1,19
 292 -39 292 -39 292 -26 c 0,20,21
 292 -11 292 -11 301.5 -2 c 128,-1,22
 311 7 311 7 326 7 c 2,23,-1
 430 7 l 1,24,-1
 421 -15 l 1,25,26
 423 -5 423 -5 424 6 c 128,-1,27
 425 17 425 17 425 29 c 2,28,-1
 425 157 l 1,29,-1
 433 157 l 1,30,31
 419 103 419 103 372 71.5 c 128,-1,32
 325 40 325 40 261 40 c 0,33,34
 196 40 196 40 146.5 69 c 128,-1,35
 97 98 97 98 69.5 150 c 128,-1,36
 42 202 42 202 42 268 c 0,37,38
 42 318 42 318 57.5 360 c 128,-1,39
 73 402 73 402 102 432.5 c 128,-1,40
 131 463 131 463 171.5 480 c 128,-1,41
 212 497 212 497 261 497 c 0,42,43
 325 497 325 497 372 465.5 c 128,-1,44
 419 434 419 434 433 380 c 1,45,-1
 423 380 l 1,46,-1
 423 445 l 2,47,48
 423 469 423 469 436.5 482 c 128,-1,49
 450 495 450 495 473 495 c 0,50,51
 497 495 497 495 510 482 c 128,-1,52
 523 469 523 469 523 445 c 2,53,-1
 523 41 l 2,54,55
 523 24 523 24 521.5 8.5 c 128,-1,56
 520 -7 520 -7 518 -20 c 1,57,-1
 512 7 l 1,58,-1
 558 7 l 2,59,60
 573 7 573 7 582.5 -2 c 128,-1,61
 592 -11 592 -11 592 -26 c 0,62,63
 592 -39 592 -39 582.5 -49 c 128,-1,64
 573 -59 573 -59 558 -59 c 2,65,-1
 490 -59 l 1,66,-1
 512 -49 l 1,67,68
 491 -119 491 -119 436 -154 c 128,-1,69
 381 -189 381 -189 292 -189 c 0,0,1
284 118 m 0,70,71
 326 118 326 118 357 137 c 128,-1,72
 388 156 388 156 405.5 190 c 128,-1,73
 423 224 423 224 423 268 c 0,74,75
 423 336 423 336 385 377 c 128,-1,76
 347 418 347 418 284 418 c 0,77,78
 243 418 243 418 211 399.5 c 128,-1,79
 179 381 179 381 161.5 347.5 c 128,-1,80
 144 314 144 314 144 268 c 0,81,82
 144 200 144 200 183 159 c 128,-1,83
 222 118 222 118 284 118 c 0,70,71
EndSplineSet
EndChar

StartChar: h
Encoding: 104 104 323
Width: 576
GlyphClass: 2
Flags: W
AnchorPoint: "Anchor-5" 289 247 basechar 0
AnchorPoint: "Anchor-4" 172 586 basechar 0
AnchorPoint: "Anchor-2" 289 0 basechar 0
AnchorPoint: "Anchor-1" 205 705 basechar 0
AnchorPoint: "Anchor-0" 289 705 basechar 0
LayerCount: 2
Fore
SplineSet
121 -7 m 0,0,1
 97 -7 97 -7 84 6.5 c 128,-1,2
 71 20 71 20 71 44 c 2,3,-1
 71 661 l 2,4,5
 71 686 71 686 84 699 c 128,-1,6
 97 712 97 712 121 712 c 256,7,8
 145 712 145 712 158.5 699 c 128,-1,9
 172 686 172 686 172 661 c 2,10,-1
 172 384 l 1,11,-1
 158 384 l 1,12,13
 180 440 180 440 227 468.5 c 128,-1,14
 274 497 274 497 335 497 c 0,15,16
 393 497 393 497 431.5 475.5 c 128,-1,17
 470 454 470 454 489 410.5 c 128,-1,18
 508 367 508 367 508 301 c 2,19,-1
 508 44 l 2,20,21
 508 20 508 20 495 6.5 c 128,-1,22
 482 -7 482 -7 458 -7 c 0,23,24
 433 -7 433 -7 420 6.5 c 128,-1,25
 407 20 407 20 407 44 c 2,26,-1
 407 295 l 2,27,28
 407 358 407 358 382.5 387 c 128,-1,29
 358 416 358 416 306 416 c 0,30,31
 245 416 245 416 208.5 378 c 128,-1,32
 172 340 172 340 172 276 c 2,33,-1
 172 44 l 2,34,35
 172 -7 172 -7 121 -7 c 0,0,1
EndSplineSet
EndChar

StartChar: hbar
Encoding: 295 295 324
Width: 576
GlyphClass: 1
Flags: W
LayerCount: 2
Fore
SplineSet
121 -7 m 0,0,1
 97 -7 97 -7 84 6.5 c 128,-1,2
 71 20 71 20 71 44 c 2,3,-1
 71 549 l 1,4,-1
 18 549 l 2,5,6
 -1 549 -1 549 -11 558.5 c 128,-1,7
 -21 568 -21 568 -21 586 c 0,8,9
 -21 622 -21 622 18 622 c 2,10,-1
 93 622 l 1,11,-1
 71 585 l 1,12,-1
 71 665 l 2,13,14
 71 687 71 687 84 699.5 c 128,-1,15
 97 712 97 712 121 712 c 256,16,17
 145 712 145 712 158.5 699.5 c 128,-1,18
 172 687 172 687 172 665 c 2,19,-1
 172 585 l 1,20,-1
 149 622 l 1,21,-1
 325 622 l 2,22,23
 345 622 345 622 355 612.5 c 128,-1,24
 365 603 365 603 365 586 c 0,25,26
 365 549 365 549 325 549 c 2,27,-1
 172 549 l 1,28,-1
 172 384 l 1,29,-1
 158 384 l 1,30,31
 180 440 180 440 227 468.5 c 128,-1,32
 274 497 274 497 335 497 c 0,33,34
 393 497 393 497 431.5 475.5 c 128,-1,35
 470 454 470 454 489 410.5 c 128,-1,36
 508 367 508 367 508 301 c 2,37,-1
 508 44 l 2,38,39
 508 20 508 20 495 6.5 c 128,-1,40
 482 -7 482 -7 458 -7 c 0,41,42
 433 -7 433 -7 420 6.5 c 128,-1,43
 407 20 407 20 407 44 c 2,44,-1
 407 295 l 2,45,46
 407 358 407 358 382.5 387 c 128,-1,47
 358 416 358 416 306 416 c 0,48,49
 245 416 245 416 208.5 378 c 128,-1,50
 172 340 172 340 172 276 c 2,51,-1
 172 44 l 2,52,53
 172 -7 172 -7 121 -7 c 0,0,1
EndSplineSet
EndChar

StartChar: i
Encoding: 105 105 329
Width: 243
GlyphClass: 2
Flags: W
AnchorPoint: "Anchor-3" 153 0 basechar 0
AnchorPoint: "Anchor-2" 121 0 basechar 0
LayerCount: 2
Fore
SplineSet
121 -6 m 0,0,1
 97 -6 97 -6 84 8.5 c 128,-1,2
 71 23 71 23 71 49 c 2,3,-1
 71 439 l 2,4,5
 71 465 71 465 84 479 c 128,-1,6
 97 493 97 493 121 493 c 256,7,8
 145 493 145 493 158.5 479 c 128,-1,9
 172 465 172 465 172 439 c 2,10,-1
 172 49 l 2,11,12
 172 23 172 23 159 8.5 c 128,-1,13
 146 -6 146 -6 121 -6 c 0,0,1
121 597 m 256,14,15
 91 597 91 597 74.5 612 c 128,-1,16
 58 627 58 627 58 654 c 0,17,18
 58 682 58 682 74.5 696.5 c 128,-1,19
 91 711 91 711 121 711 c 256,20,21
 151 711 151 711 167.5 696.5 c 128,-1,22
 184 682 184 682 184 654 c 0,23,24
 184 627 184 627 167.5 612 c 128,-1,25
 151 597 151 597 121 597 c 256,14,15
EndSplineSet
Substitution2: "'locl' Localized Forms in Latin lookup 10 subtable" i.loclTRK
Substitution2: "Single Substitution lookup 4 subtable" dotlessi
Substitution2: "Single Substitution lookup 3 subtable" dotlessi
Substitution2: "'aalt' Access All Alternates lookup 0 subtable" i.loclTRK
EndChar

StartChar: dotlessi
Encoding: 305 305 330
Width: 243
GlyphClass: 2
Flags: W
AnchorPoint: "Anchor-3" 153 0 basechar 0
AnchorPoint: "Anchor-2" 121 0 basechar 0
AnchorPoint: "Anchor-0" 121 484 basechar 0
LayerCount: 2
Fore
SplineSet
121 -6 m 0,0,1
 97 -6 97 -6 84 8.5 c 128,-1,2
 71 23 71 23 71 49 c 2,3,-1
 71 439 l 2,4,5
 71 465 71 465 84 479 c 128,-1,6
 97 493 97 493 121 493 c 256,7,8
 145 493 145 493 158.5 479 c 128,-1,9
 172 465 172 465 172 439 c 2,10,-1
 172 49 l 2,11,12
 172 23 172 23 159 8.5 c 128,-1,13
 146 -6 146 -6 121 -6 c 0,0,1
EndSplineSet
EndChar

StartChar: iogonek
Encoding: 303 303 343
Width: 243
GlyphClass: 1
Flags: W
LayerCount: 2
Fore
SplineSet
133 -194 m 0,0,1
 83 -194 83 -194 52.5 -166.5 c 128,-1,2
 22 -139 22 -139 22 -93 c 0,3,4
 22 -59 22 -59 40.5 -29 c 128,-1,5
 59 1 59 1 91 22 c 1,6,-1
 87 6 l 1,7,8
 79 13 79 13 75 24 c 128,-1,9
 71 35 71 35 71 49 c 2,10,-1
 71 439 l 2,11,12
 71 465 71 465 84 479 c 128,-1,13
 97 493 97 493 121 493 c 256,14,15
 145 493 145 493 158.5 479 c 128,-1,16
 172 465 172 465 172 439 c 2,17,-1
 172 49 l 2,18,19
 172 30 172 30 164.5 17 c 128,-1,20
 157 4 157 4 144 -4 c 0,21,22
 121 -19 121 -19 105.5 -38 c 128,-1,23
 90 -57 90 -57 90 -82 c 0,24,25
 90 -109 90 -109 106.5 -122.5 c 128,-1,26
 123 -136 123 -136 147 -136 c 0,27,28
 155 -136 155 -136 163 -134.5 c 128,-1,29
 171 -133 171 -133 180 -131 c 0,30,31
 195 -126 195 -126 204 -131.5 c 128,-1,32
 213 -137 213 -137 215 -148 c 128,-1,33
 217 -159 217 -159 212 -169 c 128,-1,34
 207 -179 207 -179 194 -185 c 0,35,36
 179 -190 179 -190 163 -192 c 128,-1,37
 147 -194 147 -194 133 -194 c 0,0,1
121 597 m 256,38,39
 91 597 91 597 74.5 612 c 128,-1,40
 58 627 58 627 58 654 c 0,41,42
 58 682 58 682 74.5 696.5 c 128,-1,43
 91 711 91 711 121 711 c 256,44,45
 151 711 151 711 167.5 696.5 c 128,-1,46
 184 682 184 682 184 654 c 0,47,48
 184 627 184 627 167.5 612 c 128,-1,49
 151 597 151 597 121 597 c 256,38,39
EndSplineSet
EndChar

StartChar: j
Encoding: 106 106 345
Width: 246
GlyphClass: 1
Flags: W
LayerCount: 2
Fore
SplineSet
-7 -190 m 0,0,1
 -25 -191 -25 -191 -36.5 -184 c 128,-1,2
 -48 -177 -48 -177 -52.5 -166 c 128,-1,3
 -57 -155 -57 -155 -55.5 -143.5 c 128,-1,4
 -54 -132 -54 -132 -45.5 -123.5 c 128,-1,5
 -37 -115 -37 -115 -23 -114 c 0,6,7
 27 -111 27 -111 50.5 -87 c 128,-1,8
 74 -63 74 -63 74 -11 c 2,9,-1
 74 444 l 2,10,11
 74 469 74 469 87.5 482 c 128,-1,12
 101 495 101 495 125 495 c 0,13,14
 150 495 150 495 162.5 482 c 128,-1,15
 175 469 175 469 175 444 c 2,16,-1
 175 -3 l 2,17,18
 175 -65 175 -65 154.5 -105.5 c 128,-1,19
 134 -146 134 -146 94 -166 c 128,-1,20
 54 -186 54 -186 -7 -190 c 0,0,1
125 597 m 256,21,22
 95 597 95 597 78.5 612 c 128,-1,23
 62 627 62 627 62 654 c 0,24,25
 62 682 62 682 78.5 696.5 c 128,-1,26
 95 711 95 711 125 711 c 256,27,28
 155 711 155 711 171 696.5 c 128,-1,29
 187 682 187 682 187 654 c 0,30,31
 187 627 187 627 171 612 c 128,-1,32
 155 597 155 597 125 597 c 256,21,22
EndSplineSet
Substitution2: "Single Substitution lookup 4 subtable" uni0237
Substitution2: "Single Substitution lookup 3 subtable" uni0237
EndChar

StartChar: uni0237
Encoding: 567 567 346
Width: 246
GlyphClass: 2
Flags: W
AnchorPoint: "Anchor-2" 125 0 basechar 0
AnchorPoint: "Anchor-0" 125 484 basechar 0
LayerCount: 2
Fore
SplineSet
-7 -190 m 0,0,1
 -25 -191 -25 -191 -36.5 -184 c 128,-1,2
 -48 -177 -48 -177 -52.5 -166 c 128,-1,3
 -57 -155 -57 -155 -55.5 -143.5 c 128,-1,4
 -54 -132 -54 -132 -45.5 -123.5 c 128,-1,5
 -37 -115 -37 -115 -23 -114 c 0,6,7
 27 -111 27 -111 50.5 -87 c 128,-1,8
 74 -63 74 -63 74 -11 c 2,9,-1
 74 444 l 2,10,11
 74 469 74 469 87.5 482 c 128,-1,12
 101 495 101 495 125 495 c 0,13,14
 150 495 150 495 162.5 482 c 128,-1,15
 175 469 175 469 175 444 c 2,16,-1
 175 -3 l 2,17,18
 175 -65 175 -65 154.5 -105.5 c 128,-1,19
 134 -146 134 -146 94 -166 c 128,-1,20
 54 -186 54 -186 -7 -190 c 0,0,1
EndSplineSet
EndChar

StartChar: k
Encoding: 107 107 348
Width: 516
GlyphClass: 2
Flags: W
AnchorPoint: "Anchor-2" 258 0 basechar 0
AnchorPoint: "Anchor-0" 289 705 basechar 0
LayerCount: 2
Fore
SplineSet
121 -7 m 0,0,1
 97 -7 97 -7 84 6.5 c 128,-1,2
 71 20 71 20 71 44 c 2,3,-1
 71 661 l 2,4,5
 71 686 71 686 84 699 c 128,-1,6
 97 712 97 712 121 712 c 256,7,8
 145 712 145 712 158.5 699 c 128,-1,9
 172 686 172 686 172 661 c 2,10,-1
 172 275 l 1,11,-1
 174 275 l 1,12,-1
 361 461 l 2,13,14
 377 477 377 477 390 486 c 128,-1,15
 403 495 403 495 424 495 c 256,16,17
 445 495 445 495 456 484 c 128,-1,18
 467 473 467 473 467 457.5 c 128,-1,19
 467 442 467 442 452 426 c 2,20,-1
 254 230 l 1,21,-1
 254 277 l 1,22,-1
 470 62 l 2,23,24
 486 46 486 46 485 30 c 128,-1,25
 484 14 484 14 472 3.5 c 128,-1,26
 460 -7 460 -7 442 -7 c 0,27,28
 419 -7 419 -7 405.5 2 c 128,-1,29
 392 11 392 11 374 29 c 2,30,-1
 174 223 l 1,31,-1
 172 223 l 1,32,-1
 172 44 l 2,33,34
 172 -7 172 -7 121 -7 c 0,0,1
EndSplineSet
EndChar

StartChar: kgreenlandic
Encoding: 312 312 351
Width: 516
GlyphClass: 2
Flags: W
AnchorPoint: "Anchor-2" 258 0 basechar 0
AnchorPoint: "Anchor-0" 258 484 basechar 0
LayerCount: 2
Fore
SplineSet
121 -7 m 0,0,1
 97 -7 97 -7 84 6.5 c 128,-1,2
 71 20 71 20 71 44 c 2,3,-1
 71 444 l 2,4,5
 71 469 71 469 84 482 c 128,-1,6
 97 495 97 495 121 495 c 256,7,8
 145 495 145 495 158.5 482 c 128,-1,9
 172 469 172 469 172 444 c 2,10,-1
 172 275 l 1,11,-1
 174 275 l 1,12,-1
 361 461 l 2,13,14
 377 477 377 477 390 486 c 128,-1,15
 403 495 403 495 423 495 c 0,16,17
 445 495 445 495 456 484 c 128,-1,18
 467 473 467 473 467 457.5 c 128,-1,19
 467 442 467 442 452 426 c 2,20,-1
 254 230 l 1,21,-1
 254 277 l 1,22,-1
 470 62 l 2,23,24
 486 46 486 46 485 30 c 128,-1,25
 484 14 484 14 472 3.5 c 128,-1,26
 460 -7 460 -7 442 -7 c 0,27,28
 419 -7 419 -7 405.5 2 c 128,-1,29
 392 11 392 11 374 29 c 2,30,-1
 174 223 l 1,31,-1
 172 223 l 1,32,-1
 172 44 l 2,33,34
 172 20 172 20 159 6.5 c 128,-1,35
 146 -7 146 -7 121 -7 c 0,0,1
EndSplineSet
EndChar

StartChar: l
Encoding: 108 108 352
Width: 306
GlyphClass: 2
Flags: W
AnchorPoint: "Anchor-5" 131 357 basechar 0
AnchorPoint: "Anchor-2" 189 0 basechar 0
AnchorPoint: "Anchor-1" 215 705 basechar 0
AnchorPoint: "Anchor-0" 121 705 basechar 0
LayerCount: 2
Fore
SplineSet
228 -9 m 0,0,1
 150 -9 150 -9 110.5 36.5 c 128,-1,2
 71 82 71 82 71 168 c 2,3,-1
 71 661 l 2,4,5
 71 686 71 686 84 699 c 128,-1,6
 97 712 97 712 121 712 c 256,7,8
 145 712 145 712 158.5 699 c 128,-1,9
 172 686 172 686 172 661 c 2,10,-1
 172 174 l 2,11,12
 172 124 172 124 192.5 99.5 c 128,-1,13
 213 75 213 75 252 75 c 0,14,15
 261 75 261 75 268 75.5 c 128,-1,16
 275 76 275 76 282 77 c 0,17,18
 294 78 294 78 299 70.5 c 128,-1,19
 304 63 304 63 304 40 c 0,20,21
 304 19 304 19 295 7.5 c 128,-1,22
 286 -4 286 -4 266 -7 c 0,23,24
 257 -8 257 -8 247 -8.5 c 128,-1,25
 237 -9 237 -9 228 -9 c 0,0,1
EndSplineSet
Substitution2: "'ss02' Style Set 2 lookup 36 subtable" l.ss02
Substitution2: "'aalt' Access All Alternates lookup 0 subtable" l.ss02
EndChar

StartChar: m
Encoding: 109 109 361
Width: 866
GlyphClass: 2
Flags: W
AnchorPoint: "Anchor-2" 434 0 basechar 0
AnchorPoint: "Anchor-0" 434 484 basechar 0
LayerCount: 2
Fore
SplineSet
123 -7 m 0,0,1
 99 -7 99 -7 86 6.5 c 128,-1,2
 73 20 73 20 73 44 c 2,3,-1
 73 444 l 2,4,5
 73 469 73 469 86 482 c 128,-1,6
 99 495 99 495 122 495 c 0,7,8
 146 495 146 495 158.5 482 c 128,-1,9
 171 469 171 469 171 444 c 2,10,-1
 171 362 l 1,11,-1
 160 384 l 1,12,13
 180 437 180 437 222 467 c 128,-1,14
 264 497 264 497 323 497 c 0,15,16
 384 497 384 497 422 468 c 128,-1,17
 460 439 460 439 474 379 c 1,18,-1
 460 379 l 1,19,20
 479 434 479 434 525 465.5 c 128,-1,21
 571 497 571 497 632 497 c 0,22,23
 688 497 688 497 724 475.5 c 128,-1,24
 760 454 760 454 778 410.5 c 128,-1,25
 796 367 796 367 796 301 c 2,26,-1
 796 44 l 2,27,28
 796 20 796 20 782.5 6.5 c 128,-1,29
 769 -7 769 -7 745 -7 c 256,30,31
 721 -7 721 -7 708 6.5 c 128,-1,32
 695 20 695 20 695 44 c 2,33,-1
 695 296 l 2,34,35
 695 358 695 358 673.5 387 c 128,-1,36
 652 416 652 416 603 416 c 0,37,38
 548 416 548 416 516 378 c 128,-1,39
 484 340 484 340 484 273 c 2,40,-1
 484 44 l 2,41,42
 484 20 484 20 471 6.5 c 128,-1,43
 458 -7 458 -7 434 -7 c 256,44,45
 410 -7 410 -7 396.5 6.5 c 128,-1,46
 383 20 383 20 383 44 c 2,47,-1
 383 296 l 2,48,49
 383 358 383 358 362 387 c 128,-1,50
 341 416 341 416 292 416 c 0,51,52
 237 416 237 416 205.5 378 c 128,-1,53
 174 340 174 340 174 273 c 2,54,-1
 174 44 l 2,55,56
 174 -7 174 -7 123 -7 c 0,0,1
EndSplineSet
EndChar

StartChar: n
Encoding: 110 110 363
Width: 576
GlyphClass: 2
Flags: W
AnchorPoint: "Anchor-2" 289 0 basechar 0
AnchorPoint: "Anchor-0" 289 484 basechar 0
LayerCount: 2
Fore
SplineSet
121 -7 m 0,0,1
 97 -7 97 -7 84 6.5 c 128,-1,2
 71 20 71 20 71 44 c 2,3,-1
 71 444 l 2,4,5
 71 469 71 469 84 482 c 128,-1,6
 97 495 97 495 120 495 c 0,7,8
 144 495 144 495 156.5 482 c 128,-1,9
 169 469 169 469 169 444 c 2,10,-1
 169 366 l 1,11,-1
 158 384 l 1,12,13
 180 440 180 440 227 468.5 c 128,-1,14
 274 497 274 497 335 497 c 0,15,16
 393 497 393 497 431.5 475.5 c 128,-1,17
 470 454 470 454 489 410.5 c 128,-1,18
 508 367 508 367 508 301 c 2,19,-1
 508 44 l 2,20,21
 508 20 508 20 495 6.5 c 128,-1,22
 482 -7 482 -7 458 -7 c 0,23,24
 433 -7 433 -7 420 6.5 c 128,-1,25
 407 20 407 20 407 44 c 2,26,-1
 407 295 l 2,27,28
 407 358 407 358 382.5 387 c 128,-1,29
 358 416 358 416 306 416 c 0,30,31
 245 416 245 416 208.5 378 c 128,-1,32
 172 340 172 340 172 276 c 2,33,-1
 172 44 l 2,34,35
 172 -7 172 -7 121 -7 c 0,0,1
EndSplineSet
EndChar

StartChar: eng
Encoding: 331 331 373
Width: 576
GlyphClass: 1
Flags: W
LayerCount: 2
Fore
SplineSet
320 -191 m 0,0,1
 301 -193 301 -193 290 -186 c 128,-1,2
 279 -179 279 -179 274.5 -168 c 128,-1,3
 270 -157 270 -157 272 -145.5 c 128,-1,4
 274 -134 274 -134 282.5 -125 c 128,-1,5
 291 -116 291 -116 305 -115 c 0,6,7
 358 -109 358 -109 382.5 -86.5 c 128,-1,8
 407 -64 407 -64 407 -11 c 2,9,-1
 407 295 l 2,10,11
 407 358 407 358 382.5 387 c 128,-1,12
 358 416 358 416 306 416 c 0,13,14
 245 416 245 416 208.5 378 c 128,-1,15
 172 340 172 340 172 276 c 2,16,-1
 172 44 l 2,17,18
 172 -7 172 -7 121 -7 c 0,19,20
 97 -7 97 -7 84 6.5 c 128,-1,21
 71 20 71 20 71 44 c 2,22,-1
 71 444 l 2,23,24
 71 469 71 469 84 482 c 128,-1,25
 97 495 97 495 120 495 c 0,26,27
 144 495 144 495 156.5 482 c 128,-1,28
 169 469 169 469 169 444 c 2,29,-1
 169 366 l 1,30,-1
 158 384 l 1,31,32
 180 440 180 440 227 468.5 c 128,-1,33
 274 497 274 497 335 497 c 0,34,35
 393 497 393 497 431.5 475.5 c 128,-1,36
 470 454 470 454 489 410.5 c 128,-1,37
 508 367 508 367 508 301 c 2,38,-1
 508 -3 l 2,39,40
 508 -65 508 -65 487.5 -105.5 c 128,-1,41
 467 -146 467 -146 425 -166.5 c 128,-1,42
 383 -187 383 -187 320 -191 c 0,0,1
EndSplineSet
EndChar

StartChar: o
Encoding: 111 111 374
Width: 565
GlyphClass: 2
Flags: W
AnchorPoint: "Anchor-5" 283 244 basechar 0
AnchorPoint: "Anchor-3" 342 0 basechar 0
AnchorPoint: "Anchor-2" 283 0 basechar 0
AnchorPoint: "Anchor-1" 338 484 basechar 0
AnchorPoint: "Anchor-0" 283 484 basechar 0
LayerCount: 2
Fore
SplineSet
283 -9 m 0,0,1
 209 -9 209 -9 155.5 22 c 128,-1,2
 102 53 102 53 72 110 c 128,-1,3
 42 167 42 167 42 244 c 0,4,5
 42 303 42 303 59 349 c 128,-1,6
 76 395 76 395 107.5 428.5 c 128,-1,7
 139 462 139 462 183.5 479.5 c 128,-1,8
 228 497 228 497 283 497 c 0,9,10
 356 497 356 497 409.5 466 c 128,-1,11
 463 435 463 435 493 378.5 c 128,-1,12
 523 322 523 322 523 244 c 0,13,14
 523 186 523 186 506 139 c 128,-1,15
 489 92 489 92 457.5 59 c 128,-1,16
 426 26 426 26 381.5 8.5 c 128,-1,17
 337 -9 337 -9 283 -9 c 0,0,1
283 69 m 0,18,19
 324 69 324 69 355 89 c 128,-1,20
 386 109 386 109 403.5 148 c 128,-1,21
 421 187 421 187 421 244 c 0,22,23
 421 330 421 330 383 374 c 128,-1,24
 345 418 345 418 283 418 c 0,25,26
 241 418 241 418 210 398.5 c 128,-1,27
 179 379 179 379 161.5 340 c 128,-1,28
 144 301 144 301 144 244 c 0,29,30
 144 159 144 159 182 114 c 128,-1,31
 220 69 220 69 283 69 c 0,18,19
EndSplineSet
Substitution2: "Single Substitution lookup 29 subtable" ordmasculine
Substitution2: "'aalt' Access All Alternates lookup 0 subtable" ordmasculine
EndChar

StartChar: oslash
Encoding: 248 248 402
Width: 565
GlyphClass: 2
Flags: W
AnchorPoint: "Anchor-5" 283 244 basechar 0
AnchorPoint: "Anchor-0" 282 484 basechar 0
LayerCount: 2
Fore
SplineSet
283 -9 m 0,0,1
 209 -9 209 -9 155.5 22 c 128,-1,2
 102 53 102 53 72 110 c 128,-1,3
 42 167 42 167 42 244 c 0,4,5
 42 303 42 303 59 349 c 128,-1,6
 76 395 76 395 107.5 428.5 c 128,-1,7
 139 462 139 462 183.5 479.5 c 128,-1,8
 228 497 228 497 283 497 c 0,9,10
 356 497 356 497 409.5 466 c 128,-1,11
 463 435 463 435 493 378.5 c 128,-1,12
 523 322 523 322 523 244 c 0,13,14
 523 186 523 186 506 139 c 128,-1,15
 489 92 489 92 457.5 59 c 128,-1,16
 426 26 426 26 381.5 8.5 c 128,-1,17
 337 -9 337 -9 283 -9 c 0,0,1
283 69 m 0,18,19
 324 69 324 69 355 89 c 128,-1,20
 386 109 386 109 403.5 148 c 128,-1,21
 421 187 421 187 421 244 c 0,22,23
 421 330 421 330 383 374 c 128,-1,24
 345 418 345 418 283 418 c 0,25,26
 241 418 241 418 210 398.5 c 128,-1,27
 179 379 179 379 161.5 340 c 128,-1,28
 144 301 144 301 144 244 c 0,29,30
 144 159 144 159 182 114 c 128,-1,31
 220 69 220 69 283 69 c 0,18,19
161 -32 m 2,32,33
 152 -46 152 -46 139 -48.5 c 128,-1,34
 126 -51 126 -51 115 -44 c 128,-1,35
 104 -37 104 -37 99.5 -24 c 128,-1,36
 95 -11 95 -11 105 4 c 2,37,-1
 405 520 l 2,38,39
 414 534 414 534 427 536 c 128,-1,40
 440 538 440 538 451 531.5 c 128,-1,41
 462 525 462 525 466.5 512 c 128,-1,42
 471 499 471 499 462 484 c 2,43,-1
 161 -32 l 2,32,33
EndSplineSet
EndChar

StartChar: oe
Encoding: 339 339 408
Width: 912
GlyphClass: 2
Flags: W
AnchorPoint: "Anchor-2" 471 0 basechar 0
AnchorPoint: "Anchor-0" 470 484 basechar 0
LayerCount: 2
Fore
SplineSet
280 -9 m 0,0,1
 208 -9 208 -9 154.5 22 c 128,-1,2
 101 53 101 53 71.5 110 c 128,-1,3
 42 167 42 167 42 244 c 0,4,5
 42 303 42 303 59 349 c 128,-1,6
 76 395 76 395 107.5 428.5 c 128,-1,7
 139 462 139 462 182.5 479.5 c 128,-1,8
 226 497 226 497 280 497 c 0,9,10
 353 497 353 497 405.5 461.5 c 128,-1,11
 458 426 458 426 484 362 c 1,12,-1
 458 362 l 1,13,14
 481 423 481 423 535 460 c 128,-1,15
 589 497 589 497 660 497 c 0,16,17
 726 497 726 497 774 467.5 c 128,-1,18
 822 438 822 438 848 384 c 128,-1,19
 874 330 874 330 874 255 c 0,20,21
 874 238 874 238 863.5 229.5 c 128,-1,22
 853 221 853 221 833 221 c 2,23,-1
 503 221 l 1,24,-1
 503 283 l 1,25,-1
 804 283 l 1,26,-1
 788 270 l 1,27,28
 788 320 788 320 773.5 354.5 c 128,-1,29
 759 389 759 389 730.5 407.5 c 128,-1,30
 702 426 702 426 660 426 c 0,31,32
 614 426 614 426 583.5 404 c 128,-1,33
 553 382 553 382 537 343 c 128,-1,34
 521 304 521 304 521 252 c 2,35,-1
 521 246 l 2,36,37
 521 159 521 159 560.5 114 c 128,-1,38
 600 69 600 69 677 69 c 0,39,40
 707 69 707 69 740 77 c 128,-1,41
 773 85 773 85 803 104 c 0,42,43
 820 114 820 114 833.5 113 c 128,-1,44
 847 112 847 112 855.5 104 c 128,-1,45
 864 96 864 96 866 84 c 128,-1,46
 868 72 868 72 862 59.5 c 128,-1,47
 856 47 856 47 841 37 c 0,48,49
 807 14 807 14 762.5 2.5 c 128,-1,50
 718 -9 718 -9 678 -9 c 0,51,52
 595 -9 595 -9 537 26.5 c 128,-1,53
 479 62 479 62 456 129 c 1,54,-1
 483 129 l 1,55,56
 458 64 458 64 405.5 27.5 c 128,-1,57
 353 -9 353 -9 280 -9 c 0,0,1
283 69 m 0,58,59
 324 69 324 69 355 89 c 128,-1,60
 386 109 386 109 403.5 148 c 128,-1,61
 421 187 421 187 421 244 c 0,62,63
 421 330 421 330 383 374 c 128,-1,64
 345 418 345 418 283 418 c 0,65,66
 241 418 241 418 210 398.5 c 128,-1,67
 179 379 179 379 161.5 340 c 128,-1,68
 144 301 144 301 144 244 c 0,69,70
 144 159 144 159 182 114 c 128,-1,71
 220 69 220 69 283 69 c 0,58,59
EndSplineSet
EndChar

StartChar: p
Encoding: 112 112 409
Width: 591
GlyphClass: 2
Flags: W
AnchorPoint: "Anchor-2" 294 0 basechar 0
AnchorPoint: "Anchor-0" 294 484 basechar 0
LayerCount: 2
Fore
SplineSet
121 -187 m 256,0,1
 97 -187 97 -187 84 -174 c 128,-1,2
 71 -161 71 -161 71 -136 c 2,3,-1
 71 444 l 2,4,5
 71 469 71 469 84 482 c 128,-1,6
 97 495 97 495 120 495 c 0,7,8
 144 495 144 495 157 482 c 128,-1,9
 170 469 170 469 170 444 c 2,10,-1
 170 357 l 1,11,-1
 159 378 l 1,12,13
 175 432 175 432 222 464.5 c 128,-1,14
 269 497 269 497 333 497 c 0,15,16
 398 497 398 497 446.5 466 c 128,-1,17
 495 435 495 435 521.5 379 c 128,-1,18
 548 323 548 323 548 244 c 0,19,20
 548 167 548 167 521.5 109.5 c 128,-1,21
 495 52 495 52 447 21.5 c 128,-1,22
 399 -9 399 -9 333 -9 c 0,23,24
 270 -9 270 -9 223 23 c 128,-1,25
 176 55 176 55 160 108 c 1,26,-1
 172 108 l 1,27,-1
 172 -136 l 2,28,29
 172 -161 172 -161 158.5 -174 c 128,-1,30
 145 -187 145 -187 121 -187 c 256,0,1
308 69 m 0,31,32
 350 69 350 69 381 89 c 128,-1,33
 412 109 412 109 429 148 c 128,-1,34
 446 187 446 187 446 244 c 0,35,36
 446 330 446 330 408.5 374 c 128,-1,37
 371 418 371 418 308 418 c 0,38,39
 267 418 267 418 235.5 398.5 c 128,-1,40
 204 379 204 379 187 340 c 128,-1,41
 170 301 170 301 170 244 c 0,42,43
 170 159 170 159 208 114 c 128,-1,44
 246 69 246 69 308 69 c 0,31,32
EndSplineSet
EndChar

StartChar: thorn
Encoding: 254 254 410
Width: 591
GlyphClass: 2
Flags: W
AnchorPoint: "Anchor-2" 295 0 basechar 0
AnchorPoint: "Anchor-0" 295 484 basechar 0
LayerCount: 2
Fore
SplineSet
121 -187 m 256,0,1
 97 -187 97 -187 84 -174 c 128,-1,2
 71 -161 71 -161 71 -136 c 2,3,-1
 71 661 l 2,4,5
 71 686 71 686 84 699 c 128,-1,6
 97 712 97 712 121 712 c 256,7,8
 145 712 145 712 158.5 699 c 128,-1,9
 172 686 172 686 172 661 c 2,10,-1
 172 378 l 1,11,-1
 159 378 l 1,12,13
 175 432 175 432 222 464.5 c 128,-1,14
 269 497 269 497 333 497 c 0,15,16
 398 497 398 497 446.5 466 c 128,-1,17
 495 435 495 435 521.5 379 c 128,-1,18
 548 323 548 323 548 244 c 0,19,20
 548 167 548 167 521.5 109.5 c 128,-1,21
 495 52 495 52 447 21.5 c 128,-1,22
 399 -9 399 -9 333 -9 c 0,23,24
 270 -9 270 -9 223 23 c 128,-1,25
 176 55 176 55 160 108 c 1,26,-1
 172 108 l 1,27,-1
 172 -136 l 2,28,29
 172 -161 172 -161 158.5 -174 c 128,-1,30
 145 -187 145 -187 121 -187 c 256,0,1
308 69 m 0,31,32
 350 69 350 69 381 89 c 128,-1,33
 412 109 412 109 429 148 c 128,-1,34
 446 187 446 187 446 244 c 0,35,36
 446 330 446 330 408.5 374 c 128,-1,37
 371 418 371 418 308 418 c 0,38,39
 267 418 267 418 235.5 398.5 c 128,-1,40
 204 379 204 379 187 340 c 128,-1,41
 170 301 170 301 170 244 c 0,42,43
 170 159 170 159 208 114 c 128,-1,44
 246 69 246 69 308 69 c 0,31,32
EndSplineSet
EndChar

StartChar: q
Encoding: 113 113 411
Width: 591
GlyphClass: 2
Flags: W
AnchorPoint: "Anchor-2" 296 0 basechar 0
AnchorPoint: "Anchor-0" 296 484 basechar 0
LayerCount: 2
Fore
SplineSet
469 -187 m 256,0,1
 445 -187 445 -187 432 -174 c 128,-1,2
 419 -161 419 -161 419 -136 c 2,3,-1
 419 108 l 1,4,-1
 430 108 l 1,5,6
 414 55 414 55 367.5 23 c 128,-1,7
 321 -9 321 -9 257 -9 c 256,8,9
 193 -9 193 -9 144.5 21.5 c 128,-1,10
 96 52 96 52 69 109.5 c 128,-1,11
 42 167 42 167 42 244 c 0,12,13
 42 323 42 323 69 379 c 128,-1,14
 96 435 96 435 144.5 466 c 128,-1,15
 193 497 193 497 257 497 c 0,16,17
 322 497 322 497 368.5 464.5 c 128,-1,18
 415 432 415 432 431 378 c 1,19,-1
 420 357 l 1,20,-1
 420 444 l 2,21,22
 420 469 420 469 433 482 c 128,-1,23
 446 495 446 495 470 495 c 256,24,25
 494 495 494 495 507 482 c 128,-1,26
 520 469 520 469 520 444 c 2,27,-1
 520 -136 l 2,28,29
 520 -161 520 -161 506.5 -174 c 128,-1,30
 493 -187 493 -187 469 -187 c 256,0,1
283 69 m 0,31,32
 324 69 324 69 355 89 c 128,-1,33
 386 109 386 109 403.5 148 c 128,-1,34
 421 187 421 187 421 244 c 0,35,36
 421 330 421 330 383 374 c 128,-1,37
 345 418 345 418 283 418 c 0,38,39
 241 418 241 418 210 398.5 c 128,-1,40
 179 379 179 379 161.5 340 c 128,-1,41
 144 301 144 301 144 244 c 0,42,43
 144 159 144 159 182 114 c 128,-1,44
 220 69 220 69 283 69 c 0,31,32
EndSplineSet
EndChar

StartChar: r
Encoding: 114 114 412
Width: 373
GlyphClass: 2
Flags: W
AnchorPoint: "Anchor-2" 122 0 basechar 0
AnchorPoint: "Anchor-0" 220 484 basechar 0
LayerCount: 2
Fore
SplineSet
122 -7 m 0,0,1
 97 -7 97 -7 84 6.5 c 128,-1,2
 71 20 71 20 71 44 c 2,3,-1
 71 444 l 2,4,5
 71 469 71 469 84 482 c 128,-1,6
 97 495 97 495 120 495 c 0,7,8
 144 495 144 495 156.5 482 c 128,-1,9
 169 469 169 469 169 444 c 2,10,-1
 169 371 l 1,11,-1
 159 371 l 1,12,13
 175 431 175 431 218 462 c 128,-1,14
 261 493 261 493 328 498 c 0,15,16
 346 499 346 499 356.5 489 c 128,-1,17
 367 479 367 479 368 458 c 0,18,19
 370 437 370 437 359 424.5 c 128,-1,20
 348 412 348 412 325 410 c 2,21,-1
 306 408 l 2,22,23
 241 402 241 402 207 367 c 128,-1,24
 173 332 173 332 173 271 c 2,25,-1
 173 44 l 2,26,27
 173 20 173 20 160.5 6.5 c 128,-1,28
 148 -7 148 -7 122 -7 c 0,0,1
EndSplineSet
EndChar

StartChar: s
Encoding: 115 115 420
Width: 484
GlyphClass: 2
Flags: W
AnchorPoint: "Anchor-2" 242 0 basechar 0
AnchorPoint: "Anchor-0" 251 484 basechar 0
LayerCount: 2
Fore
SplineSet
242 -9 m 0,0,1
 198 -9 198 -9 151.5 1 c 128,-1,2
 105 11 105 11 66 35 c 0,3,4
 53 44 53 44 48 55 c 128,-1,5
 43 66 43 66 44.5 77.5 c 128,-1,6
 46 89 46 89 53.5 97.5 c 128,-1,7
 61 106 61 106 72.5 108 c 128,-1,8
 84 110 84 110 97 103 c 0,9,10
 136 81 136 81 172 72.5 c 128,-1,11
 208 64 208 64 243 64 c 0,12,13
 296 64 296 64 323 83 c 128,-1,14
 350 102 350 102 350 134 c 0,15,16
 350 160 350 160 332 174.5 c 128,-1,17
 314 189 314 189 278 197 c 2,18,-1
 183 216 l 2,19,20
 121 229 121 229 89 262 c 128,-1,21
 57 295 57 295 57 346 c 0,22,23
 57 392 57 392 82 426 c 128,-1,24
 107 460 107 460 152 478.5 c 128,-1,25
 197 497 197 497 256 497 c 0,26,27
 300 497 300 497 339 486 c 128,-1,28
 378 475 378 475 411 453 c 0,29,30
 424 446 424 446 428 434.5 c 128,-1,31
 432 423 432 423 429.5 412 c 128,-1,32
 427 401 427 401 419 392.5 c 128,-1,33
 411 384 411 384 399.5 382.5 c 128,-1,34
 388 381 388 381 374 388 c 0,35,36
 344 407 344 407 314.5 415 c 128,-1,37
 285 423 285 423 256 423 c 0,38,39
 203 423 203 423 176.5 403.5 c 128,-1,40
 150 384 150 384 150 351 c 0,41,42
 150 326 150 326 166 310 c 128,-1,43
 182 294 182 294 216 287 c 2,44,-1
 311 268 l 2,45,46
 376 255 376 255 409.5 224 c 128,-1,47
 443 193 443 193 443 140 c 0,48,49
 443 71 443 71 388 31 c 128,-1,50
 333 -9 333 -9 242 -9 c 0,0,1
EndSplineSet
EndChar

StartChar: germandbls
Encoding: 223 223 431
Width: 632
GlyphClass: 1
Flags: W
LayerCount: 2
Fore
SplineSet
418 -9 m 0,0,1
 375 -9 375 -9 331 2.5 c 128,-1,2
 287 14 287 14 251 37 c 0,3,4
 238 46 238 46 233 57.5 c 128,-1,5
 228 69 228 69 230.5 81 c 128,-1,6
 233 93 233 93 241 101.5 c 128,-1,7
 249 110 249 110 261 112 c 128,-1,8
 273 114 273 114 286 106 c 0,9,10
 319 86 319 86 355 77.5 c 128,-1,11
 391 69 391 69 419 69 c 0,12,13
 463 69 463 69 487.5 87 c 128,-1,14
 512 105 512 105 512 137 c 0,15,16
 512 164 512 164 490 181.5 c 128,-1,17
 468 199 468 199 411 216 c 0,18,19
 331 241 331 241 299 273 c 128,-1,20
 267 305 267 305 267 354 c 0,21,22
 267 375 267 375 274 394.5 c 128,-1,23
 281 414 281 414 297.5 435.5 c 128,-1,24
 314 457 314 457 343 483 c 256,25,26
 372 509 372 509 383.5 529 c 128,-1,27
 395 549 395 549 395 573 c 0,28,29
 395 603 395 603 373 620.5 c 128,-1,30
 351 638 351 638 311 638 c 0,31,32
 243 638 243 638 207.5 598 c 128,-1,33
 172 558 172 558 172 484 c 2,34,-1
 172 44 l 2,35,36
 172 20 172 20 158.5 6.5 c 128,-1,37
 145 -7 145 -7 121 -7 c 256,38,39
 97 -7 97 -7 84 6.5 c 128,-1,40
 71 20 71 20 71 44 c 2,41,-1
 71 471 l 2,42,43
 71 587 71 587 133.5 650.5 c 128,-1,44
 196 714 196 714 311 714 c 0,45,46
 367 714 367 714 407.5 698 c 128,-1,47
 448 682 448 682 469.5 652 c 128,-1,48
 491 622 491 622 491 581 c 0,49,50
 491 545 491 545 475 515 c 128,-1,51
 459 485 459 485 419 449 c 0,52,53
 397 429 397 429 384 415 c 128,-1,54
 371 401 371 401 366.5 389.5 c 128,-1,55
 362 378 362 378 362 365 c 0,56,57
 362 341 362 341 384 323.5 c 128,-1,58
 406 306 406 306 465 288 c 0,59,60
 541 265 541 265 573.5 230 c 128,-1,61
 606 195 606 195 606 142 c 0,62,63
 606 96 606 96 583 62.5 c 128,-1,64
 560 29 560 29 517.5 10 c 128,-1,65
 475 -9 475 -9 418 -9 c 0,0,1
EndSplineSet
Substitution2: "Single Substitution lookup 39 subtable" germandbls.calt
Substitution2: "Single Substitution lookup 38 subtable" germandbls.calt
Substitution2: "'aalt' Access All Alternates lookup 0 subtable" germandbls.calt
EndChar

StartChar: t
Encoding: 116 116 432
Width: 365
GlyphClass: 2
Flags: W
AnchorPoint: "Anchor-5" 172 264 basechar 0
AnchorPoint: "Anchor-2" 222 0 basechar 0
AnchorPoint: "Anchor-1" 261 705 basechar 0
AnchorPoint: "Anchor-0" 148 635 basechar 0
LayerCount: 2
Fore
SplineSet
279 -9 m 0,0,1
 219 -9 219 -9 178 12 c 128,-1,2
 137 33 137 33 117 74 c 128,-1,3
 97 115 97 115 97 174 c 2,4,-1
 97 410 l 1,5,-1
 37 410 l 2,6,7
 17 410 17 410 6 420.5 c 128,-1,8
 -5 431 -5 431 -5 449 c 0,9,10
 -5 468 -5 468 6 478 c 128,-1,11
 17 488 17 488 37 488 c 2,12,-1
 97 488 l 1,13,-1
 97 591 l 2,14,15
 97 616 97 616 110.5 629 c 128,-1,16
 124 642 124 642 148 642 c 256,17,18
 172 642 172 642 185 629 c 128,-1,19
 198 616 198 616 198 591 c 2,20,-1
 198 488 l 1,21,-1
 315 488 l 2,22,23
 335 488 335 488 346 478 c 128,-1,24
 357 468 357 468 357 449 c 0,25,26
 357 431 357 431 346 420.5 c 128,-1,27
 335 410 335 410 315 410 c 2,28,-1
 198 410 l 1,29,-1
 198 182 l 2,30,31
 198 129 198 129 220.5 102 c 128,-1,32
 243 75 243 75 294 75 c 0,33,34
 312 75 312 75 325.5 78.5 c 128,-1,35
 339 82 339 82 348 83 c 0,36,37
 359 83 359 83 366 75.5 c 128,-1,38
 373 68 373 68 373 47 c 0,39,40
 373 32 373 32 367.5 19 c 128,-1,41
 362 6 362 6 348 2 c 0,42,43
 336 -2 336 -2 315.5 -5.5 c 128,-1,44
 295 -9 295 -9 279 -9 c 0,0,1
EndSplineSet
EndChar

StartChar: u
Encoding: 117 117 440
Width: 569
GlyphClass: 2
Flags: W
AnchorPoint: "Anchor-3" 474 0 basechar 0
AnchorPoint: "Anchor-2" 284 0 basechar 0
AnchorPoint: "Anchor-1" 421 484 basechar 0
AnchorPoint: "Anchor-0" 284 485 basechar 0
LayerCount: 2
Fore
SplineSet
245 -9 m 0,0,1
 186 -9 186 -9 146.5 13 c 128,-1,2
 107 35 107 35 87.5 78.5 c 128,-1,3
 68 122 68 122 68 188 c 2,4,-1
 68 444 l 2,5,6
 68 470 68 470 81 482.5 c 128,-1,7
 94 495 94 495 118 495 c 256,8,9
 142 495 142 495 155.5 482.5 c 128,-1,10
 169 470 169 470 169 444 c 2,11,-1
 169 187 l 2,12,13
 169 128 169 128 193 100 c 128,-1,14
 217 72 217 72 269 72 c 0,15,16
 326 72 326 72 361.5 110.5 c 128,-1,17
 397 149 397 149 397 212 c 2,18,-1
 397 444 l 2,19,20
 397 470 397 470 410 482.5 c 128,-1,21
 423 495 423 495 448 495 c 0,22,23
 472 495 472 495 485 482.5 c 128,-1,24
 498 470 498 470 498 444 c 2,25,-1
 498 44 l 2,26,27
 498 -7 498 -7 449 -7 c 0,28,29
 426 -7 426 -7 413 6.5 c 128,-1,30
 400 20 400 20 400 44 c 2,31,-1
 400 129 l 1,32,-1
 413 107 l 1,33,34
 393 51 393 51 349 21 c 128,-1,35
 305 -9 305 -9 245 -9 c 0,0,1
EndSplineSet
EndChar

StartChar: uhorn
Encoding: 432 432 450
Width: 569
GlyphClass: 2
Flags: W
AnchorPoint: "Anchor-2" 285 0 basechar 0
AnchorPoint: "Anchor-0" 284 484 basechar 0
LayerCount: 2
Fore
SplineSet
245 -9 m 0,0,1
 186 -9 186 -9 146.5 13 c 128,-1,2
 107 35 107 35 87.5 78.5 c 128,-1,3
 68 122 68 122 68 188 c 2,4,-1
 68 444 l 2,5,6
 68 469 68 469 81 482 c 128,-1,7
 94 495 94 495 118 495 c 256,8,9
 142 495 142 495 155.5 482 c 128,-1,10
 169 469 169 469 169 444 c 2,11,-1
 169 187 l 2,12,13
 169 128 169 128 193 100 c 128,-1,14
 217 72 217 72 269 72 c 0,15,16
 326 72 326 72 361.5 110.5 c 128,-1,17
 397 149 397 149 397 212 c 2,18,-1
 397 438 l 2,19,20
 397 463 397 463 410 474.5 c 128,-1,21
 423 486 423 486 448 489 c 0,22,23
 474 493 474 493 491 503.5 c 128,-1,24
 508 514 508 514 516 533.5 c 128,-1,25
 524 553 524 553 524 584 c 0,26,27
 524 620 524 620 569 620 c 0,28,29
 591 620 591 620 602 611 c 128,-1,30
 613 602 613 602 613 584 c 0,31,32
 613 524 613 524 583 484.5 c 128,-1,33
 553 445 553 445 498 434 c 1,34,-1
 498 44 l 2,35,36
 498 -7 498 -7 449 -7 c 0,37,38
 426 -7 426 -7 413 6.5 c 128,-1,39
 400 20 400 20 400 44 c 2,40,-1
 400 129 l 1,41,-1
 413 107 l 1,42,43
 393 51 393 51 349 21 c 128,-1,44
 305 -9 305 -9 245 -9 c 0,0,1
EndSplineSet
EndChar

StartChar: uogonek
Encoding: 371 371 460
Width: 569
GlyphClass: 1
Flags: W
LayerCount: 2
Fore
SplineSet
400 129 m 1,0,-1
 413 107 l 1,1,2
 393 51 393 51 349 21 c 128,-1,3
 305 -9 305 -9 245 -9 c 0,4,5
 186 -9 186 -9 146.5 13 c 128,-1,6
 107 35 107 35 87.5 78.5 c 128,-1,7
 68 122 68 122 68 188 c 2,8,-1
 68 444 l 2,9,10
 68 469 68 469 81 482 c 128,-1,11
 94 495 94 495 118 495 c 256,12,13
 142 495 142 495 155.5 482 c 128,-1,14
 169 469 169 469 169 444 c 2,15,-1
 169 187 l 2,16,17
 169 128 169 128 193 100 c 128,-1,18
 217 72 217 72 269 72 c 0,19,20
 326 72 326 72 361.5 110.5 c 128,-1,21
 397 149 397 149 397 212 c 2,22,-1
 397 444 l 2,23,24
 397 469 397 469 410 482 c 128,-1,25
 423 495 423 495 448 495 c 0,26,27
 472 495 472 495 485 482 c 128,-1,28
 498 469 498 469 498 444 c 2,29,-1
 498 44 l 2,30,31
 498 23 498 23 489.5 11.5 c 128,-1,32
 481 0 481 0 466 -7 c 0,33,34
 444 -17 444 -17 427 -36.5 c 128,-1,35
 410 -56 410 -56 410 -82 c 0,36,37
 410 -109 410 -109 426.5 -122.5 c 128,-1,38
 443 -136 443 -136 467 -136 c 0,39,40
 475 -136 475 -136 483.5 -134.5 c 128,-1,41
 492 -133 492 -133 500 -131 c 0,42,43
 515 -126 515 -126 524 -131.5 c 128,-1,44
 533 -137 533 -137 535 -148 c 128,-1,45
 537 -159 537 -159 532 -169 c 128,-1,46
 527 -179 527 -179 514 -185 c 0,47,48
 499 -190 499 -190 483.5 -192 c 128,-1,49
 468 -194 468 -194 454 -194 c 0,50,51
 403 -194 403 -194 373 -166.5 c 128,-1,52
 343 -139 343 -139 343 -93 c 0,53,54
 343 -58 343 -58 363.5 -26 c 128,-1,55
 384 6 384 6 419 28 c 1,56,-1
 411 8 l 1,57,58
 405 16 405 16 402.5 24.5 c 128,-1,59
 400 33 400 33 400 45 c 2,60,-1
 400 129 l 1,0,-1
EndSplineSet
EndChar

StartChar: v
Encoding: 118 118 464
Width: 520
GlyphClass: 2
Flags: W
AnchorPoint: "Anchor-2" 261 0 basechar 0
AnchorPoint: "Anchor-0" 261 484 basechar 0
LayerCount: 2
Fore
SplineSet
260 -7 m 256,0,1
 239 -7 239 -7 223.5 4 c 128,-1,2
 208 15 208 15 198 38 c 2,3,-1
 31 426 l 2,4,5
 23 444 23 444 25 460 c 128,-1,6
 27 476 27 476 40 485.5 c 128,-1,7
 53 495 53 495 75 495 c 0,8,9
 94 495 94 495 105 486 c 128,-1,10
 116 477 116 477 125 455 c 2,11,-1
 276 83 l 1,12,-1
 248 83 l 1,13,-1
 402 455 l 2,14,15
 411 477 411 477 422.5 486 c 128,-1,16
 434 495 434 495 455 495 c 0,17,18
 473 495 473 495 483.5 485.5 c 128,-1,19
 494 476 494 476 496.5 460.5 c 128,-1,20
 499 445 499 445 491 427 c 2,21,-1
 322 38 l 2,22,23
 313 15 313 15 297 4 c 128,-1,24
 281 -7 281 -7 260 -7 c 256,0,1
EndSplineSet
EndChar

StartChar: w
Encoding: 119 119 465
Width: 846
GlyphClass: 2
Flags: W
AnchorPoint: "Anchor-2" 424 0 basechar 0
AnchorPoint: "Anchor-0" 424 484 basechar 0
LayerCount: 2
Fore
SplineSet
249 -7 m 256,0,1
 228 -7 228 -7 212.5 3.5 c 128,-1,2
 197 14 197 14 188 37 c 2,3,-1
 41 426 l 2,4,5
 33 446 33 446 36 461.5 c 128,-1,6
 39 477 39 477 51.5 486 c 128,-1,7
 64 495 64 495 84 495 c 0,8,9
 102 495 102 495 113.5 486.5 c 128,-1,10
 125 478 125 478 133 454 c 2,11,-1
 264 85 l 1,12,-1
 240 85 l 1,13,-1
 376 458 l 2,14,15
 383 477 383 477 395 486 c 128,-1,16
 407 495 407 495 426 495 c 256,17,18
 445 495 445 495 457.5 486 c 128,-1,19
 470 477 470 477 476 458 c 2,20,-1
 609 85 l 1,21,-1
 587 85 l 1,22,-1
 720 456 l 2,23,24
 728 479 728 479 740.5 487 c 128,-1,25
 753 495 753 495 769 495 c 0,26,27
 789 495 789 495 799.5 485 c 128,-1,28
 810 475 810 475 811.5 459.5 c 128,-1,29
 813 444 813 444 806 426 c 2,30,-1
 659 37 l 2,31,32
 650 15 650 15 634.5 4 c 128,-1,33
 619 -7 619 -7 599 -7 c 0,34,35
 578 -7 578 -7 562.5 4 c 128,-1,36
 547 15 547 15 538 37 c 2,37,-1
 398 416 l 1,38,-1
 448 416 l 1,39,-1
 309 37 l 2,40,41
 301 15 301 15 285.5 4 c 128,-1,42
 270 -7 270 -7 249 -7 c 256,0,1
EndSplineSet
EndChar

StartChar: x
Encoding: 120 120 470
Width: 534
GlyphClass: 2
Flags: W
AnchorPoint: "Anchor-2" 268 0 basechar 0
AnchorPoint: "Anchor-0" 268 484 basechar 0
LayerCount: 2
Fore
SplineSet
88 -6 m 256,0,1
 70 -6 70 -6 58.5 4.5 c 128,-1,2
 47 15 47 15 46.5 31 c 128,-1,3
 46 47 46 47 60 66 c 2,4,-1
 229 277 l 1,5,-1
 229 227 l 1,6,-1
 71 424 l 2,7,8
 55 442 55 442 56 458.5 c 128,-1,9
 57 475 57 475 69 485 c 128,-1,10
 81 495 81 495 98 495 c 0,11,12
 117 495 117 495 129.5 488.5 c 128,-1,13
 142 482 142 482 153 467 c 2,14,-1
 286 298 l 1,15,-1
 250 298 l 1,16,-1
 384 467 l 2,17,18
 395 482 395 482 407.5 488.5 c 128,-1,19
 420 495 420 495 438 495 c 256,20,21
 456 495 456 495 467.5 484.5 c 128,-1,22
 479 474 479 474 479.5 457.5 c 128,-1,23
 480 441 480 441 465 423 c 2,24,-1
 307 229 l 1,25,-1
 307 274 l 1,26,-1
 476 66 l 2,27,28
 491 48 491 48 490.5 31.5 c 128,-1,29
 490 15 490 15 478 4.5 c 128,-1,30
 466 -6 466 -6 448 -6 c 256,31,32
 430 -6 430 -6 417.5 1 c 128,-1,33
 405 8 405 8 393 22 c 2,34,-1
 250 202 l 1,35,-1
 284 202 l 1,36,-1
 142 22 l 2,37,38
 131 9 131 9 118.5 1.5 c 128,-1,39
 106 -6 106 -6 88 -6 c 256,0,1
EndSplineSet
EndChar

StartChar: y
Encoding: 121 121 471
Width: 520
GlyphClass: 2
Flags: W
AnchorPoint: "Anchor-2" 399 0 basechar 0
AnchorPoint: "Anchor-0" 261 484 basechar 0
LayerCount: 2
Fore
SplineSet
186 -187 m 0,0,1
 168 -187 168 -187 156.5 -177.5 c 128,-1,2
 145 -168 145 -168 143.5 -152.5 c 128,-1,3
 142 -137 142 -137 149 -119 c 2,4,-1
 217 34 l 1,5,-1
 217 -9 l 1,6,-1
 30 426 l 2,7,8
 23 444 23 444 25 460 c 128,-1,9
 27 476 27 476 40 485.5 c 128,-1,10
 53 495 53 495 75 495 c 0,11,12
 94 495 94 495 105 486 c 128,-1,13
 116 477 116 477 125 455 c 2,14,-1
 276 82 l 1,15,-1
 248 82 l 1,16,-1
 401 455 l 2,17,18
 410 478 410 478 422 486.5 c 128,-1,19
 434 495 434 495 455 495 c 0,20,21
 473 495 473 495 483.5 485.5 c 128,-1,22
 494 476 494 476 496.5 460.5 c 128,-1,23
 499 445 499 445 491 427 c 2,24,-1
 241 -148 l 2,25,26
 231 -171 231 -171 218.5 -179 c 128,-1,27
 206 -187 206 -187 186 -187 c 0,0,1
EndSplineSet
EndChar

StartChar: uni01B4
Encoding: 436 436 478
Width: 560
GlyphClass: 1
Flags: W
LayerCount: 2
Fore
SplineSet
186 -187 m 0,0,1
 168 -187 168 -187 156.5 -177 c 128,-1,2
 145 -167 145 -167 143.5 -151 c 128,-1,3
 142 -135 142 -135 150 -118 c 2,4,-1
 217 34 l 1,5,-1
 217 -9 l 1,6,-1
 29 426 l 2,7,8
 22 445 22 445 24.5 460.5 c 128,-1,9
 27 476 27 476 40 485.5 c 128,-1,10
 53 495 53 495 75 495 c 0,11,12
 94 495 94 495 105 486 c 128,-1,13
 116 477 116 477 125 455 c 2,14,-1
 276 83 l 1,15,-1
 248 83 l 1,16,-1
 375 389 l 2,17,18
 389 424 389 424 409 448 c 128,-1,19
 429 472 429 472 458 484.5 c 128,-1,20
 487 497 487 497 528 497 c 0,21,22
 571 497 571 497 586 486.5 c 128,-1,23
 601 476 601 476 601 456 c 0,24,25
 601 437 601 437 593.5 425.5 c 128,-1,26
 586 414 586 414 572 414 c 0,27,28
 567 414 567 414 559 415 c 128,-1,29
 551 416 551 416 541 416 c 0,30,31
 512 416 512 416 491.5 399.5 c 128,-1,32
 471 383 471 383 453 342 c 2,33,-1
 241 -148 l 2,34,35
 231 -171 231 -171 218.5 -179 c 128,-1,36
 206 -187 206 -187 186 -187 c 0,0,1
EndSplineSet
EndChar

StartChar: z
Encoding: 122 122 482
Width: 468
GlyphClass: 2
Flags: W
AnchorPoint: "Anchor-2" 241 0 basechar 0
AnchorPoint: "Anchor-0" 241 484 basechar 0
LayerCount: 2
Fore
SplineSet
90 0 m 2,0,1
 74 0 74 0 64 7.5 c 128,-1,2
 54 15 54 15 50.5 27.5 c 128,-1,3
 47 40 47 40 50.5 54.5 c 128,-1,4
 54 69 54 69 66 82 c 2,5,-1
 338 435 l 1,6,-1
 338 410 l 1,7,-1
 84 410 l 2,8,9
 65 410 65 410 55 420.5 c 128,-1,10
 45 431 45 431 45 449 c 0,11,12
 45 468 45 468 55 478 c 128,-1,13
 65 488 65 488 84 488 c 2,14,-1
 386 488 l 2,15,16
 405 488 405 488 416.5 480 c 128,-1,17
 428 472 428 472 431.5 460 c 128,-1,18
 435 448 435 448 432 434 c 128,-1,19
 429 420 429 420 417 407 c 2,20,-1
 141 50 l 1,21,-1
 141 77 l 1,22,-1
 408 77 l 2,23,24
 448 77 448 77 448 39 c 0,25,26
 448 21 448 21 437.5 10.5 c 128,-1,27
 427 0 427 0 408 0 c 2,28,-1
 90 0 l 2,0,1
EndSplineSet
EndChar

StartChar: germandbls.calt
Encoding: 65540 -1 487
Width: 720
GlyphClass: 1
Flags: W
LayerCount: 2
Fore
SplineSet
441 -9 m 0,0,1
 390 -9 390 -9 346 2.5 c 128,-1,2
 302 14 302 14 269 36 c 0,3,4
 255 45 255 45 250.5 57.5 c 128,-1,5
 246 70 246 70 249 83 c 128,-1,6
 252 96 252 96 260 105 c 128,-1,7
 268 114 268 114 279.5 116.5 c 128,-1,8
 291 119 291 119 304 111 c 0,9,10
 335 92 335 92 366 83.5 c 128,-1,11
 397 75 397 75 431 75 c 0,12,13
 495 75 495 75 528.5 107.5 c 128,-1,14
 562 140 562 140 562 195 c 0,15,16
 562 252 562 252 525.5 282 c 128,-1,17
 489 312 489 312 413 312 c 2,18,-1
 324 312 l 2,19,20
 305 312 305 312 293 323 c 128,-1,21
 281 334 281 334 281 354 c 0,22,23
 281 375 281 375 292 385 c 128,-1,24
 303 395 303 395 320 395 c 2,25,-1
 391 395 l 2,26,27
 453 395 453 395 489 425 c 128,-1,28
 525 455 525 455 525 512 c 256,29,30
 525 569 525 569 486 599 c 128,-1,31
 447 629 447 629 373 629 c 0,32,33
 280 629 280 629 233 585.5 c 128,-1,34
 186 542 186 542 186 454 c 2,35,-1
 186 46 l 2,36,37
 186 21 186 21 172.5 7 c 128,-1,38
 159 -7 159 -7 134 -7 c 256,39,40
 109 -7 109 -7 95.5 7 c 128,-1,41
 82 21 82 21 82 46 c 2,42,-1
 82 456 l 2,43,44
 82 541 82 541 117 598.5 c 128,-1,45
 152 656 152 656 217.5 685 c 128,-1,46
 283 714 283 714 376 714 c 0,47,48
 453 714 453 714 508.5 691.5 c 128,-1,49
 564 669 564 669 595 627 c 128,-1,50
 626 585 626 585 626 526 c 0,51,52
 626 463 626 463 592 416.5 c 128,-1,53
 558 370 558 370 498 354 c 1,54,-1
 498 370 l 1,55,56
 549 365 549 365 585.5 341.5 c 128,-1,57
 622 318 622 318 642.5 279.5 c 128,-1,58
 663 241 663 241 663 190 c 0,59,60
 663 126 663 126 636.5 82 c 128,-1,61
 610 38 610 38 560.5 14.5 c 128,-1,62
 511 -9 511 -9 441 -9 c 0,0,1
EndSplineSet
EndChar

StartChar: a.ss01
Encoding: 65542 -1 489
Width: 591
GlyphClass: 2
Flags: W
AnchorPoint: "Anchor-3" 496 0 basechar 0
AnchorPoint: "Anchor-2" 293 0 basechar 0
AnchorPoint: "Anchor-0" 293 484 basechar 0
LayerCount: 2
Fore
SplineSet
257 -9 m 0,0,1
 193 -9 193 -9 144.5 21.5 c 128,-1,2
 96 52 96 52 69 109.5 c 128,-1,3
 42 167 42 167 42 244 c 0,4,5
 42 323 42 323 69 379 c 128,-1,6
 96 435 96 435 144.5 466 c 128,-1,7
 193 497 193 497 257 497 c 256,8,9
 321 497 321 497 367.5 465.5 c 128,-1,10
 414 434 414 434 430 381 c 1,11,-1
 420 363 l 1,12,-1
 420 444 l 2,13,14
 420 469 420 469 433 482 c 128,-1,15
 446 495 446 495 470 495 c 256,16,17
 494 495 494 495 507 482 c 128,-1,18
 520 469 520 469 520 444 c 2,19,-1
 520 44 l 2,20,21
 520 20 520 20 507 6.5 c 128,-1,22
 494 -7 494 -7 470 -7 c 256,23,24
 446 -7 446 -7 433 6.5 c 128,-1,25
 420 20 420 20 420 44 c 2,26,-1
 420 125 l 1,27,-1
 431 110 l 1,28,29
 415 56 415 56 368.5 23.5 c 128,-1,30
 322 -9 322 -9 257 -9 c 0,0,1
283 69 m 0,31,32
 324 69 324 69 355 89 c 128,-1,33
 386 109 386 109 403.5 148 c 128,-1,34
 421 187 421 187 421 244 c 0,35,36
 421 330 421 330 383 374 c 128,-1,37
 345 418 345 418 283 418 c 0,38,39
 241 418 241 418 210 398.5 c 128,-1,40
 179 379 179 379 161.5 340 c 128,-1,41
 144 301 144 301 144 244 c 0,42,43
 144 159 144 159 182 114 c 128,-1,44
 220 69 220 69 283 69 c 0,31,32
EndSplineSet
EndChar

StartChar: l.ss02
Encoding: 65569 -1 516
Width: 242
GlyphClass: 2
Flags: W
AnchorPoint: "Anchor-5" 121 357 basechar 0
AnchorPoint: "Anchor-2" 121 0 basechar 0
AnchorPoint: "Anchor-1" 215 705 basechar 0
AnchorPoint: "Anchor-0" 121 705 basechar 0
LayerCount: 2
Fore
SplineSet
121 -7 m 0,0,1
 97 -7 97 -7 84 6.5 c 128,-1,2
 71 20 71 20 71 44 c 2,3,-1
 71 661 l 2,4,5
 71 687 71 687 84 699.5 c 128,-1,6
 97 712 97 712 121 712 c 256,7,8
 145 712 145 712 158.5 699.5 c 128,-1,9
 172 687 172 687 172 661 c 2,10,-1
 172 44 l 2,11,12
 172 -7 172 -7 121 -7 c 0,0,1
EndSplineSet
EndChar

StartChar: fi
Encoding: 64257 64257 525
Width: 582
GlyphClass: 3
LigCaretCntFixed: 1
Flags: W
LayerCount: 2
Fore
SplineSet
151 -7 m 0,0,1
 127 -7 127 -7 113.5 6.5 c 128,-1,2
 100 20 100 20 100 44 c 2,3,-1
 100 410 l 1,4,-1
 44 410 l 2,5,6
 25 410 25 410 14 420.5 c 128,-1,7
 3 431 3 431 3 449 c 0,8,9
 3 468 3 468 14 478 c 128,-1,10
 25 488 25 488 44 488 c 2,11,-1
 129 488 l 1,12,-1
 100 461 l 1,13,-1
 100 497 l 2,14,15
 100 594 100 594 148 645 c 128,-1,16
 196 696 196 696 289 705 c 2,17,-1
 319 707 l 2,18,19
 337 709 337 709 348 702.5 c 128,-1,20
 359 696 359 696 363 684.5 c 128,-1,21
 367 673 367 673 364 661 c 128,-1,22
 361 649 361 649 353.5 640.5 c 128,-1,23
 346 632 346 632 335 631 c 2,24,-1
 308 629 l 2,25,26
 252 625 252 625 226.5 596 c 128,-1,27
 201 567 201 567 201 511 c 2,28,-1
 201 472 l 1,29,-1
 187 488 l 1,30,-1
 461 488 l 2,31,32
 486 488 486 488 499 473.5 c 128,-1,33
 512 459 512 459 512 434 c 2,34,-1
 512 49 l 2,35,36
 512 23 512 23 499.5 8.5 c 128,-1,37
 487 -6 487 -6 461 -6 c 0,38,39
 437 -6 437 -6 424 8.5 c 128,-1,40
 411 23 411 23 411 49 c 2,41,-1
 411 410 l 1,42,-1
 201 410 l 1,43,-1
 201 44 l 2,44,45
 201 -7 201 -7 151 -7 c 0,0,1
463 597 m 0,46,47
 434 597 434 597 418 612 c 128,-1,48
 402 627 402 627 402 654 c 0,49,50
 402 682 402 682 418 696.5 c 128,-1,51
 434 711 434 711 463 711 c 0,52,53
 493 711 493 711 508.5 696.5 c 128,-1,54
 524 682 524 682 524 654 c 0,55,56
 524 627 524 627 508.5 612 c 128,-1,57
 493 597 493 597 463 597 c 0,46,47
EndSplineSet
Ligature2: "'liga' Standard Ligatures lookup 33 subtable" f i
LCarets2: 1 292
EndChar

StartChar: ordfeminine
Encoding: 170 170 529
Width: 332
GlyphClass: 1
Flags: W
LayerCount: 2
Fore
SplineSet
136 409 m 0,0,1
 87 409 87 409 56 435.5 c 128,-1,2
 25 462 25 462 25 502 c 0,3,4
 25 548 25 548 66.5 568 c 128,-1,5
 108 588 108 588 183 588 c 2,6,-1
 240 588 l 1,7,-1
 240 548 l 1,8,-1
 186 548 l 2,9,10
 138 548 138 548 115.5 537 c 128,-1,11
 93 526 93 526 93 503 c 0,12,13
 93 484 93 484 107 471 c 128,-1,14
 121 458 121 458 152 458 c 0,15,16
 175 458 175 458 193 468 c 128,-1,17
 211 478 211 478 221 497.5 c 128,-1,18
 231 517 231 517 231 544 c 2,19,-1
 231 602 l 2,20,21
 231 633 231 633 214 647.5 c 128,-1,22
 197 662 197 662 162 662 c 0,23,24
 144 662 144 662 123.5 658 c 128,-1,25
 103 654 103 654 81 645 c 0,26,27
 66 640 66 640 57 645 c 128,-1,28
 48 650 48 650 44.5 660 c 128,-1,29
 41 670 41 670 46 680 c 128,-1,30
 51 690 51 690 64 695 c 0,31,32
 90 706 90 706 115.5 710 c 128,-1,33
 141 714 141 714 166 714 c 0,34,35
 210 714 210 714 239.5 701 c 128,-1,36
 269 688 269 688 283.5 662.5 c 128,-1,37
 298 637 298 637 298 599 c 2,38,-1
 298 442 l 2,39,40
 298 409 298 409 266 409 c 0,41,42
 250 409 250 409 242 419 c 128,-1,43
 234 429 234 429 234 443 c 2,44,-1
 234 470 l 1,45,-1
 232 470 l 1,46,47
 215 439 215 439 192.5 424 c 128,-1,48
 170 409 170 409 136 409 c 0,0,1
EndSplineSet
EndChar

StartChar: ordmasculine
Encoding: 186 186 530
Width: 345
GlyphClass: 1
Flags: W
LayerCount: 2
Fore
SplineSet
173 410 m 256,0,1
 129 410 129 410 95 429 c 128,-1,2
 61 448 61 448 41 482.5 c 128,-1,3
 21 517 21 517 21 563 c 0,4,5
 21 610 21 610 41 643.5 c 128,-1,6
 61 677 61 677 95 695.5 c 128,-1,7
 129 714 129 714 173 714 c 256,8,9
 217 714 217 714 251 695.5 c 128,-1,10
 285 677 285 677 304.5 643.5 c 128,-1,11
 324 610 324 610 324 563 c 0,12,13
 324 517 324 517 304.5 482.5 c 128,-1,14
 285 448 285 448 251 429 c 128,-1,15
 217 410 217 410 173 410 c 256,0,1
173 464 m 256,16,17
 211 464 211 464 233 489.5 c 128,-1,18
 255 515 255 515 255 563 c 256,19,20
 255 611 255 611 233 636 c 128,-1,21
 211 661 211 661 173 661 c 256,22,23
 135 661 135 661 112.5 636.5 c 128,-1,24
 90 612 90 612 90 563 c 256,25,26
 90 514 90 514 112.5 489 c 128,-1,27
 135 464 135 464 173 464 c 256,16,17
EndSplineSet
EndChar

StartChar: uni0411
Encoding: 1041 1041 532
Width: 666
GlyphClass: 1
Flags: W
LayerCount: 2
Fore
SplineSet
138 0 m 2,0,1
 111 0 111 0 96.5 14.5 c 128,-1,2
 82 29 82 29 82 56 c 2,3,-1
 82 649 l 2,4,5
 82 676 82 676 96.5 690.5 c 128,-1,6
 111 705 111 705 138 705 c 2,7,-1
 521 705 l 2,8,9
 542 705 542 705 553 694.5 c 128,-1,10
 564 684 564 684 564 664 c 0,11,12
 564 643 564 643 553 632 c 128,-1,13
 542 621 542 621 521 621 c 2,14,-1
 182 621 l 1,15,-1
 182 402 l 1,16,-1
 388 402 l 2,17,18
 500 402 500 402 562 351.5 c 128,-1,19
 624 301 624 301 624 202 c 256,20,21
 624 103 624 103 562 51.5 c 128,-1,22
 500 0 500 0 388 0 c 2,23,-1
 138 0 l 2,0,1
182 84 m 1,24,-1
 376 84 l 2,25,26
 451 84 451 84 487 113 c 128,-1,27
 523 142 523 142 523 201 c 0,28,29
 523 261 523 261 487 289.5 c 128,-1,30
 451 318 451 318 376 318 c 2,31,-1
 182 318 l 1,32,-1
 182 84 l 1,24,-1
EndSplineSet
EndChar

StartChar: uni0413
Encoding: 1043 1043 534
Width: 550
GlyphClass: 2
Flags: W
AnchorPoint: "Anchor-4" 158 355 basechar 0
AnchorPoint: "Anchor-0" 279 705 basechar 0
LayerCount: 2
Fore
SplineSet
134 -7 m 0,0,1
 109 -7 109 -7 95.5 7 c 128,-1,2
 82 21 82 21 82 46 c 2,3,-1
 82 652 l 2,4,5
 82 678 82 678 96 691.5 c 128,-1,6
 110 705 110 705 136 705 c 2,7,-1
 497 705 l 2,8,9
 519 705 519 705 530.5 694 c 128,-1,10
 542 683 542 683 542 662 c 256,11,12
 542 641 542 641 530.5 629.5 c 128,-1,13
 519 618 519 618 497 618 c 2,14,-1
 186 618 l 1,15,-1
 186 46 l 2,16,17
 186 21 186 21 173 7 c 128,-1,18
 160 -7 160 -7 134 -7 c 0,0,1
EndSplineSet
EndChar

StartChar: uni0490
Encoding: 1168 1168 536
Width: 550
GlyphClass: 1
Flags: W
LayerCount: 2
Fore
SplineSet
134 -7 m 0,0,1
 109 -7 109 -7 95.5 7 c 128,-1,2
 82 21 82 21 82 46 c 2,3,-1
 82 652 l 2,4,5
 82 678 82 678 96 691.5 c 128,-1,6
 110 705 110 705 136 705 c 2,7,-1
 442 705 l 1,8,-1
 442 822 l 2,9,10
 442 870 442 870 488 870 c 0,11,12
 510 870 510 870 522.5 857.5 c 128,-1,13
 535 845 535 845 535 822 c 2,14,-1
 535 672 l 2,15,16
 535 646 535 646 521 632 c 128,-1,17
 507 618 507 618 481 618 c 2,18,-1
 186 618 l 1,19,-1
 186 46 l 2,20,21
 186 21 186 21 173 7 c 128,-1,22
 160 -7 160 -7 134 -7 c 0,0,1
EndSplineSet
EndChar

StartChar: uni04F6
Encoding: 1270 1270 537
Width: 550
GlyphClass: 1
Flags: W
LayerCount: 2
Fore
SplineSet
240 -168 m 0,0,1
 217 -168 217 -168 205 -155.5 c 128,-1,2
 193 -143 193 -143 193 -120 c 2,3,-1
 193 0 l 1,4,-1
 134 0 l 2,5,6
 109 0 109 0 95.5 13.5 c 128,-1,7
 82 27 82 27 82 53 c 2,8,-1
 82 652 l 2,9,10
 82 678 82 678 96 691.5 c 128,-1,11
 110 705 110 705 136 705 c 2,12,-1
 497 705 l 2,13,14
 519 705 519 705 530.5 694 c 128,-1,15
 542 683 542 683 542 662 c 256,16,17
 542 641 542 641 530.5 629.5 c 128,-1,18
 519 618 519 618 497 618 c 2,19,-1
 186 618 l 1,20,-1
 186 38 l 1,21,-1
 139 84 l 1,22,-1
 236 84 l 2,23,24
 260 84 260 84 273 71.5 c 128,-1,25
 286 59 286 59 286 35 c 2,26,-1
 286 -120 l 2,27,28
 286 -143 286 -143 274 -155.5 c 128,-1,29
 262 -168 262 -168 240 -168 c 0,0,1
EndSplineSet
EndChar

StartChar: uni0492
Encoding: 1170 1170 538
Width: 589
GlyphClass: 1
Flags: W
LayerCount: 2
Fore
SplineSet
173 -7 m 0,0,1
 148 -7 148 -7 134.5 7 c 128,-1,2
 121 21 121 21 121 46 c 2,3,-1
 121 312 l 1,4,-1
 67 312 l 2,5,6
 47 312 47 312 36 322 c 128,-1,7
 25 332 25 332 25 351 c 256,8,9
 25 370 25 370 36 379.5 c 128,-1,10
 47 389 47 389 67 389 c 2,11,-1
 121 389 l 1,12,-1
 121 652 l 2,13,14
 121 678 121 678 135 691.5 c 128,-1,15
 149 705 149 705 175 705 c 2,16,-1
 535 705 l 2,17,18
 558 705 558 705 569.5 694 c 128,-1,19
 581 683 581 683 581 662 c 256,20,21
 581 641 581 641 569.5 629.5 c 128,-1,22
 558 618 558 618 535 618 c 2,23,-1
 224 618 l 1,24,-1
 224 389 l 1,25,-1
 365 389 l 2,26,27
 386 389 386 389 396.5 379.5 c 128,-1,28
 407 370 407 370 407 351 c 256,29,30
 407 332 407 332 396.5 322 c 128,-1,31
 386 312 386 312 365 312 c 2,32,-1
 224 312 l 1,33,-1
 224 46 l 2,34,35
 224 21 224 21 211.5 7 c 128,-1,36
 199 -7 199 -7 173 -7 c 0,0,1
EndSplineSet
Substitution2: "'locl' Localized Forms in Cyrillic lookup 16 subtable" uni0492.loclBSH
Substitution2: "'aalt' Access All Alternates lookup 0 subtable" uni0492.loclBSH
EndChar

StartChar: uni0494
Encoding: 1172 1172 539
Width: 683
GlyphClass: 1
Flags: W
LayerCount: 2
Fore
SplineSet
414 -189 m 0,0,1
 393 -189 393 -189 366.5 -186 c 128,-1,2
 340 -183 340 -183 321 -178 c 0,3,4
 305 -173 305 -173 296.5 -162.5 c 128,-1,5
 288 -152 288 -152 288 -139.5 c 128,-1,6
 288 -127 288 -127 293.5 -116.5 c 128,-1,7
 299 -106 299 -106 310 -100 c 128,-1,8
 321 -94 321 -94 336 -98 c 0,9,10
 353 -102 353 -102 368.5 -104 c 128,-1,11
 384 -106 384 -106 402 -106 c 0,12,13
 461 -106 461 -106 493 -66 c 128,-1,14
 525 -26 525 -26 525 51 c 2,15,-1
 525 140 l 2,16,17
 525 248 525 248 476 298 c 128,-1,18
 427 348 427 348 331 348 c 0,19,20
 289 348 289 348 252.5 339.5 c 128,-1,21
 216 331 216 331 186 313 c 1,22,-1
 186 46 l 2,23,24
 186 21 186 21 173 7 c 128,-1,25
 160 -7 160 -7 134 -7 c 0,26,27
 109 -7 109 -7 95.5 7 c 128,-1,28
 82 21 82 21 82 46 c 2,29,-1
 82 652 l 2,30,31
 82 678 82 678 96 691.5 c 128,-1,32
 110 705 110 705 136 705 c 2,33,-1
 517 705 l 2,34,35
 539 705 539 705 551 694 c 128,-1,36
 563 683 563 683 563 662 c 256,37,38
 563 641 563 641 551 629.5 c 128,-1,39
 539 618 539 618 517 618 c 2,40,-1
 186 618 l 1,41,-1
 186 405 l 1,42,43
 212 421 212 421 254.5 429.5 c 128,-1,44
 297 438 297 438 342 438 c 0,45,46
 412 438 412 438 465.5 420 c 128,-1,47
 519 402 519 402 555 365.5 c 128,-1,48
 591 329 591 329 609.5 274.5 c 128,-1,49
 628 220 628 220 628 146 c 2,50,-1
 628 55 l 2,51,52
 628 -23 628 -23 602 -78 c 128,-1,53
 576 -133 576 -133 528 -161 c 128,-1,54
 480 -189 480 -189 414 -189 c 0,0,1
EndSplineSet
EndChar

StartChar: uni0414
Encoding: 1044 1044 540
Width: 788
GlyphClass: 1
Flags: W
AnchorPoint: "Anchor-0" 417 704 basechar 0
LayerCount: 2
Fore
SplineSet
62 -168 m 0,0,1
 39 -168 39 -168 27 -155.5 c 128,-1,2
 15 -143 15 -143 15 -120 c 2,3,-1
 15 35 l 2,4,5
 15 84 15 84 65 84 c 2,6,-1
 132 84 l 1,7,-1
 70 68 l 1,8,9
 128 128 128 128 155.5 239.5 c 128,-1,10
 183 351 183 351 183 522 c 2,11,-1
 183 649 l 2,12,13
 183 676 183 676 197.5 690.5 c 128,-1,14
 212 705 212 705 239 705 c 2,15,-1
 610 705 l 2,16,17
 637 705 637 705 651 690.5 c 128,-1,18
 665 676 665 676 665 649 c 2,19,-1
 665 44 l 1,20,-1
 626 84 l 1,21,-1
 716 84 l 2,22,23
 740 84 740 84 752.5 71.5 c 128,-1,24
 765 59 765 59 765 35 c 2,25,-1
 765 -120 l 2,26,27
 765 -168 765 -168 720 -168 c 0,28,29
 697 -168 697 -168 685 -155.5 c 128,-1,30
 673 -143 673 -143 673 -120 c 2,31,-1
 673 0 l 1,32,-1
 108 0 l 1,33,-1
 108 -120 l 2,34,35
 108 -168 108 -168 62 -168 c 0,0,1
191 84 m 1,36,-1
 562 84 l 1,37,-1
 562 621 l 1,38,-1
 280 621 l 1,39,-1
 280 514 l 2,40,41
 280 360 280 360 258 256 c 128,-1,42
 236 152 236 152 191 84 c 1,36,-1
EndSplineSet
EndChar

StartChar: uni0416
Encoding: 1046 1046 544
Width: 989
GlyphClass: 2
Flags: W
AnchorPoint: "Anchor-0" 495 705 basechar 0
LayerCount: 2
Fore
SplineSet
495 -7 m 256,0,1
 471 -7 471 -7 458 7 c 128,-1,2
 445 21 445 21 445 46 c 2,3,-1
 445 311 l 1,4,-1
 368 311 l 2,5,6
 314 311 314 311 278 286 c 128,-1,7
 242 261 242 261 215 205 c 2,8,-1
 131 26 l 2,9,10
 122 7 122 7 107 -0.5 c 128,-1,11
 92 -8 92 -8 76.5 -6.5 c 128,-1,12
 61 -5 61 -5 48.5 4.5 c 128,-1,13
 36 14 36 14 32 30 c 128,-1,14
 28 46 28 46 39 65 c 2,15,-1
 128 248 l 2,16,17
 159 313 159 313 204.5 349.5 c 128,-1,18
 250 386 250 386 311 394 c 1,19,-1
 272 363 l 1,20,-1
 89 638 l 2,21,22
 78 656 78 656 79.5 671 c 128,-1,23
 81 686 81 686 91 696.5 c 128,-1,24
 101 707 101 707 116 710.5 c 128,-1,25
 131 714 131 714 146.5 708 c 128,-1,26
 162 702 162 702 172 685 c 2,27,-1
 369 381 l 1,28,-1
 346 398 l 1,29,-1
 445 398 l 1,30,-1
 445 660 l 2,31,32
 445 686 445 686 458 699 c 128,-1,33
 471 712 471 712 495 712 c 256,34,35
 519 712 519 712 532 699 c 128,-1,36
 545 686 545 686 545 660 c 2,37,-1
 545 398 l 1,38,-1
 645 398 l 1,39,-1
 621 381 l 1,40,-1
 818 685 l 2,41,42
 829 702 829 702 844 708 c 128,-1,43
 859 714 859 714 873.5 710.5 c 128,-1,44
 888 707 888 707 898.5 696.5 c 128,-1,45
 909 686 909 686 910.5 671 c 128,-1,46
 912 656 912 656 900 638 c 2,47,-1
 718 363 l 1,48,-1
 678 394 l 1,49,50
 720 389 720 389 753 370.5 c 128,-1,51
 786 352 786 352 813 321.5 c 128,-1,52
 840 291 840 291 861 248 c 2,53,-1
 950 65 l 2,54,55
 960 46 960 46 956.5 30 c 128,-1,56
 953 14 953 14 940.5 4.5 c 128,-1,57
 928 -5 928 -5 912 -6.5 c 128,-1,58
 896 -8 896 -8 881.5 -0.5 c 128,-1,59
 867 7 867 7 858 26 c 2,60,-1
 773 205 l 2,61,62
 746 262 746 262 710.5 286.5 c 128,-1,63
 675 311 675 311 622 311 c 2,64,-1
 545 311 l 1,65,-1
 545 46 l 2,66,67
 545 21 545 21 532 7 c 128,-1,68
 519 -7 519 -7 495 -7 c 256,0,1
EndSplineSet
EndChar

StartChar: uni0417
Encoding: 1047 1047 545
Width: 638
GlyphClass: 2
Flags: W
AnchorPoint: "Anchor-2" 316 0 basechar 0
AnchorPoint: "Anchor-0" 311 705 basechar 0
LayerCount: 2
Fore
SplineSet
308 -9 m 0,0,1
 232 -9 232 -9 168 9 c 128,-1,2
 104 27 104 27 58 61 c 0,3,4
 43 71 43 71 38 85 c 128,-1,5
 33 99 33 99 36 112 c 128,-1,6
 39 125 39 125 48.5 133.5 c 128,-1,7
 58 142 58 142 72 143.5 c 128,-1,8
 86 145 86 145 102 135 c 0,9,10
 130 116 130 116 161 104 c 128,-1,11
 192 92 192 92 227 86 c 128,-1,12
 262 80 262 80 301 80 c 0,13,14
 362 80 362 80 401 93.5 c 128,-1,15
 440 107 440 107 458.5 134 c 128,-1,16
 477 161 477 161 477 202 c 0,17,18
 477 260 477 260 441 288 c 128,-1,19
 405 316 405 316 330 316 c 2,20,-1
 196 316 l 2,21,22
 174 316 174 316 162.5 326.5 c 128,-1,23
 151 337 151 337 151 358 c 0,24,25
 151 377 151 377 162.5 388 c 128,-1,26
 174 399 174 399 196 399 c 2,27,-1
 314 399 l 2,28,29
 387 399 387 399 423.5 427 c 128,-1,30
 460 455 460 455 460 510 c 0,31,32
 460 545 460 545 442.5 571.5 c 128,-1,33
 425 598 425 598 390 612 c 128,-1,34
 355 626 355 626 302 626 c 0,35,36
 254 626 254 626 207 613 c 128,-1,37
 160 600 160 600 121 575 c 0,38,39
 104 565 104 565 90 566.5 c 128,-1,40
 76 568 76 568 67.5 577 c 128,-1,41
 59 586 59 586 56 599.5 c 128,-1,42
 53 613 53 613 58.5 626 c 128,-1,43
 64 639 64 639 79 649 c 0,44,45
 127 682 127 682 187.5 698 c 128,-1,46
 248 714 248 714 312 714 c 0,47,48
 396 714 396 714 451.5 690 c 128,-1,49
 507 666 507 666 535 622.5 c 128,-1,50
 563 579 563 579 563 521 c 0,51,52
 563 457 563 457 525 413 c 128,-1,53
 487 369 487 369 422 354 c 1,54,-1
 422 369 l 1,55,56
 496 359 496 359 538 313.5 c 128,-1,57
 580 268 580 268 580 195 c 0,58,59
 580 133 580 133 550.5 86.5 c 128,-1,60
 521 40 521 40 461 15.5 c 128,-1,61
 401 -9 401 -9 308 -9 c 0,0,1
EndSplineSet
EndChar

StartChar: uni0418
Encoding: 1048 1048 546
Width: 743
GlyphClass: 2
Flags: W
AnchorPoint: "Anchor-0" 372 705 basechar 0
LayerCount: 2
Fore
SplineSet
126 -7 m 0,0,1
 116 -7 116 -7 107.5 -4 c 128,-1,2
 99 -1 99 -1 93.5 6 c 128,-1,3
 88 13 88 13 85 22.5 c 128,-1,4
 82 32 82 32 82 45 c 2,5,-1
 82 663 l 2,6,7
 82 686 82 686 95 699 c 128,-1,8
 108 712 108 712 131 712 c 256,9,10
 154 712 154 712 166 699 c 128,-1,11
 178 686 178 686 178 663 c 2,12,-1
 178 139 l 1,13,-1
 156 139 l 1,14,-1
 565 682 l 2,15,16
 578 699 578 699 589.5 705.5 c 128,-1,17
 601 712 601 712 619 712 c 0,18,19
 632 712 632 712 641 706.5 c 128,-1,20
 650 701 650 701 655.5 690 c 128,-1,21
 661 679 661 679 661 664 c 2,22,-1
 661 43 l 2,23,24
 661 19 661 19 649 6 c 128,-1,25
 637 -7 637 -7 613 -7 c 0,26,27
 590 -7 590 -7 577.5 6 c 128,-1,28
 565 19 565 19 565 43 c 2,29,-1
 565 566 l 1,30,-1
 587 566 l 1,31,-1
 178 24 l 2,32,33
 165 7 165 7 155 0 c 128,-1,34
 145 -7 145 -7 126 -7 c 0,0,1
EndSplineSet
EndChar

StartChar: uni048A
Encoding: 1162 1162 549
Width: 765
GlyphClass: 1
Flags: W
LayerCount: 2
Fore
SplineSet
703 -136 m 2,0,1
 697 -152 697 -152 685.5 -160 c 128,-1,2
 674 -168 674 -168 661 -168.5 c 128,-1,3
 648 -169 648 -169 637 -162.5 c 128,-1,4
 626 -156 626 -156 621 -143.5 c 128,-1,5
 616 -131 616 -131 622 -113 c 2,6,-1
 664 14 l 1,7,-1
 680 0 l 1,8,-1
 616 0 l 2,9,10
 591 0 591 0 578 11.5 c 128,-1,11
 565 23 565 23 565 48 c 2,12,-1
 565 566 l 1,13,-1
 587 566 l 1,14,-1
 178 24 l 2,15,16
 165 7 165 7 155 0 c 128,-1,17
 145 -7 145 -7 126 -7 c 0,18,19
 116 -7 116 -7 107.5 -4 c 128,-1,20
 99 -1 99 -1 93.5 6 c 128,-1,21
 88 13 88 13 85 22.5 c 128,-1,22
 82 32 82 32 82 45 c 2,23,-1
 82 663 l 2,24,25
 82 686 82 686 95 699 c 128,-1,26
 108 712 108 712 131 712 c 256,27,28
 154 712 154 712 166 699 c 128,-1,29
 178 686 178 686 178 663 c 2,30,-1
 178 139 l 1,31,-1
 156 139 l 1,32,-1
 565 682 l 2,33,34
 578 699 578 699 589.5 705.5 c 128,-1,35
 601 712 601 712 619 712 c 0,36,37
 632 712 632 712 641 706.5 c 128,-1,38
 650 701 650 701 655.5 690 c 128,-1,39
 661 679 661 679 661 664 c 2,40,-1
 661 61 l 1,41,-1
 636 84 l 1,42,-1
 710 84 l 2,43,44
 741 84 741 84 753.5 68.5 c 128,-1,45
 766 53 766 53 757 24 c 2,46,-1
 703 -136 l 2,0,1
372 760 m 0,47,48
 308 760 308 760 259.5 788 c 128,-1,49
 211 816 211 816 187 869 c 0,50,51
 180 886 180 886 185 897 c 128,-1,52
 190 908 190 908 203 913 c 0,53,54
 216 917 216 917 226 912 c 128,-1,55
 236 907 236 907 244 892 c 0,56,57
 262 857 262 857 293.5 838.5 c 128,-1,58
 325 820 325 820 372 820 c 0,59,60
 418 820 418 820 449.5 838.5 c 128,-1,61
 481 857 481 857 499 892 c 0,62,63
 508 907 508 907 517.5 912 c 128,-1,64
 527 917 527 917 541 913 c 0,65,66
 554 908 554 908 558.5 897 c 128,-1,67
 563 886 563 886 556 869 c 0,68,69
 532 816 532 816 483.5 788 c 128,-1,70
 435 760 435 760 372 760 c 0,47,48
EndSplineSet
EndChar

StartChar: uni041A
Encoding: 1050 1050 550
Width: 656
GlyphClass: 2
Flags: W
AnchorPoint: "Anchor-5" 333 353 basechar 0
AnchorPoint: "Anchor-0" 332 705 basechar 0
LayerCount: 2
Fore
SplineSet
134 -7 m 0,0,1
 109 -7 109 -7 95.5 7 c 128,-1,2
 82 21 82 21 82 46 c 2,3,-1
 82 660 l 2,4,5
 82 686 82 686 95.5 699 c 128,-1,6
 109 712 109 712 134 712 c 256,7,8
 159 712 159 712 172.5 699 c 128,-1,9
 186 686 186 686 186 660 c 2,10,-1
 186 398 l 1,11,-1
 312 398 l 1,12,-1
 288 381 l 1,13,-1
 485 685 l 2,14,15
 496 702 496 702 511 708 c 128,-1,16
 526 714 526 714 541 710.5 c 128,-1,17
 556 707 556 707 566.5 696.5 c 128,-1,18
 577 686 577 686 578 671 c 128,-1,19
 579 656 579 656 568 638 c 2,20,-1
 385 363 l 1,21,-1
 346 394 l 1,22,23
 408 386 408 386 452 349 c 128,-1,24
 496 312 496 312 528 248 c 2,25,-1
 617 65 l 2,26,27
 628 46 628 46 624 30 c 128,-1,28
 620 14 620 14 607.5 4.5 c 128,-1,29
 595 -5 595 -5 579.5 -6.5 c 128,-1,30
 564 -8 564 -8 549 -0.5 c 128,-1,31
 534 7 534 7 525 26 c 2,32,-1
 441 205 l 2,33,34
 414 262 414 262 378 286.5 c 128,-1,35
 342 311 342 311 289 311 c 2,36,-1
 186 311 l 1,37,-1
 186 46 l 2,38,39
 186 21 186 21 173 7 c 128,-1,40
 160 -7 160 -7 134 -7 c 0,0,1
EndSplineSet
EndChar

StartChar: uni041B
Encoding: 1051 1051 552
Width: 746
GlyphClass: 2
Flags: W
LayerCount: 2
Fore
SplineSet
612 -7 m 256,0,1
 587 -7 587 -7 573.5 7 c 128,-1,2
 560 21 560 21 560 46 c 2,3,-1
 560 618 l 1,4,-1
 278 618 l 1,5,-1
 278 466 l 2,6,7
 278 369 278 369 266 295 c 128,-1,8
 254 221 254 221 231.5 165.5 c 128,-1,9
 209 110 209 110 175.5 70 c 128,-1,10
 142 30 142 30 98 1 c 0,11,12
 80 -12 80 -12 61.5 -8 c 128,-1,13
 43 -4 43 -4 29 14 c 0,14,15
 17 33 17 33 21.5 51 c 128,-1,16
 26 69 26 69 46 82 c 0,17,18
 79 103 79 103 104.5 135 c 128,-1,19
 130 167 130 167 147 214.5 c 128,-1,20
 164 262 164 262 173 330 c 128,-1,21
 182 398 182 398 182 492 c 2,22,-1
 182 649 l 2,23,24
 182 676 182 676 196.5 690.5 c 128,-1,25
 211 705 211 705 238 705 c 2,26,-1
 608 705 l 2,27,28
 635 705 635 705 649 690.5 c 128,-1,29
 663 676 663 676 663 649 c 2,30,-1
 663 46 l 2,31,32
 663 21 663 21 650 7 c 128,-1,33
 637 -7 637 -7 612 -7 c 256,0,1
EndSplineSet
EndChar

StartChar: uni041F
Encoding: 1055 1055 556
Width: 760
GlyphClass: 2
Flags: W
LayerCount: 2
Fore
SplineSet
134 -7 m 0,0,1
 109 -7 109 -7 95.5 7 c 128,-1,2
 82 21 82 21 82 46 c 2,3,-1
 82 649 l 2,4,5
 82 676 82 676 96.5 690.5 c 128,-1,6
 111 705 111 705 138 705 c 2,7,-1
 623 705 l 2,8,9
 650 705 650 705 664 690.5 c 128,-1,10
 678 676 678 676 678 649 c 2,11,-1
 678 46 l 2,12,13
 678 21 678 21 665 7 c 128,-1,14
 652 -7 652 -7 627 -7 c 256,15,16
 602 -7 602 -7 588.5 7 c 128,-1,17
 575 21 575 21 575 46 c 2,18,-1
 575 618 l 1,19,-1
 186 618 l 1,20,-1
 186 46 l 2,21,22
 186 21 186 21 173 7 c 128,-1,23
 160 -7 160 -7 134 -7 c 0,0,1
EndSplineSet
EndChar

StartChar: uni0423
Encoding: 1059 1059 560
Width: 651
GlyphClass: 2
Flags: W
AnchorPoint: "Anchor-0" 329 705 basechar 0
LayerCount: 2
Fore
SplineSet
261 -7 m 0,0,1
 243 -7 243 -7 230 2 c 128,-1,2
 217 11 217 11 214.5 27 c 128,-1,3
 212 43 212 43 222 63 c 2,4,-1
 309 232 l 1,5,-1
 309 196 l 1,6,-1
 31 642 l 2,7,8
 21 661 21 661 22.5 677 c 128,-1,9
 24 693 24 693 37 702.5 c 128,-1,10
 50 712 50 712 69 712 c 0,11,12
 89 712 89 712 100 702.5 c 128,-1,13
 111 693 111 693 122 676 c 2,14,-1
 359 290 l 1,15,-1
 339 290 l 1,16,-1
 536 675 l 2,17,18
 545 691 545 691 556 701.5 c 128,-1,19
 567 712 567 712 588 712 c 0,20,21
 606 712 606 712 618.5 703 c 128,-1,22
 631 694 631 694 634.5 678.5 c 128,-1,23
 638 663 638 663 626 642 c 2,24,-1
 313 30 l 2,25,26
 306 15 306 15 294 4 c 128,-1,27
 282 -7 282 -7 261 -7 c 0,0,1
EndSplineSet
EndChar

StartChar: uni0424
Encoding: 1060 1060 562
Width: 863
GlyphClass: 1
Flags: W
LayerCount: 2
Fore
SplineSet
432 -31 m 0,0,1
 407 -31 407 -31 393.5 -17 c 128,-1,2
 380 -3 380 -3 380 22 c 2,3,-1
 380 84 l 1,4,-1
 407 56 l 1,5,-1
 381 56 l 2,6,7
 281 56 281 56 208.5 92 c 128,-1,8
 136 128 136 128 97 195.5 c 128,-1,9
 58 263 58 263 58 358 c 0,10,11
 58 430 58 430 79.5 486 c 128,-1,12
 101 542 101 542 142.5 581 c 128,-1,13
 184 620 184 620 244.5 640 c 128,-1,14
 305 660 305 660 381 660 c 2,15,-1
 407 660 l 1,16,-1
 380 632 l 1,17,-1
 380 688 l 2,18,19
 380 714 380 714 393.5 727.5 c 128,-1,20
 407 741 407 741 432 741 c 256,21,22
 457 741 457 741 470.5 727.5 c 128,-1,23
 484 714 484 714 484 688 c 2,24,-1
 484 632 l 1,25,-1
 457 660 l 1,26,-1
 482 660 l 2,27,28
 585 660 585 660 657 624.5 c 128,-1,29
 729 589 729 589 767.5 521.5 c 128,-1,30
 806 454 806 454 806 358 c 0,31,32
 806 287 806 287 783.5 231 c 128,-1,33
 761 175 761 175 719 136 c 128,-1,34
 677 97 677 97 617.5 76.5 c 128,-1,35
 558 56 558 56 482 56 c 2,36,-1
 457 56 l 1,37,-1
 484 84 l 1,38,-1
 484 22 l 2,39,40
 484 -3 484 -3 471 -17 c 128,-1,41
 458 -31 458 -31 432 -31 c 0,0,1
380 117 m 1,42,-1
 380 599 l 1,43,-1
 404 579 l 1,44,-1
 369 579 l 2,45,46
 323 579 323 579 285.5 565 c 128,-1,47
 248 551 248 551 220.5 523 c 128,-1,48
 193 495 193 495 178.5 453.5 c 128,-1,49
 164 412 164 412 164 358 c 0,50,51
 164 288 164 288 190 238.5 c 128,-1,52
 216 189 216 189 262.5 163 c 128,-1,53
 309 137 309 137 369 137 c 2,54,-1
 404 137 l 1,55,-1
 380 117 l 1,42,-1
483 117 m 1,56,-1
 460 137 l 1,57,-1
 494 137 l 2,58,59
 540 137 540 137 577.5 151.5 c 128,-1,60
 615 166 615 166 642 194.5 c 128,-1,61
 669 223 669 223 684 264 c 128,-1,62
 699 305 699 305 699 358 c 0,63,64
 699 431 699 431 673.5 480 c 128,-1,65
 648 529 648 529 602 554 c 128,-1,66
 556 579 556 579 494 579 c 2,67,-1
 460 579 l 1,68,-1
 483 599 l 1,69,-1
 483 117 l 1,56,-1
EndSplineSet
EndChar

StartChar: uni0427
Encoding: 1063 1063 564
Width: 685
GlyphClass: 2
Flags: W
AnchorPoint: "Anchor-5" 305 295 basechar 0
AnchorPoint: "Anchor-0" 324 705 basechar 0
LayerCount: 2
Fore
SplineSet
551 -7 m 0,0,1
 526 -7 526 -7 513 7 c 128,-1,2
 500 21 500 21 500 46 c 2,3,-1
 500 287 l 1,4,5
 471 272 471 272 425.5 263.5 c 128,-1,6
 380 255 380 255 335 255 c 0,7,8
 246 255 246 255 183 287.5 c 128,-1,9
 120 320 120 320 88 385 c 128,-1,10
 56 450 56 450 56 547 c 2,11,-1
 56 659 l 2,12,13
 56 685 56 685 69 698.5 c 128,-1,14
 82 712 82 712 107 712 c 256,15,16
 132 712 132 712 145.5 698.5 c 128,-1,17
 159 685 159 685 159 659 c 2,18,-1
 159 553 l 2,19,20
 159 445 159 445 206 395 c 128,-1,21
 253 345 253 345 345 345 c 0,22,23
 386 345 386 345 426 353 c 128,-1,24
 466 361 466 361 500 380 c 1,25,-1
 500 659 l 2,26,27
 500 685 500 685 513 698.5 c 128,-1,28
 526 712 526 712 551 712 c 256,29,30
 576 712 576 712 589.5 698.5 c 128,-1,31
 603 685 603 685 603 659 c 2,32,-1
 603 46 l 2,33,34
 603 21 603 21 590 7 c 128,-1,35
 577 -7 577 -7 551 -7 c 0,0,1
EndSplineSet
EndChar

StartChar: uni0426
Encoding: 1062 1062 565
Width: 801
GlyphClass: 1
Flags: W
LayerCount: 2
Fore
SplineSet
733 -170 m 0,0,1
 710 -170 710 -170 698 -157.5 c 128,-1,2
 686 -145 686 -145 686 -123 c 2,3,-1
 686 0 l 1,4,-1
 138 0 l 2,5,6
 111 0 111 0 96.5 14.5 c 128,-1,7
 82 29 82 29 82 56 c 2,8,-1
 82 659 l 2,9,10
 82 685 82 685 95.5 698.5 c 128,-1,11
 109 712 109 712 134 712 c 256,12,13
 159 712 159 712 172.5 698.5 c 128,-1,14
 186 685 186 685 186 659 c 2,15,-1
 186 87 l 1,16,-1
 575 87 l 1,17,-1
 575 659 l 2,18,19
 575 685 575 685 588.5 698.5 c 128,-1,20
 602 712 602 712 627 712 c 256,21,22
 652 712 652 712 665 698.5 c 128,-1,23
 678 685 678 685 678 659 c 2,24,-1
 678 41 l 1,25,-1
 632 87 l 1,26,-1
 729 87 l 2,27,28
 753 87 753 87 765.5 74.5 c 128,-1,29
 778 62 778 62 778 37 c 2,30,-1
 778 -123 l 2,31,32
 778 -170 778 -170 733 -170 c 0,0,1
EndSplineSet
EndChar

StartChar: uni0428
Encoding: 1064 1064 566
Width: 1061
GlyphClass: 1
Flags: W
LayerCount: 2
Fore
SplineSet
138 0 m 2,0,1
 111 0 111 0 96.5 14.5 c 128,-1,2
 82 29 82 29 82 56 c 2,3,-1
 82 659 l 2,4,5
 82 685 82 685 95.5 698.5 c 128,-1,6
 109 712 109 712 133 712 c 0,7,8
 158 712 158 712 171 698.5 c 128,-1,9
 184 685 184 685 184 659 c 2,10,-1
 184 87 l 1,11,-1
 480 87 l 1,12,-1
 480 659 l 2,13,14
 480 685 480 685 493 698.5 c 128,-1,15
 506 712 506 712 530 712 c 0,16,17
 555 712 555 712 568 698.5 c 128,-1,18
 581 685 581 685 581 659 c 2,19,-1
 581 87 l 1,20,-1
 877 87 l 1,21,-1
 877 659 l 2,22,23
 877 685 877 685 890 698.5 c 128,-1,24
 903 712 903 712 927 712 c 0,25,26
 952 712 952 712 965 698.5 c 128,-1,27
 978 685 978 685 978 659 c 2,28,-1
 978 56 l 2,29,30
 978 29 978 29 964 14.5 c 128,-1,31
 950 0 950 0 923 0 c 2,32,-1
 138 0 l 2,0,1
EndSplineSet
EndChar

StartChar: uni0429
Encoding: 1065 1065 567
Width: 1100
GlyphClass: 1
Flags: W
LayerCount: 2
Fore
SplineSet
1032 -168 m 256,0,1
 1010 -168 1010 -168 998 -155.5 c 128,-1,2
 986 -143 986 -143 986 -120 c 2,3,-1
 986 0 l 1,4,-1
 138 0 l 2,5,6
 111 0 111 0 96.5 14.5 c 128,-1,7
 82 29 82 29 82 56 c 2,8,-1
 82 659 l 2,9,10
 82 685 82 685 95.5 698.5 c 128,-1,11
 109 712 109 712 133 712 c 0,12,13
 158 712 158 712 171 698.5 c 128,-1,14
 184 685 184 685 184 659 c 2,15,-1
 184 87 l 1,16,-1
 480 87 l 1,17,-1
 480 659 l 2,18,19
 480 685 480 685 493 698.5 c 128,-1,20
 506 712 506 712 530 712 c 0,21,22
 555 712 555 712 568 698.5 c 128,-1,23
 581 685 581 685 581 659 c 2,24,-1
 581 87 l 1,25,-1
 877 87 l 1,26,-1
 877 659 l 2,27,28
 877 685 877 685 890 698.5 c 128,-1,29
 903 712 903 712 927 712 c 0,30,31
 952 712 952 712 965 698.5 c 128,-1,32
 978 685 978 685 978 659 c 2,33,-1
 978 41 l 1,34,-1
 932 87 l 1,35,-1
 1028 87 l 2,36,37
 1052 87 1052 87 1065 74.5 c 128,-1,38
 1078 62 1078 62 1078 37 c 2,39,-1
 1078 -120 l 2,40,41
 1078 -143 1078 -143 1066 -155.5 c 128,-1,42
 1054 -168 1054 -168 1032 -168 c 256,0,1
EndSplineSet
EndChar

StartChar: uni040F
Encoding: 1039 1039 568
Width: 760
GlyphClass: 1
Flags: W
LayerCount: 2
Fore
SplineSet
381 -168 m 0,0,1
 358 -168 358 -168 346.5 -155.5 c 128,-1,2
 335 -143 335 -143 335 -120 c 2,3,-1
 335 0 l 1,4,-1
 138 0 l 2,5,6
 111 0 111 0 96.5 14.5 c 128,-1,7
 82 29 82 29 82 56 c 2,8,-1
 82 659 l 2,9,10
 82 685 82 685 95.5 698.5 c 128,-1,11
 109 712 109 712 134 712 c 256,12,13
 159 712 159 712 172.5 698.5 c 128,-1,14
 186 685 186 685 186 659 c 2,15,-1
 186 87 l 1,16,-1
 575 87 l 1,17,-1
 575 659 l 2,18,19
 575 685 575 685 588.5 698.5 c 128,-1,20
 602 712 602 712 627 712 c 256,21,22
 652 712 652 712 665 698.5 c 128,-1,23
 678 685 678 685 678 659 c 2,24,-1
 678 56 l 2,25,26
 678 29 678 29 664 14.5 c 128,-1,27
 650 0 650 0 623 0 c 2,28,-1
 426 0 l 1,29,-1
 426 -120 l 2,30,31
 426 -143 426 -143 414.5 -155.5 c 128,-1,32
 403 -168 403 -168 381 -168 c 0,0,1
EndSplineSet
EndChar

StartChar: uni042C
Encoding: 1068 1068 569
Width: 666
GlyphClass: 1
Flags: W
LayerCount: 2
Fore
SplineSet
138 0 m 2,0,1
 111 0 111 0 96.5 14.5 c 128,-1,2
 82 29 82 29 82 56 c 2,3,-1
 82 659 l 2,4,5
 82 685 82 685 95.5 698.5 c 128,-1,6
 109 712 109 712 134 712 c 256,7,8
 159 712 159 712 172.5 698.5 c 128,-1,9
 186 685 186 685 186 659 c 2,10,-1
 186 402 l 1,11,-1
 388 402 l 2,12,13
 462 402 462 402 515 379 c 128,-1,14
 568 356 568 356 596 312 c 128,-1,15
 624 268 624 268 624 202 c 0,16,17
 624 103 624 103 562 51.5 c 128,-1,18
 500 0 500 0 388 0 c 2,19,-1
 138 0 l 2,0,1
186 84 m 1,20,-1
 376 84 l 2,21,22
 451 84 451 84 487 113 c 128,-1,23
 523 142 523 142 523 201 c 0,24,25
 523 261 523 261 487 289.5 c 128,-1,26
 451 318 451 318 376 318 c 2,27,-1
 186 318 l 1,28,-1
 186 84 l 1,20,-1
EndSplineSet
EndChar

StartChar: uni042B
Encoding: 1067 1067 570
Width: 876
GlyphClass: 2
Flags: W
AnchorPoint: "Anchor-0" 438 705 basechar 0
LayerCount: 2
Fore
SplineSet
138 0 m 2,0,1
 111 0 111 0 96.5 14.5 c 128,-1,2
 82 29 82 29 82 56 c 2,3,-1
 82 659 l 2,4,5
 82 685 82 685 95.5 698.5 c 128,-1,6
 109 712 109 712 134 712 c 256,7,8
 159 712 159 712 172.5 698.5 c 128,-1,9
 186 685 186 685 186 659 c 2,10,-1
 186 402 l 1,11,-1
 358 402 l 2,12,13
 432 402 432 402 485 379 c 128,-1,14
 538 356 538 356 566 312 c 128,-1,15
 594 268 594 268 594 202 c 0,16,17
 594 103 594 103 532 51.5 c 128,-1,18
 470 0 470 0 358 0 c 2,19,-1
 138 0 l 2,0,1
186 84 m 1,20,-1
 346 84 l 2,21,22
 421 84 421 84 457 113 c 128,-1,23
 493 142 493 142 493 201 c 0,24,25
 493 261 493 261 457 289.5 c 128,-1,26
 421 318 421 318 346 318 c 2,27,-1
 186 318 l 1,28,-1
 186 84 l 1,20,-1
741 -7 m 0,29,30
 717 -7 717 -7 703.5 7 c 128,-1,31
 690 21 690 21 690 46 c 2,32,-1
 690 659 l 2,33,34
 690 685 690 685 703.5 698.5 c 128,-1,35
 717 712 717 712 741 712 c 0,36,37
 766 712 766 712 779.5 698.5 c 128,-1,38
 793 685 793 685 793 659 c 2,39,-1
 793 46 l 2,40,41
 793 21 793 21 780 7 c 128,-1,42
 767 -7 767 -7 741 -7 c 0,29,30
EndSplineSet
EndChar

StartChar: uni042A
Encoding: 1066 1066 571
Width: 798
GlyphClass: 1
Flags: W
LayerCount: 2
Fore
SplineSet
269 0 m 2,0,1
 242 0 242 0 228 14.5 c 128,-1,2
 214 29 214 29 214 56 c 2,3,-1
 214 618 l 1,4,-1
 43 618 l 2,5,6
 21 618 21 618 9 629.5 c 128,-1,7
 -3 641 -3 641 -3 662 c 256,8,9
 -3 683 -3 683 9 694 c 128,-1,10
 21 705 21 705 43 705 c 2,11,-1
 262 705 l 2,12,13
 289 705 289 705 303.5 690.5 c 128,-1,14
 318 676 318 676 318 649 c 2,15,-1
 318 402 l 1,16,-1
 519 402 l 2,17,18
 594 402 594 402 647 379 c 128,-1,19
 700 356 700 356 727.5 312 c 128,-1,20
 755 268 755 268 755 202 c 0,21,22
 755 103 755 103 693 51.5 c 128,-1,23
 631 0 631 0 519 0 c 2,24,-1
 269 0 l 2,0,1
318 84 m 1,25,-1
 508 84 l 2,26,27
 582 84 582 84 618.5 113 c 128,-1,28
 655 142 655 142 655 201 c 0,29,30
 655 261 655 261 618.5 289.5 c 128,-1,31
 582 318 582 318 508 318 c 2,32,-1
 318 318 l 1,33,-1
 318 84 l 1,25,-1
EndSplineSet
EndChar

StartChar: uni0409
Encoding: 1033 1033 572
Width: 1131
GlyphClass: 1
Flags: W
LayerCount: 2
Fore
SplineSet
603 0 m 2,0,1
 576 0 576 0 561.5 14.5 c 128,-1,2
 547 29 547 29 547 56 c 2,3,-1
 547 618 l 1,4,-1
 278 618 l 1,5,-1
 278 466 l 2,6,7
 278 370 278 370 266.5 295.5 c 128,-1,8
 255 221 255 221 232 165 c 128,-1,9
 209 109 209 109 175.5 69 c 128,-1,10
 142 29 142 29 97 2 c 0,11,12
 84 -6 84 -6 71.5 -7.5 c 128,-1,13
 59 -9 59 -9 48.5 -3.5 c 128,-1,14
 38 2 38 2 29 14 c 0,15,16
 17 33 17 33 22 50 c 128,-1,17
 27 67 27 67 46 82 c 0,18,19
 79 103 79 103 104.5 135 c 128,-1,20
 130 167 130 167 147 214.5 c 128,-1,21
 164 262 164 262 173 330 c 128,-1,22
 182 398 182 398 182 492 c 2,23,-1
 182 649 l 2,24,25
 182 676 182 676 196.5 690.5 c 128,-1,26
 211 705 211 705 238 705 c 2,27,-1
 595 705 l 2,28,29
 622 705 622 705 636.5 690.5 c 128,-1,30
 651 676 651 676 651 649 c 2,31,-1
 651 402 l 1,32,-1
 853 402 l 2,33,34
 927 402 927 402 980 379 c 128,-1,35
 1033 356 1033 356 1061 312 c 128,-1,36
 1089 268 1089 268 1089 202 c 0,37,38
 1089 103 1089 103 1027 51.5 c 128,-1,39
 965 0 965 0 853 0 c 2,40,-1
 603 0 l 2,0,1
651 84 m 1,41,-1
 841 84 l 2,42,43
 916 84 916 84 952 113 c 128,-1,44
 988 142 988 142 988 201 c 0,45,46
 988 261 988 261 952 289.5 c 128,-1,47
 916 318 916 318 841 318 c 2,48,-1
 651 318 l 1,49,-1
 651 84 l 1,41,-1
EndSplineSet
EndChar

StartChar: uni040A
Encoding: 1034 1034 573
Width: 1165
GlyphClass: 1
Flags: W
LayerCount: 2
Fore
SplineSet
134 -7 m 0,0,1
 109 -7 109 -7 95.5 7 c 128,-1,2
 82 21 82 21 82 46 c 2,3,-1
 82 659 l 2,4,5
 82 685 82 685 95.5 698.5 c 128,-1,6
 109 712 109 712 134 712 c 256,7,8
 159 712 159 712 172.5 698.5 c 128,-1,9
 186 685 186 685 186 659 c 2,10,-1
 186 401 l 1,11,-1
 581 401 l 1,12,-1
 581 659 l 2,13,14
 581 685 581 685 594.5 698.5 c 128,-1,15
 608 712 608 712 633 712 c 256,16,17
 658 712 658 712 671 698.5 c 128,-1,18
 684 685 684 685 684 659 c 2,19,-1
 684 402 l 1,20,-1
 886 402 l 2,21,22
 961 402 961 402 1014 379 c 128,-1,23
 1067 356 1067 356 1095 312 c 128,-1,24
 1123 268 1123 268 1123 202 c 0,25,26
 1123 103 1123 103 1060.5 51.5 c 128,-1,27
 998 0 998 0 886 0 c 2,28,-1
 637 0 l 2,29,30
 610 0 610 0 595.5 14.5 c 128,-1,31
 581 29 581 29 581 56 c 2,32,-1
 581 314 l 1,33,-1
 186 314 l 1,34,-1
 186 46 l 2,35,36
 186 21 186 21 173 7 c 128,-1,37
 160 -7 160 -7 134 -7 c 0,0,1
684 84 m 1,38,-1
 874 84 l 2,39,40
 949 84 949 84 985.5 113 c 128,-1,41
 1022 142 1022 142 1022 201 c 0,42,43
 1022 261 1022 261 985.5 289.5 c 128,-1,44
 949 318 949 318 874 318 c 2,45,-1
 684 318 l 1,46,-1
 684 84 l 1,38,-1
EndSplineSet
EndChar

StartChar: uni0404
Encoding: 1028 1028 575
Width: 676
GlyphClass: 2
Flags: W
AnchorPoint: "Anchor-2" 388 0 basechar 0
AnchorPoint: "Anchor-0" 389 705 basechar 0
LayerCount: 2
Fore
SplineSet
398 -9 m 0,0,1
 291 -9 291 -9 215 35 c 128,-1,2
 139 79 139 79 98.5 160.5 c 128,-1,3
 58 242 58 242 58 353 c 0,4,5
 58 436 58 436 81 502.5 c 128,-1,6
 104 569 104 569 147.5 616.5 c 128,-1,7
 191 664 191 664 254.5 689 c 128,-1,8
 318 714 318 714 398 714 c 0,9,10
 457 714 457 714 511.5 698.5 c 128,-1,11
 566 683 566 683 612 648 c 0,12,13
 629 637 629 637 633.5 622.5 c 128,-1,14
 638 608 638 608 634.5 594.5 c 128,-1,15
 631 581 631 581 620.5 572 c 128,-1,16
 610 563 610 563 595 562 c 128,-1,17
 580 561 580 561 563 572 c 0,18,19
 526 598 526 598 487 610 c 128,-1,20
 448 622 448 622 401 622 c 0,21,22
 328 622 328 622 277 592.5 c 128,-1,23
 226 563 226 563 198 507.5 c 128,-1,24
 170 452 170 452 167 374 c 1,25,-1
 135 400 l 1,26,-1
 468 400 l 2,27,28
 490 400 490 400 501.5 389 c 128,-1,29
 513 378 513 378 513 359 c 0,30,31
 513 338 513 338 501.5 327.5 c 128,-1,32
 490 317 490 317 468 317 c 2,33,-1
 133 317 l 1,34,-1
 166 341 l 1,35,36
 169 257 169 257 197 200 c 128,-1,37
 225 143 225 143 276.5 113 c 128,-1,38
 328 83 328 83 401 83 c 0,39,40
 448 83 448 83 488 95.5 c 128,-1,41
 528 108 528 108 567 135 c 0,42,43
 584 148 584 148 598.5 146.5 c 128,-1,44
 613 145 613 145 622 135 c 128,-1,45
 631 125 631 125 633 110.5 c 128,-1,46
 635 96 635 96 629.5 81 c 128,-1,47
 624 66 624 66 609 56 c 0,48,49
 566 24 566 24 512 7.5 c 128,-1,50
 458 -9 458 -9 398 -9 c 0,0,1
EndSplineSet
EndChar

StartChar: uni042D
Encoding: 1069 1069 576
Width: 676
GlyphClass: 2
Flags: W
AnchorPoint: "Anchor-2" 301 0 basechar 0
AnchorPoint: "Anchor-0" 301 705 basechar 0
LayerCount: 2
Fore
SplineSet
278 -9 m 0,0,1
 218 -9 218 -9 164 7.5 c 128,-1,2
 110 24 110 24 66 56 c 0,3,4
 51 67 51 67 45.5 81.5 c 128,-1,5
 40 96 40 96 42.5 111 c 128,-1,6
 45 126 45 126 54 135.5 c 128,-1,7
 63 145 63 145 77.5 146.5 c 128,-1,8
 92 148 92 148 109 136 c 0,9,10
 148 108 148 108 188.5 95.5 c 128,-1,11
 229 83 229 83 276 83 c 0,12,13
 348 83 348 83 399 113 c 128,-1,14
 450 143 450 143 479 199.5 c 128,-1,15
 508 256 508 256 510 339 c 1,16,-1
 543 317 l 1,17,-1
 208 317 l 2,18,19
 186 317 186 317 174.5 327.5 c 128,-1,20
 163 338 163 338 163 358 c 256,21,22
 163 378 163 378 174.5 389 c 128,-1,23
 186 400 186 400 208 400 c 2,24,-1
 542 400 l 1,25,-1
 510 372 l 1,26,27
 506 451 506 451 479 507 c 128,-1,28
 452 563 452 563 402.5 592.5 c 128,-1,29
 353 622 353 622 282 622 c 0,30,31
 236 622 236 622 194.5 608.5 c 128,-1,32
 153 595 153 595 115 571 c 0,33,34
 97 559 97 559 82 560.5 c 128,-1,35
 67 562 67 562 57 571 c 128,-1,36
 47 580 47 580 43.5 593.5 c 128,-1,37
 40 607 40 607 45.5 621.5 c 128,-1,38
 51 636 51 636 66 646 c 0,39,40
 114 681 114 681 171 697.5 c 128,-1,41
 228 714 228 714 286 714 c 0,42,43
 391 714 391 714 465.5 669.5 c 128,-1,44
 540 625 540 625 579 544 c 128,-1,45
 618 463 618 463 618 353 c 0,46,47
 618 269 618 269 595 202.5 c 128,-1,48
 572 136 572 136 528.5 88.5 c 128,-1,49
 485 41 485 41 422 16 c 128,-1,50
 359 -9 359 -9 278 -9 c 0,0,1
EndSplineSet
EndChar

StartChar: uni040B
Encoding: 1035 1035 580
Width: 856
GlyphClass: 1
Flags: W
LayerCount: 2
Fore
SplineSet
306 -7 m 0,0,1
 281 -7 281 -7 267.5 7 c 128,-1,2
 254 21 254 21 254 46 c 2,3,-1
 254 618 l 1,4,-1
 42 618 l 2,5,6
 21 618 21 618 9 629.5 c 128,-1,7
 -3 641 -3 641 -3 662 c 256,8,9
 -3 683 -3 683 9 694 c 128,-1,10
 21 705 21 705 42 705 c 2,11,-1
 569 705 l 2,12,13
 591 705 591 705 603 694 c 128,-1,14
 615 683 615 683 615 662 c 256,15,16
 615 641 615 641 603 629.5 c 128,-1,17
 591 618 591 618 569 618 c 2,18,-1
 357 618 l 1,19,-1
 357 405 l 1,20,21
 387 422 387 422 431.5 430 c 128,-1,22
 476 438 476 438 521 438 c 0,23,24
 612 438 612 438 674.5 406 c 128,-1,25
 737 374 737 374 769.5 309 c 128,-1,26
 802 244 802 244 802 146 c 2,27,-1
 802 46 l 2,28,29
 802 21 802 21 788 7 c 128,-1,30
 774 -7 774 -7 749 -7 c 256,31,32
 724 -7 724 -7 711 7 c 128,-1,33
 698 21 698 21 698 46 c 2,34,-1
 698 140 l 2,35,36
 698 249 698 249 650.5 298.5 c 128,-1,37
 603 348 603 348 510 348 c 0,38,39
 470 348 470 348 431 340.5 c 128,-1,40
 392 333 392 333 357 313 c 1,41,-1
 357 46 l 2,42,43
 357 21 357 21 344.5 7 c 128,-1,44
 332 -7 332 -7 306 -7 c 0,0,1
EndSplineSet
EndChar

StartChar: uni042E
Encoding: 1070 1070 581
Width: 1029
GlyphClass: 1
Flags: W
AnchorPoint: "Anchor-0" 526 676 basechar 0
LayerCount: 2
Fore
SplineSet
649 -9 m 0,0,1
 558 -9 558 -9 489 30.5 c 128,-1,2
 420 70 420 70 379.5 142.5 c 128,-1,3
 339 215 339 215 331 314 c 1,4,-1
 186 314 l 1,5,-1
 186 46 l 2,6,7
 186 21 186 21 173 7 c 128,-1,8
 160 -7 160 -7 134 -7 c 0,9,10
 109 -7 109 -7 95.5 7 c 128,-1,11
 82 21 82 21 82 46 c 2,12,-1
 82 659 l 2,13,14
 82 685 82 685 95.5 698.5 c 128,-1,15
 109 712 109 712 134 712 c 256,16,17
 159 712 159 712 172.5 698.5 c 128,-1,18
 186 685 186 685 186 659 c 2,19,-1
 186 401 l 1,20,-1
 331 401 l 1,21,22
 341 498 341 498 381.5 568 c 128,-1,23
 422 638 422 638 490.5 676 c 128,-1,24
 559 714 559 714 649 714 c 0,25,26
 748 714 748 714 820 670 c 128,-1,27
 892 626 892 626 931.5 545 c 128,-1,28
 971 464 971 464 971 353 c 0,29,30
 971 270 971 270 948 203 c 128,-1,31
 925 136 925 136 883.5 88.5 c 128,-1,32
 842 41 842 41 782.5 16 c 128,-1,33
 723 -9 723 -9 649 -9 c 0,0,1
649 81 m 0,34,35
 717 81 717 81 765 113 c 128,-1,36
 813 145 813 145 838 206 c 128,-1,37
 863 267 863 267 863 353 c 0,38,39
 863 482 863 482 807.5 553 c 128,-1,40
 752 624 752 624 649 624 c 0,41,42
 582 624 582 624 534 592.5 c 128,-1,43
 486 561 486 561 461 500 c 128,-1,44
 436 439 436 439 436 353 c 0,45,46
 436 225 436 225 492 153 c 128,-1,47
 548 81 548 81 649 81 c 0,34,35
EndSplineSet
EndChar

StartChar: uni042F
Encoding: 1071 1071 582
Width: 678
GlyphClass: 1
Flags: W
AnchorPoint: "Anchor-0" 344 690 basechar 0
LayerCount: 2
Fore
SplineSet
545 -7 m 256,0,1
 520 -7 520 -7 506.5 7 c 128,-1,2
 493 21 493 21 493 46 c 2,3,-1
 493 291 l 1,4,-1
 390 291 l 2,5,6
 361 291 361 291 339.5 285.5 c 128,-1,7
 318 280 318 280 301.5 266 c 128,-1,8
 285 252 285 252 271 225 c 2,9,-1
 162 25 l 2,10,11
 151 5 151 5 135.5 -2 c 128,-1,12
 120 -9 120 -9 105 -6.5 c 128,-1,13
 90 -4 90 -4 78.5 7 c 128,-1,14
 67 18 67 18 64.5 34 c 128,-1,15
 62 50 62 50 72 70 c 2,16,-1
 156 224 l 2,17,18
 179 266 179 266 209 287 c 128,-1,19
 239 308 239 308 279 308 c 2,20,-1
 309 308 l 1,21,-1
 304 294 l 1,22,23
 191 294 191 294 128.5 348 c 128,-1,24
 66 402 66 402 66 498 c 0,25,26
 66 564 66 564 93.5 610 c 128,-1,27
 121 656 121 656 174.5 680.5 c 128,-1,28
 228 705 228 705 304 705 c 2,29,-1
 541 705 l 2,30,31
 568 705 568 705 582 690.5 c 128,-1,32
 596 676 596 676 596 649 c 2,33,-1
 596 46 l 2,34,35
 596 21 596 21 583 7 c 128,-1,36
 570 -7 570 -7 545 -7 c 256,0,1
321 369 m 2,37,-1
 493 369 l 1,38,-1
 493 622 l 1,39,-1
 321 622 l 2,40,41
 245 622 245 622 206 590 c 128,-1,42
 167 558 167 558 167 496 c 0,43,44
 167 433 167 433 206 401 c 128,-1,45
 245 369 245 369 321 369 c 2,37,-1
EndSplineSet
EndChar

StartChar: uni0402
Encoding: 1026 1026 583
Width: 855
GlyphClass: 1
Flags: W
LayerCount: 2
Fore
SplineSet
584 -189 m 0,0,1
 562 -189 562 -189 537.5 -186 c 128,-1,2
 513 -183 513 -183 493 -178 c 0,3,4
 477 -173 477 -173 469 -162.5 c 128,-1,5
 461 -152 461 -152 460.5 -139.5 c 128,-1,6
 460 -127 460 -127 465.5 -116.5 c 128,-1,7
 471 -106 471 -106 481.5 -100 c 128,-1,8
 492 -94 492 -94 507 -98 c 0,9,10
 524 -102 524 -102 539.5 -104 c 128,-1,11
 555 -106 555 -106 573 -106 c 0,12,13
 632 -106 632 -106 664.5 -66 c 128,-1,14
 697 -26 697 -26 697 51 c 2,15,-1
 697 140 l 2,16,17
 697 248 697 248 648 298 c 128,-1,18
 599 348 599 348 503 348 c 0,19,20
 461 348 461 348 424 339.5 c 128,-1,21
 387 331 387 331 357 313 c 1,22,-1
 357 46 l 2,23,24
 357 21 357 21 344.5 7 c 128,-1,25
 332 -7 332 -7 306 -7 c 0,26,27
 281 -7 281 -7 267.5 7 c 128,-1,28
 254 21 254 21 254 46 c 2,29,-1
 254 618 l 1,30,-1
 42 618 l 2,31,32
 21 618 21 618 9 629.5 c 128,-1,33
 -3 641 -3 641 -3 662 c 256,34,35
 -3 683 -3 683 9 694 c 128,-1,36
 21 705 21 705 42 705 c 2,37,-1
 569 705 l 2,38,39
 591 705 591 705 603 694 c 128,-1,40
 615 683 615 683 615 662 c 256,41,42
 615 641 615 641 603 629.5 c 128,-1,43
 591 618 591 618 569 618 c 2,44,-1
 357 618 l 1,45,-1
 357 405 l 1,46,47
 384 421 384 421 426 429.5 c 128,-1,48
 468 438 468 438 513 438 c 0,49,50
 584 438 584 438 637 420 c 128,-1,51
 690 402 690 402 726.5 365.5 c 128,-1,52
 763 329 763 329 781.5 274.5 c 128,-1,53
 800 220 800 220 800 146 c 2,54,-1
 800 55 l 2,55,56
 800 -23 800 -23 774 -78 c 128,-1,57
 748 -133 748 -133 699 -161 c 128,-1,58
 650 -189 650 -189 584 -189 c 0,0,1
EndSplineSet
EndChar

StartChar: uni0462
Encoding: 1122 1122 584
Width: 733
GlyphClass: 1
Flags: W
LayerCount: 2
Fore
SplineSet
208 0 m 2,0,1
 181 0 181 0 167 14.5 c 128,-1,2
 153 29 153 29 153 56 c 2,3,-1
 153 530 l 1,4,-1
 14 530 l 2,5,6
 -6 530 -6 530 -16.5 540.5 c 128,-1,7
 -27 551 -27 551 -27 569 c 0,8,9
 -27 608 -27 608 14 608 c 2,10,-1
 179 608 l 1,11,-1
 153 561 l 1,12,-1
 153 659 l 2,13,14
 153 685 153 685 166 698.5 c 128,-1,15
 179 712 179 712 203 712 c 256,16,17
 227 712 227 712 240 698.5 c 128,-1,18
 253 685 253 685 253 659 c 2,19,-1
 253 561 l 1,20,-1
 227 608 l 1,21,-1
 456 608 l 2,22,23
 476 608 476 608 486.5 598 c 128,-1,24
 497 588 497 588 497 569 c 0,25,26
 497 530 497 530 456 530 c 2,27,-1
 253 530 l 1,28,-1
 253 402 l 1,29,-1
 454 402 l 2,30,31
 566 402 566 402 628.5 351.5 c 128,-1,32
 691 301 691 301 691 202 c 256,33,34
 691 103 691 103 628.5 51.5 c 128,-1,35
 566 0 566 0 454 0 c 2,36,-1
 208 0 l 2,0,1
252 84 m 1,37,-1
 443 84 l 2,38,39
 517 84 517 84 554 113 c 128,-1,40
 591 142 591 142 591 201 c 0,41,42
 591 261 591 261 554 289.5 c 128,-1,43
 517 318 517 318 443 318 c 2,44,-1
 252 318 l 1,45,-1
 252 84 l 1,37,-1
EndSplineSet
EndChar

StartChar: uni046A
Encoding: 1130 1130 585
Width: 980
GlyphClass: 1
Flags: W
LayerCount: 2
Fore
SplineSet
490 -7 m 256,0,1
 465 -7 465 -7 451.5 7 c 128,-1,2
 438 21 438 21 438 46 c 2,3,-1
 438 311 l 1,4,-1
 367 311 l 2,5,6
 312 311 312 311 277.5 286 c 128,-1,7
 243 261 243 261 217 205 c 2,8,-1
 131 26 l 2,9,10
 122 7 122 7 107.5 -0.5 c 128,-1,11
 93 -8 93 -8 77 -6.5 c 128,-1,12
 61 -5 61 -5 48.5 4.5 c 128,-1,13
 36 14 36 14 32.5 30 c 128,-1,14
 29 46 29 46 39 65 c 2,15,-1
 130 250 l 2,16,17
 152 295 152 295 183 327.5 c 128,-1,18
 214 360 214 360 259 378 c 128,-1,19
 304 396 304 396 364 396 c 2,20,-1
 414 396 l 1,21,-1
 411 371 l 1,22,-1
 177 639 l 2,23,24
 163 656 163 656 162.5 670.5 c 128,-1,25
 162 685 162 685 174 695 c 128,-1,26
 186 705 186 705 210 705 c 2,27,-1
 769 705 l 2,28,29
 793 705 793 705 805 695 c 128,-1,30
 817 685 817 685 816.5 670.5 c 128,-1,31
 816 656 816 656 802 639 c 2,32,-1
 568 371 l 1,33,-1
 564 396 l 1,34,-1
 615 396 l 2,35,36
 675 396 675 396 719.5 378 c 128,-1,37
 764 360 764 360 796 327.5 c 128,-1,38
 828 295 828 295 849 250 c 2,39,-1
 940 65 l 2,40,41
 950 45 950 45 946.5 29.5 c 128,-1,42
 943 14 943 14 930.5 4.5 c 128,-1,43
 918 -5 918 -5 902 -6.5 c 128,-1,44
 886 -8 886 -8 871.5 -0.5 c 128,-1,45
 857 7 857 7 848 26 c 2,46,-1
 762 205 l 2,47,48
 736 261 736 261 702 286 c 128,-1,49
 668 311 668 311 612 311 c 2,50,-1
 541 311 l 1,51,-1
 541 46 l 2,52,53
 541 21 541 21 528 7 c 128,-1,54
 515 -7 515 -7 490 -7 c 256,0,1
489 398 m 1,55,-1
 491 398 l 1,56,-1
 716 663 l 1,57,-1
 716 631 l 1,58,-1
 263 631 l 1,59,-1
 263 663 l 1,60,-1
 489 398 l 1,55,-1
EndSplineSet
EndChar

StartChar: uni0474
Encoding: 1140 1140 587
Width: 755
GlyphClass: 1
Flags: W
LayerCount: 2
Fore
SplineSet
350 -7 m 0,0,1
 328 -7 328 -7 313.5 3.5 c 128,-1,2
 299 14 299 14 290 35 c 2,3,-1
 21 644 l 2,4,5
 13 665 13 665 17 680 c 128,-1,6
 21 695 21 695 33.5 703.5 c 128,-1,7
 46 712 46 712 64 712 c 0,8,9
 87 712 87 712 99 702 c 128,-1,10
 111 692 111 692 119 672 c 2,11,-1
 370 88 l 1,12,-1
 333 88 l 1,13,-1
 510 519 l 2,14,15
 537 585 537 585 567 626.5 c 128,-1,16
 597 668 597 668 636 689 c 128,-1,17
 675 710 675 710 731 713 c 0,18,19
 751 714 751 714 763.5 706.5 c 128,-1,20
 776 699 776 699 780.5 686.5 c 128,-1,21
 785 674 785 674 781.5 661 c 128,-1,22
 778 648 778 648 768.5 638.5 c 128,-1,23
 759 629 759 629 742 626 c 0,24,25
 708 623 708 623 683.5 607.5 c 128,-1,26
 659 592 659 592 639.5 562.5 c 128,-1,27
 620 533 620 533 599 484 c 2,28,-1
 409 35 l 2,29,30
 401 14 401 14 387 3.5 c 128,-1,31
 373 -7 373 -7 350 -7 c 0,0,1
EndSplineSet
EndChar

StartChar: uni0496
Encoding: 1174 1174 588
Width: 1001
GlyphClass: 1
Flags: W
LayerCount: 2
Fore
SplineSet
985 -168 m 256,0,1
 963 -168 963 -168 951 -155.5 c 128,-1,2
 939 -143 939 -143 939 -120 c 2,3,-1
 939 47 l 1,4,-1
 986 0 l 1,5,-1
 907 0 l 2,6,7
 893 0 893 0 878 7.5 c 128,-1,8
 863 15 863 15 855 32 c 2,9,-1
 773 205 l 2,10,11
 746 262 746 262 710.5 286.5 c 128,-1,12
 675 311 675 311 622 311 c 2,13,-1
 545 311 l 1,14,-1
 545 46 l 2,15,16
 545 21 545 21 532 7 c 128,-1,17
 519 -7 519 -7 495 -7 c 256,18,19
 471 -7 471 -7 458 7 c 128,-1,20
 445 21 445 21 445 46 c 2,21,-1
 445 311 l 1,22,-1
 368 311 l 2,23,24
 314 311 314 311 278 286 c 128,-1,25
 242 261 242 261 215 205 c 2,26,-1
 131 26 l 2,27,28
 122 7 122 7 107 -0.5 c 128,-1,29
 92 -8 92 -8 76.5 -6.5 c 128,-1,30
 61 -5 61 -5 48.5 4.5 c 128,-1,31
 36 14 36 14 32 30 c 128,-1,32
 28 46 28 46 39 65 c 2,33,-1
 128 248 l 2,34,35
 159 313 159 313 204.5 349.5 c 128,-1,36
 250 386 250 386 311 394 c 1,37,-1
 272 363 l 1,38,-1
 89 638 l 2,39,40
 78 656 78 656 79.5 671 c 128,-1,41
 81 686 81 686 91.5 696.5 c 128,-1,42
 102 707 102 707 116.5 710.5 c 128,-1,43
 131 714 131 714 146.5 708 c 128,-1,44
 162 702 162 702 172 685 c 2,45,-1
 369 381 l 1,46,-1
 346 398 l 1,47,-1
 445 398 l 1,48,-1
 445 660 l 2,49,50
 445 686 445 686 458 699 c 128,-1,51
 471 712 471 712 495 712 c 256,52,53
 519 712 519 712 532 699 c 128,-1,54
 545 686 545 686 545 660 c 2,55,-1
 545 398 l 1,56,-1
 645 398 l 1,57,-1
 621 381 l 1,58,-1
 818 685 l 2,59,60
 829 702 829 702 844 708 c 128,-1,61
 859 714 859 714 873.5 710.5 c 128,-1,62
 888 707 888 707 898.5 696.5 c 128,-1,63
 909 686 909 686 910.5 671 c 128,-1,64
 912 656 912 656 900 638 c 2,65,-1
 718 363 l 1,66,-1
 678 394 l 1,67,68
 720 389 720 389 753 370.5 c 128,-1,69
 786 352 786 352 813 321.5 c 128,-1,70
 840 291 840 291 861 248 c 2,71,-1
 961 43 l 1,72,-1
 920 84 l 1,73,-1
 981 84 l 2,74,75
 1005 84 1005 84 1018.5 71.5 c 128,-1,76
 1032 59 1032 59 1032 35 c 2,77,-1
 1032 -120 l 2,78,79
 1032 -143 1032 -143 1019.5 -155.5 c 128,-1,80
 1007 -168 1007 -168 985 -168 c 256,0,1
EndSplineSet
EndChar

StartChar: uni0498
Encoding: 1176 1176 589
Width: 638
GlyphClass: 2
Flags: W
AnchorPoint: "Anchor-2" 316 0 basechar 0
AnchorPoint: "Anchor-0" 311 705 basechar 0
LayerCount: 2
Fore
SplineSet
315 -168 m 0,0,1
 293 -168 293 -168 281 -155 c 128,-1,2
 269 -142 269 -142 269 -118 c 2,3,-1
 269 47 l 1,4,-1
 362 47 l 1,5,-1
 362 -118 l 2,6,7
 362 -142 362 -142 350 -155 c 128,-1,8
 338 -168 338 -168 315 -168 c 0,0,1
308 -9 m 0,9,10
 232 -9 232 -9 168 9 c 128,-1,11
 104 27 104 27 58 61 c 0,12,13
 43 71 43 71 38 85 c 128,-1,14
 33 99 33 99 36 112 c 128,-1,15
 39 125 39 125 48.5 133.5 c 128,-1,16
 58 142 58 142 72 143.5 c 128,-1,17
 86 145 86 145 102 135 c 0,18,19
 130 116 130 116 161 104 c 128,-1,20
 192 92 192 92 227 86 c 128,-1,21
 262 80 262 80 301 80 c 0,22,23
 362 80 362 80 401 93.5 c 128,-1,24
 440 107 440 107 458.5 134 c 128,-1,25
 477 161 477 161 477 202 c 0,26,27
 477 260 477 260 441 288 c 128,-1,28
 405 316 405 316 330 316 c 2,29,-1
 196 316 l 2,30,31
 174 316 174 316 162.5 326.5 c 128,-1,32
 151 337 151 337 151 358 c 0,33,34
 151 377 151 377 162.5 388 c 128,-1,35
 174 399 174 399 196 399 c 2,36,-1
 314 399 l 2,37,38
 387 399 387 399 423.5 427 c 128,-1,39
 460 455 460 455 460 510 c 0,40,41
 460 545 460 545 442.5 571.5 c 128,-1,42
 425 598 425 598 390 612 c 128,-1,43
 355 626 355 626 302 626 c 0,44,45
 254 626 254 626 207 613 c 128,-1,46
 160 600 160 600 121 575 c 0,47,48
 104 565 104 565 90 566.5 c 128,-1,49
 76 568 76 568 67.5 577 c 128,-1,50
 59 586 59 586 56 599.5 c 128,-1,51
 53 613 53 613 58.5 626 c 128,-1,52
 64 639 64 639 79 649 c 0,53,54
 127 682 127 682 187.5 698 c 128,-1,55
 248 714 248 714 312 714 c 0,56,57
 396 714 396 714 451.5 690 c 128,-1,58
 507 666 507 666 535 622.5 c 128,-1,59
 563 579 563 579 563 521 c 0,60,61
 563 457 563 457 525 413 c 128,-1,62
 487 369 487 369 422 354 c 1,63,-1
 422 369 l 1,64,65
 496 359 496 359 538 313.5 c 128,-1,66
 580 268 580 268 580 195 c 0,67,68
 580 133 580 133 550.5 86.5 c 128,-1,69
 521 40 521 40 461 15.5 c 128,-1,70
 401 -9 401 -9 308 -9 c 0,9,10
EndSplineSet
Substitution2: "'locl' Localized Forms in Cyrillic lookup 17 subtable" uni0498.loclCHU
Substitution2: "'locl' Localized Forms in Cyrillic lookup 16 subtable" uni0498.loclBSH
AlternateSubs2: "'aalt' Access All Alternates lookup 1 subtable" uni0498.loclBSH uni0498.loclCHU
EndChar

StartChar: uni049A
Encoding: 1178 1178 590
Width: 668
GlyphClass: 1
Flags: W
LayerCount: 2
Fore
SplineSet
652 -168 m 0,0,1
 630 -168 630 -168 618 -155.5 c 128,-1,2
 606 -143 606 -143 606 -120 c 2,3,-1
 606 20 l 1,4,-1
 623 0 l 1,5,-1
 575 0 l 2,6,7
 561 0 561 0 546 7 c 128,-1,8
 531 14 531 14 523 31 c 2,9,-1
 441 205 l 2,10,11
 414 262 414 262 378 286.5 c 128,-1,12
 342 311 342 311 289 311 c 2,13,-1
 186 311 l 1,14,-1
 186 46 l 2,15,16
 186 21 186 21 173 7 c 128,-1,17
 160 -7 160 -7 134 -7 c 0,18,19
 109 -7 109 -7 95.5 7 c 128,-1,20
 82 21 82 21 82 46 c 2,21,-1
 82 660 l 2,22,23
 82 686 82 686 95.5 699 c 128,-1,24
 109 712 109 712 134 712 c 256,25,26
 159 712 159 712 172.5 699 c 128,-1,27
 186 686 186 686 186 660 c 2,28,-1
 186 398 l 1,29,-1
 312 398 l 1,30,-1
 288 381 l 1,31,-1
 485 685 l 2,32,33
 496 702 496 702 511 708 c 128,-1,34
 526 714 526 714 540.5 710.5 c 128,-1,35
 555 707 555 707 566 696.5 c 128,-1,36
 577 686 577 686 578 671 c 128,-1,37
 579 656 579 656 568 638 c 2,38,-1
 385 363 l 1,39,-1
 346 394 l 1,40,41
 408 386 408 386 452 349 c 128,-1,42
 496 312 496 312 528 248 c 2,43,-1
 628 43 l 1,44,-1
 585 84 l 1,45,-1
 648 84 l 2,46,47
 672 84 672 84 685.5 71.5 c 128,-1,48
 699 59 699 59 699 35 c 2,49,-1
 699 -120 l 2,50,51
 699 -143 699 -143 687 -155.5 c 128,-1,52
 675 -168 675 -168 652 -168 c 0,0,1
EndSplineSet
EndChar

StartChar: uni049C
Encoding: 1180 1180 591
Width: 697
GlyphClass: 1
Flags: W
LayerCount: 2
Fore
SplineSet
134 -7 m 0,0,1
 109 -7 109 -7 95.5 7 c 128,-1,2
 82 21 82 21 82 46 c 2,3,-1
 82 660 l 2,4,5
 82 686 82 686 95.5 699 c 128,-1,6
 109 712 109 712 134 712 c 256,7,8
 159 712 159 712 172.5 699 c 128,-1,9
 186 686 186 686 186 660 c 2,10,-1
 186 397 l 1,11,-1
 250 397 l 1,12,-1
 250 529 l 2,13,14
 250 570 250 570 288 570 c 0,15,16
 306 570 306 570 316 559.5 c 128,-1,17
 326 549 326 549 326 529 c 2,18,-1
 326 397 l 1,19,-1
 347 397 l 1,20,-1
 332 388 l 1,21,-1
 525 685 l 2,22,23
 536 702 536 702 551 708 c 128,-1,24
 566 714 566 714 581 710.5 c 128,-1,25
 596 707 596 707 606 696.5 c 128,-1,26
 616 686 616 686 617.5 671 c 128,-1,27
 619 656 619 656 608 638 c 2,28,-1
 425 363 l 1,29,-1
 385 394 l 1,30,31
 427 389 427 389 460 371.5 c 128,-1,32
 493 354 493 354 520 323 c 128,-1,33
 547 292 547 292 569 248 c 2,34,-1
 658 65 l 2,35,36
 668 45 668 45 664.5 29.5 c 128,-1,37
 661 14 661 14 648.5 4.5 c 128,-1,38
 636 -5 636 -5 620 -6.5 c 128,-1,39
 604 -8 604 -8 589.5 -0.5 c 128,-1,40
 575 7 575 7 566 26 c 2,41,-1
 480 205 l 2,42,43
 454 262 454 262 418 287 c 128,-1,44
 382 312 382 312 329 312 c 2,45,-1
 305 312 l 1,46,-1
 326 321 l 1,47,-1
 326 183 l 2,48,49
 326 142 326 142 288 142 c 256,50,51
 250 142 250 142 250 183 c 2,52,-1
 250 312 l 1,53,-1
 186 312 l 1,54,-1
 186 46 l 2,55,56
 186 21 186 21 173 7 c 128,-1,57
 160 -7 160 -7 134 -7 c 0,0,1
EndSplineSet
EndChar

StartChar: uni049E
Encoding: 1182 1182 592
Width: 702
GlyphClass: 1
Flags: W
LayerCount: 2
Fore
SplineSet
180 -7 m 0,0,1
 155 -7 155 -7 141.5 7 c 128,-1,2
 128 21 128 21 128 46 c 2,3,-1
 128 533 l 1,4,-1
 22 533 l 2,5,6
 2 533 2 533 -9 543.5 c 128,-1,7
 -20 554 -20 554 -20 572 c 0,8,9
 -20 591 -20 591 -9 600.5 c 128,-1,10
 2 610 2 610 22 610 c 2,11,-1
 141 610 l 1,12,-1
 128 572 l 1,13,-1
 128 660 l 2,14,15
 128 686 128 686 141.5 699 c 128,-1,16
 155 712 155 712 180 712 c 256,17,18
 205 712 205 712 218.5 699 c 128,-1,19
 232 686 232 686 232 660 c 2,20,-1
 232 572 l 1,21,-1
 219 610 l 1,22,-1
 338 610 l 2,23,24
 358 610 358 610 368.5 600.5 c 128,-1,25
 379 591 379 591 379 572 c 0,26,27
 379 554 379 554 368.5 543.5 c 128,-1,28
 358 533 358 533 338 533 c 2,29,-1
 232 533 l 1,30,-1
 232 398 l 1,31,-1
 366 398 l 1,32,-1
 337 374 l 1,33,-1
 542 685 l 2,34,35
 554 703 554 703 569.5 709 c 128,-1,36
 585 715 585 715 599.5 711 c 128,-1,37
 614 707 614 707 623.5 696 c 128,-1,38
 633 685 633 685 634.5 670.5 c 128,-1,39
 636 656 636 656 625 638 c 2,40,-1
 434 355 l 1,41,-1
 385 394 l 1,42,43
 427 389 427 389 460 371.5 c 128,-1,44
 493 354 493 354 519.5 323 c 128,-1,45
 546 292 546 292 568 248 c 2,46,-1
 657 65 l 2,47,48
 667 46 667 46 663.5 30 c 128,-1,49
 660 14 660 14 647.5 4.5 c 128,-1,50
 635 -5 635 -5 619 -6.5 c 128,-1,51
 603 -8 603 -8 588.5 -0.5 c 128,-1,52
 574 7 574 7 565 26 c 2,53,-1
 480 205 l 2,54,55
 453 262 453 262 417.5 286.5 c 128,-1,56
 382 311 382 311 329 311 c 2,57,-1
 232 311 l 1,58,-1
 232 46 l 2,59,60
 232 21 232 21 219 7 c 128,-1,61
 206 -7 206 -7 180 -7 c 0,0,1
EndSplineSet
EndChar

StartChar: uni04A0
Encoding: 1184 1184 593
Width: 788
GlyphClass: 1
Flags: W
LayerCount: 2
Fore
SplineSet
266 -7 m 0,0,1
 241 -7 241 -7 227.5 7 c 128,-1,2
 214 21 214 21 214 46 c 2,3,-1
 214 619 l 1,4,-1
 43 619 l 2,5,6
 21 619 21 619 9 630 c 128,-1,7
 -3 641 -3 641 -3 662 c 256,8,9
 -3 683 -3 683 9 694 c 128,-1,10
 21 705 21 705 43 705 c 2,11,-1
 266 705 l 2,12,13
 291 705 291 705 304.5 691.5 c 128,-1,14
 318 678 318 678 318 652 c 2,15,-1
 318 398 l 1,16,-1
 444 398 l 1,17,-1
 420 381 l 1,18,-1
 617 685 l 2,19,20
 628 702 628 702 643 708 c 128,-1,21
 658 714 658 714 672.5 710.5 c 128,-1,22
 687 707 687 707 698 696.5 c 128,-1,23
 709 686 709 686 710 671 c 128,-1,24
 711 656 711 656 700 638 c 2,25,-1
 517 363 l 1,26,-1
 478 394 l 1,27,28
 540 386 540 386 584 349 c 128,-1,29
 628 312 628 312 660 248 c 2,30,-1
 749 65 l 2,31,32
 760 46 760 46 756 30 c 128,-1,33
 752 14 752 14 739.5 4.5 c 128,-1,34
 727 -5 727 -5 711.5 -6.5 c 128,-1,35
 696 -8 696 -8 681 -0.5 c 128,-1,36
 666 7 666 7 657 26 c 2,37,-1
 573 205 l 2,38,39
 546 262 546 262 510 286.5 c 128,-1,40
 474 311 474 311 421 311 c 2,41,-1
 318 311 l 1,42,-1
 318 46 l 2,43,44
 318 21 318 21 305 7 c 128,-1,45
 292 -7 292 -7 266 -7 c 0,0,1
EndSplineSet
EndChar

StartChar: uni04A2
Encoding: 1186 1186 594
Width: 808
GlyphClass: 1
Flags: W
LayerCount: 2
Fore
SplineSet
739 -168 m 0,0,1
 716 -168 716 -168 704 -155.5 c 128,-1,2
 692 -143 692 -143 692 -120 c 2,3,-1
 692 0 l 1,4,-1
 633 0 l 2,5,6
 608 0 608 0 594.5 13.5 c 128,-1,7
 581 27 581 27 581 53 c 2,8,-1
 581 314 l 1,9,-1
 186 314 l 1,10,-1
 186 46 l 2,11,12
 186 21 186 21 173 7 c 128,-1,13
 160 -7 160 -7 134 -7 c 0,14,15
 109 -7 109 -7 95.5 7 c 128,-1,16
 82 21 82 21 82 46 c 2,17,-1
 82 659 l 2,18,19
 82 685 82 685 95.5 698.5 c 128,-1,20
 109 712 109 712 134 712 c 256,21,22
 159 712 159 712 172.5 698.5 c 128,-1,23
 186 685 186 685 186 659 c 2,24,-1
 186 401 l 1,25,-1
 581 401 l 1,26,-1
 581 659 l 2,27,28
 581 685 581 685 594.5 698.5 c 128,-1,29
 608 712 608 712 633 712 c 256,30,31
 658 712 658 712 671 698.5 c 128,-1,32
 684 685 684 685 684 659 c 2,33,-1
 684 38 l 1,34,-1
 637 84 l 1,35,-1
 734 84 l 2,36,37
 758 84 758 84 771 71.5 c 128,-1,38
 784 59 784 59 784 35 c 2,39,-1
 784 -120 l 2,40,41
 784 -143 784 -143 772.5 -155.5 c 128,-1,42
 761 -168 761 -168 739 -168 c 0,0,1
EndSplineSet
EndChar

StartChar: uni04A4
Encoding: 1188 1188 595
Width: 938
GlyphClass: 1
Flags: W
LayerCount: 2
Fore
SplineSet
134 -7 m 0,0,1
 109 -7 109 -7 95.5 7 c 128,-1,2
 82 21 82 21 82 46 c 2,3,-1
 82 659 l 2,4,5
 82 685 82 685 95.5 698.5 c 128,-1,6
 109 712 109 712 134 712 c 256,7,8
 159 712 159 712 172.5 698.5 c 128,-1,9
 186 685 186 685 186 659 c 2,10,-1
 186 401 l 1,11,-1
 581 401 l 1,12,-1
 581 652 l 2,13,14
 581 678 581 678 595 691.5 c 128,-1,15
 609 705 609 705 634 705 c 2,16,-1
 896 705 l 2,17,18
 918 705 918 705 929.5 694 c 128,-1,19
 941 683 941 683 941 662 c 256,20,21
 941 641 941 641 929.5 629.5 c 128,-1,22
 918 618 918 618 896 618 c 2,23,-1
 684 618 l 1,24,-1
 684 46 l 2,25,26
 684 21 684 21 671 7 c 128,-1,27
 658 -7 658 -7 633 -7 c 256,28,29
 608 -7 608 -7 594.5 7 c 128,-1,30
 581 21 581 21 581 46 c 2,31,-1
 581 314 l 1,32,-1
 186 314 l 1,33,-1
 186 46 l 2,34,35
 186 21 186 21 173 7 c 128,-1,36
 160 -7 160 -7 134 -7 c 0,0,1
EndSplineSet
EndChar

StartChar: uni0524
Encoding: 1316 1316 596
Width: 802
GlyphClass: 1
Flags: W
LayerCount: 2
Fore
SplineSet
733 -168 m 0,0,1
 710 -168 710 -168 698 -155.5 c 128,-1,2
 686 -143 686 -143 686 -120 c 2,3,-1
 686 0 l 1,4,-1
 627 0 l 2,5,6
 602 0 602 0 588.5 13.5 c 128,-1,7
 575 27 575 27 575 53 c 2,8,-1
 575 618 l 1,9,-1
 186 618 l 1,10,-1
 186 46 l 2,11,12
 186 21 186 21 173 7 c 128,-1,13
 160 -7 160 -7 134 -7 c 0,14,15
 109 -7 109 -7 95.5 7 c 128,-1,16
 82 21 82 21 82 46 c 2,17,-1
 82 649 l 2,18,19
 82 676 82 676 96.5 690.5 c 128,-1,20
 111 705 111 705 138 705 c 2,21,-1
 623 705 l 2,22,23
 650 705 650 705 664 690.5 c 128,-1,24
 678 676 678 676 678 649 c 2,25,-1
 678 38 l 1,26,-1
 632 84 l 1,27,-1
 729 84 l 2,28,29
 753 84 753 84 765.5 71.5 c 128,-1,30
 778 59 778 59 778 35 c 2,31,-1
 778 -120 l 2,32,33
 778 -143 778 -143 766.5 -155.5 c 128,-1,34
 755 -168 755 -168 733 -168 c 0,0,1
EndSplineSet
EndChar

StartChar: uni04A8
Encoding: 1192 1192 597
Width: 825
GlyphClass: 1
Flags: W
LayerCount: 2
Fore
SplineSet
386 -9 m 0,0,1
 285 -9 285 -9 211 35 c 128,-1,2
 137 79 137 79 97.5 159.5 c 128,-1,3
 58 240 58 240 58 349 c 0,4,5
 58 436 58 436 81 503.5 c 128,-1,6
 104 571 104 571 147 618 c 128,-1,7
 190 665 190 665 250.5 689.5 c 128,-1,8
 311 714 311 714 387 714 c 0,9,10
 395 714 395 714 403 714 c 128,-1,11
 411 714 411 714 420 713 c 0,12,13
 443 711 443 711 453 698.5 c 128,-1,14
 463 686 463 686 462 667 c 0,15,16
 462 652 462 652 454 642.5 c 128,-1,17
 446 633 446 633 435 629 c 128,-1,18
 424 625 424 625 413 626 c 0,19,20
 404 626 404 626 393 626.5 c 128,-1,21
 382 627 382 627 374 626 c 0,22,23
 307 622 307 622 260 589 c 128,-1,24
 213 556 213 556 189 496.5 c 128,-1,25
 165 437 165 437 165 353 c 0,26,27
 165 262 165 262 191.5 200 c 128,-1,28
 218 138 218 138 269 106 c 128,-1,29
 320 74 320 74 395 74 c 0,30,31
 454 74 454 74 499.5 90.5 c 128,-1,32
 545 107 545 107 577 139 c 128,-1,33
 609 171 609 171 625.5 217 c 128,-1,34
 642 263 642 263 642 321 c 0,35,36
 642 396 642 396 615 433.5 c 128,-1,37
 588 471 588 471 539 471 c 0,38,39
 508 471 508 471 485.5 454 c 128,-1,40
 463 437 463 437 450.5 404 c 128,-1,41
 438 371 438 371 438 321 c 0,42,43
 438 242 438 242 466.5 187 c 128,-1,44
 495 132 495 132 550 103 c 128,-1,45
 605 74 605 74 685 74 c 0,46,47
 712 74 712 74 737.5 78.5 c 128,-1,48
 763 83 763 83 785 91 c 0,49,50
 802 98 802 98 814 94 c 128,-1,51
 826 90 826 90 833 79 c 128,-1,52
 840 68 840 68 840 55 c 128,-1,53
 840 42 840 42 833.5 30.5 c 128,-1,54
 827 19 827 19 812 12 c 0,55,56
 785 1 785 1 752.5 -4 c 128,-1,57
 720 -9 720 -9 682 -9 c 0,58,59
 610 -9 610 -9 548 14.5 c 128,-1,60
 486 38 486 38 439 82 c 128,-1,61
 392 126 392 126 365.5 187 c 128,-1,62
 339 248 339 248 339 323 c 0,63,64
 339 393 339 393 362.5 445 c 128,-1,65
 386 497 386 497 430.5 526.5 c 128,-1,66
 475 556 475 556 539 556 c 0,67,68
 604 556 604 556 648.5 526.5 c 128,-1,69
 693 497 693 497 717 445 c 128,-1,70
 741 393 741 393 741 323 c 0,71,72
 741 247 741 247 714 185.5 c 128,-1,73
 687 124 687 124 638.5 80.5 c 128,-1,74
 590 37 590 37 525.5 14 c 128,-1,75
 461 -9 461 -9 386 -9 c 0,0,1
EndSplineSet
EndChar

StartChar: uni04AA
Encoding: 1194 1194 598
Width: 676
GlyphClass: 2
Flags: W
AnchorPoint: "Anchor-2" 390 0 basechar 0
AnchorPoint: "Anchor-0" 389 705 basechar 0
LayerCount: 2
Fore
SplineSet
383 -168 m 256,0,1
 360 -168 360 -168 348.5 -155 c 128,-1,2
 337 -142 337 -142 337 -118 c 2,3,-1
 337 47 l 1,4,-1
 429 47 l 1,5,-1
 429 -118 l 2,6,7
 429 -142 429 -142 417.5 -155 c 128,-1,8
 406 -168 406 -168 383 -168 c 256,0,1
398 -9 m 0,9,10
 291 -9 291 -9 215 35 c 128,-1,11
 139 79 139 79 98.5 160.5 c 128,-1,12
 58 242 58 242 58 353 c 0,13,14
 58 436 58 436 81 502.5 c 128,-1,15
 104 569 104 569 147.5 616.5 c 128,-1,16
 191 664 191 664 254.5 689 c 128,-1,17
 318 714 318 714 398 714 c 0,18,19
 457 714 457 714 511.5 698 c 128,-1,20
 566 682 566 682 606 652 c 0,21,22
 623 641 623 641 628.5 625.5 c 128,-1,23
 634 610 634 610 630.5 596 c 128,-1,24
 627 582 627 582 617 572.5 c 128,-1,25
 607 563 607 563 591.5 562 c 128,-1,26
 576 561 576 561 558 573 c 0,27,28
 525 598 525 598 485 610 c 128,-1,29
 445 622 445 622 401 622 c 0,30,31
 325 622 325 622 273 590.5 c 128,-1,32
 221 559 221 559 194 499 c 128,-1,33
 167 439 167 439 167 353 c 256,34,35
 167 267 167 267 194 206.5 c 128,-1,36
 221 146 221 146 273 114.5 c 128,-1,37
 325 83 325 83 401 83 c 0,38,39
 445 83 445 83 485.5 95.5 c 128,-1,40
 526 108 526 108 562 133 c 0,41,42
 580 144 580 144 594.5 143 c 128,-1,43
 609 142 609 142 619 133 c 128,-1,44
 629 124 629 124 632.5 110.5 c 128,-1,45
 636 97 636 97 631.5 82.5 c 128,-1,46
 627 68 627 68 612 58 c 0,47,48
 571 25 571 25 515 8 c 128,-1,49
 459 -9 459 -9 398 -9 c 0,9,10
EndSplineSet
Substitution2: "'locl' Localized Forms in Cyrillic lookup 17 subtable" uni04AA.loclCHU
Substitution2: "'locl' Localized Forms in Cyrillic lookup 16 subtable" uni04AA.loclBSH
AlternateSubs2: "'aalt' Access All Alternates lookup 1 subtable" uni04AA.loclBSH uni04AA.loclCHU
EndChar

StartChar: uni04AC
Encoding: 1196 1196 599
Width: 589
GlyphClass: 1
Flags: W
LayerCount: 2
Fore
SplineSet
400 -168 m 0,0,1
 377 -168 377 -168 365 -155.5 c 128,-1,2
 353 -143 353 -143 353 -120 c 2,3,-1
 353 0 l 1,4,-1
 298 0 l 2,5,6
 271 0 271 0 257 14.5 c 128,-1,7
 243 29 243 29 243 56 c 2,8,-1
 243 618 l 1,9,-1
 38 618 l 2,10,11
 16 618 16 618 4 629.5 c 128,-1,12
 -8 641 -8 641 -8 662 c 256,13,14
 -8 683 -8 683 4 694 c 128,-1,15
 16 705 16 705 38 705 c 2,16,-1
 558 705 l 2,17,18
 580 705 580 705 591.5 694 c 128,-1,19
 603 683 603 683 603 662 c 256,20,21
 603 641 603 641 591.5 629.5 c 128,-1,22
 580 618 580 618 558 618 c 2,23,-1
 346 618 l 1,24,-1
 346 41 l 1,25,-1
 300 84 l 1,26,-1
 397 84 l 2,27,28
 421 84 421 84 433.5 73 c 128,-1,29
 446 62 446 62 446 37 c 2,30,-1
 446 -120 l 2,31,32
 446 -168 446 -168 400 -168 c 0,0,1
EndSplineSet
EndChar

StartChar: uni04B2
Encoding: 1202 1202 602
Width: 672
GlyphClass: 1
Flags: W
LayerCount: 2
Fore
SplineSet
641 -168 m 0,0,1
 618 -168 618 -168 606.5 -155.5 c 128,-1,2
 595 -143 595 -143 595 -120 c 2,3,-1
 595 17 l 1,4,-1
 611 0 l 1,5,-1
 572 0 l 2,6,7
 557 0 557 0 543.5 4.5 c 128,-1,8
 530 9 530 9 516 28 c 2,9,-1
 311 308 l 1,10,-1
 349 308 l 1,11,-1
 144 26 l 2,12,13
 131 9 131 9 117.5 1 c 128,-1,14
 104 -7 104 -7 88 -7 c 0,15,16
 68 -7 68 -7 55 3.5 c 128,-1,17
 42 14 42 14 40 30.5 c 128,-1,18
 38 47 38 47 51 64 c 2,19,-1
 287 381 l 1,20,-1
 287 339 l 1,21,-1
 64 639 l 2,22,23
 51 657 51 657 52.5 674 c 128,-1,24
 54 691 54 691 67 701.5 c 128,-1,25
 80 712 80 712 99 712 c 0,26,27
 115 712 115 712 127.5 705 c 128,-1,28
 140 698 140 698 153 680 c 2,29,-1
 347 413 l 1,30,-1
 315 413 l 1,31,-1
 507 679 l 2,32,33
 520 697 520 697 532.5 704.5 c 128,-1,34
 545 712 545 712 562 712 c 0,35,36
 582 712 582 712 595 701.5 c 128,-1,37
 608 691 608 691 609.5 674.5 c 128,-1,38
 611 658 611 658 597 639 c 2,39,-1
 374 339 l 1,40,-1
 374 381 l 1,41,-1
 622 47 l 1,42,-1
 569 84 l 1,43,-1
 637 84 l 2,44,45
 661 84 661 84 674 71.5 c 128,-1,46
 687 59 687 59 687 35 c 2,47,-1
 687 -120 l 2,48,49
 687 -143 687 -143 675 -155.5 c 128,-1,50
 663 -168 663 -168 641 -168 c 0,0,1
EndSplineSet
EndChar

StartChar: uni04B4
Encoding: 1204 1204 603
Width: 933
GlyphClass: 1
Flags: W
LayerCount: 2
Fore
SplineSet
864 -168 m 0,0,1
 841 -168 841 -168 829 -155.5 c 128,-1,2
 817 -143 817 -143 817 -120 c 2,3,-1
 817 0 l 1,4,-1
 268 0 l 2,5,6
 242 0 242 0 227.5 14.5 c 128,-1,7
 213 29 213 29 213 56 c 2,8,-1
 213 618 l 1,9,-1
 41 618 l 2,10,11
 19 618 19 618 7 630 c 128,-1,12
 -5 642 -5 642 -5 662 c 0,13,14
 -5 683 -5 683 7 694 c 128,-1,15
 19 705 19 705 41 705 c 2,16,-1
 487 705 l 2,17,18
 510 705 510 705 521.5 694 c 128,-1,19
 533 683 533 683 533 662 c 256,20,21
 533 641 533 641 521.5 629.5 c 128,-1,22
 510 618 510 618 487 618 c 2,23,-1
 316 618 l 1,24,-1
 316 88 l 1,25,-1
 706 88 l 1,26,-1
 706 657 l 2,27,28
 706 683 706 683 719.5 696.5 c 128,-1,29
 733 710 733 710 758 710 c 256,30,31
 783 710 783 710 796.5 696.5 c 128,-1,32
 810 683 810 683 810 657 c 2,33,-1
 810 41 l 1,34,-1
 763 88 l 1,35,-1
 860 88 l 2,36,37
 884 88 884 88 897 75.5 c 128,-1,38
 910 63 910 63 910 38 c 2,39,-1
 910 -120 l 2,40,41
 910 -168 910 -168 864 -168 c 0,0,1
EndSplineSet
EndChar

StartChar: uni04B6
Encoding: 1206 1206 604
Width: 727
GlyphClass: 1
Flags: W
LayerCount: 2
Fore
SplineSet
500 287 m 1,0,1
 471 272 471 272 425.5 263.5 c 128,-1,2
 380 255 380 255 335 255 c 0,3,4
 246 255 246 255 183 287.5 c 128,-1,5
 120 320 120 320 88 385 c 128,-1,6
 56 450 56 450 56 547 c 2,7,-1
 56 659 l 2,8,9
 56 685 56 685 69 698.5 c 128,-1,10
 82 712 82 712 107 712 c 256,11,12
 132 712 132 712 145.5 698.5 c 128,-1,13
 159 685 159 685 159 659 c 2,14,-1
 159 553 l 2,15,16
 159 445 159 445 206 395 c 128,-1,17
 253 345 253 345 345 345 c 0,18,19
 386 345 386 345 426 353 c 128,-1,20
 466 361 466 361 500 380 c 1,21,-1
 500 659 l 2,22,23
 500 685 500 685 513 698.5 c 128,-1,24
 526 712 526 712 551 712 c 256,25,26
 576 712 576 712 589.5 698.5 c 128,-1,27
 603 685 603 685 603 659 c 2,28,-1
 603 38 l 1,29,-1
 556 84 l 1,30,-1
 653 84 l 2,31,32
 677 84 677 84 690 71.5 c 128,-1,33
 703 59 703 59 703 35 c 2,34,-1
 703 -120 l 2,35,36
 703 -143 703 -143 691 -155.5 c 128,-1,37
 679 -168 679 -168 657 -168 c 256,38,39
 635 -168 635 -168 622.5 -155.5 c 128,-1,40
 610 -143 610 -143 610 -120 c 2,41,-1
 610 0 l 1,42,-1
 551 0 l 2,43,44
 526 0 526 0 513 13.5 c 128,-1,45
 500 27 500 27 500 53 c 2,46,-1
 500 287 l 1,0,1
EndSplineSet
EndChar

StartChar: uni04B8
Encoding: 1208 1208 605
Width: 685
GlyphClass: 1
Flags: W
LayerCount: 2
Fore
SplineSet
551 -7 m 0,0,1
 526 -7 526 -7 513 7 c 128,-1,2
 500 21 500 21 500 46 c 2,3,-1
 500 287 l 1,4,5
 471 272 471 272 430.5 264 c 128,-1,6
 390 256 390 256 351 255 c 1,7,-1
 374 270 l 1,8,-1
 374 143 l 2,9,10
 374 101 374 101 336 101 c 0,11,12
 318 101 318 101 308 111.5 c 128,-1,13
 298 122 298 122 298 143 c 2,14,-1
 298 270 l 1,15,-1
 318 255 l 1,16,17
 235 259 235 259 176.5 291 c 128,-1,18
 118 323 118 323 87 386.5 c 128,-1,19
 56 450 56 450 56 547 c 2,20,-1
 56 659 l 2,21,22
 56 685 56 685 69 698.5 c 128,-1,23
 82 712 82 712 107 712 c 256,24,25
 132 712 132 712 145.5 698.5 c 128,-1,26
 159 685 159 685 159 659 c 2,27,-1
 159 553 l 2,28,29
 159 450 159 450 202 400 c 128,-1,30
 245 350 245 350 325 345 c 1,31,-1
 298 335 l 1,32,-1
 298 481 l 2,33,34
 298 522 298 522 336 522 c 0,35,36
 354 522 354 522 364 512 c 128,-1,37
 374 502 374 502 374 481 c 2,38,-1
 374 335 l 1,39,-1
 347 345 l 1,40,41
 386 345 386 345 427 353 c 128,-1,42
 468 361 468 361 500 380 c 1,43,-1
 500 659 l 2,44,45
 500 685 500 685 513 698.5 c 128,-1,46
 526 712 526 712 551 712 c 256,47,48
 576 712 576 712 589.5 698.5 c 128,-1,49
 603 685 603 685 603 659 c 2,50,-1
 603 46 l 2,51,52
 603 21 603 21 590 7 c 128,-1,53
 577 -7 577 -7 551 -7 c 0,0,1
EndSplineSet
EndChar

StartChar: uni04BA
Encoding: 1210 1210 606
Width: 685
GlyphClass: 2
Flags: W
LayerCount: 2
Fore
SplineSet
134 -7 m 256,0,1
 109 -7 109 -7 95.5 7 c 128,-1,2
 82 21 82 21 82 46 c 2,3,-1
 82 659 l 2,4,5
 82 685 82 685 95.5 698.5 c 128,-1,6
 109 712 109 712 134 712 c 256,7,8
 159 712 159 712 172.5 698.5 c 128,-1,9
 186 685 186 685 186 659 c 2,10,-1
 186 418 l 1,11,12
 215 434 215 434 259.5 442 c 128,-1,13
 304 450 304 450 349 450 c 0,14,15
 440 450 440 450 502.5 418 c 128,-1,16
 565 386 565 386 597.5 321 c 128,-1,17
 630 256 630 256 630 158 c 2,18,-1
 630 46 l 2,19,20
 630 21 630 21 616 7 c 128,-1,21
 602 -7 602 -7 578 -7 c 0,22,23
 553 -7 553 -7 540 7 c 128,-1,24
 527 21 527 21 527 46 c 2,25,-1
 527 152 l 2,26,27
 527 262 527 262 479.5 311 c 128,-1,28
 432 360 432 360 339 360 c 0,29,30
 299 360 299 360 259.5 352.5 c 128,-1,31
 220 345 220 345 186 325 c 1,32,-1
 186 46 l 2,33,34
 186 21 186 21 172.5 7 c 128,-1,35
 159 -7 159 -7 134 -7 c 256,0,1
EndSplineSet
EndChar

StartChar: uni0526
Encoding: 1318 1318 607
Width: 727
GlyphClass: 1
Flags: W
LayerCount: 2
Fore
SplineSet
527 152 m 2,0,1
 527 262 527 262 479.5 311 c 128,-1,2
 432 360 432 360 339 360 c 0,3,4
 299 360 299 360 259.5 352.5 c 128,-1,5
 220 345 220 345 186 325 c 1,6,-1
 186 46 l 2,7,8
 186 21 186 21 172.5 7 c 128,-1,9
 159 -7 159 -7 134 -7 c 256,10,11
 109 -7 109 -7 95.5 7 c 128,-1,12
 82 21 82 21 82 46 c 2,13,-1
 82 659 l 2,14,15
 82 685 82 685 95.5 698.5 c 128,-1,16
 109 712 109 712 134 712 c 256,17,18
 159 712 159 712 172.5 698.5 c 128,-1,19
 186 685 186 685 186 659 c 2,20,-1
 186 418 l 1,21,22
 215 434 215 434 259.5 442 c 128,-1,23
 304 450 304 450 349 450 c 0,24,25
 440 450 440 450 502.5 418 c 128,-1,26
 565 386 565 386 597.5 321 c 128,-1,27
 630 256 630 256 630 158 c 2,28,-1
 630 38 l 1,29,-1
 583 84 l 1,30,-1
 680 84 l 2,31,32
 704 84 704 84 717 71.5 c 128,-1,33
 730 59 730 59 730 35 c 2,34,-1
 730 -120 l 2,35,36
 730 -143 730 -143 718 -155.5 c 128,-1,37
 706 -168 706 -168 684 -168 c 0,38,39
 661 -168 661 -168 649 -155.5 c 128,-1,40
 637 -143 637 -143 637 -120 c 2,41,-1
 637 0 l 1,42,-1
 578 0 l 2,43,44
 553 0 553 0 540 13.5 c 128,-1,45
 527 27 527 27 527 53 c 2,46,-1
 527 152 l 2,0,1
EndSplineSet
EndChar

StartChar: uni04BC
Encoding: 1212 1212 608
Width: 941
GlyphClass: 2
Flags: W
AnchorPoint: "Anchor-3" 639 0 basechar 0
LayerCount: 2
Fore
SplineSet
597 -9 m 0,0,1
 481 -9 481 -9 398.5 33.5 c 128,-1,2
 316 76 316 76 270.5 154.5 c 128,-1,3
 225 233 225 233 223 342 c 1,4,-1
 241 308 l 1,5,-1
 201 308 l 2,6,7
 140 308 140 308 98.5 329 c 128,-1,8
 57 350 57 350 37 387.5 c 128,-1,9
 17 425 17 425 17 474 c 2,10,-1
 17 502 l 2,11,12
 17 552 17 552 69 552 c 0,13,14
 98 552 98 552 109 540 c 128,-1,15
 120 528 120 528 120 509 c 0,16,17
 120 499 120 499 120 490.5 c 128,-1,18
 120 482 120 482 120 474 c 0,19,20
 124 429 124 429 146.5 411 c 128,-1,21
 169 393 169 393 212 393 c 2,22,-1
 241 393 l 1,23,-1
 223 357 l 1,24,25
 225 439 225 439 248.5 505 c 128,-1,26
 272 571 272 571 316 618 c 128,-1,27
 360 665 360 665 421.5 689.5 c 128,-1,28
 483 714 483 714 560 714 c 0,29,30
 626 714 626 714 678.5 696 c 128,-1,31
 731 678 731 678 769.5 645 c 128,-1,32
 808 612 808 612 833.5 567 c 128,-1,33
 859 522 859 522 871.5 469 c 128,-1,34
 884 416 884 416 884 359 c 0,35,36
 884 339 884 339 877.5 328 c 128,-1,37
 871 317 871 317 858.5 312.5 c 128,-1,38
 846 308 846 308 827 308 c 2,39,-1
 318 308 l 1,40,-1
 332 344 l 1,41,42
 334 259 334 259 364.5 200.5 c 128,-1,43
 395 142 395 142 454.5 111.5 c 128,-1,44
 514 81 514 81 601 81 c 0,45,46
 651 81 651 81 697.5 92.5 c 128,-1,47
 744 104 744 104 788 132 c 0,48,49
 806 143 806 143 820 141 c 128,-1,50
 834 139 834 139 842.5 129 c 128,-1,51
 851 119 851 119 853 105 c 128,-1,52
 855 91 855 91 849 77 c 128,-1,53
 843 63 843 63 827 53 c 0,54,55
 779 23 779 23 721 7 c 128,-1,56
 663 -9 663 -9 597 -9 c 0,0,1
562 628 m 0,57,58
 490 628 490 628 438 596 c 128,-1,59
 386 564 386 564 358.5 502.5 c 128,-1,60
 331 441 331 441 331 353 c 1,61,-1
 318 393 l 1,62,-1
 805 393 l 1,63,-1
 782 352 l 1,64,65
 782 443 782 443 757 504 c 128,-1,66
 732 565 732 565 683.5 596.5 c 128,-1,67
 635 628 635 628 562 628 c 0,57,58
EndSplineSet
EndChar

StartChar: uni04C3
Encoding: 1219 1219 612
Width: 683
GlyphClass: 1
Flags: W
LayerCount: 2
Fore
SplineSet
414 -189 m 0,0,1
 393 -189 393 -189 367.5 -186 c 128,-1,2
 342 -183 342 -183 322 -178 c 0,3,4
 306 -174 306 -174 298 -164 c 128,-1,5
 290 -154 290 -154 289.5 -141 c 128,-1,6
 289 -128 289 -128 294.5 -117 c 128,-1,7
 300 -106 300 -106 310.5 -100 c 128,-1,8
 321 -94 321 -94 336 -98 c 0,9,10
 352 -102 352 -102 368 -104 c 128,-1,11
 384 -106 384 -106 402 -106 c 0,12,13
 460 -106 460 -106 492.5 -66 c 128,-1,14
 525 -26 525 -26 525 51 c 2,15,-1
 525 104 l 2,16,17
 525 175 525 175 502.5 222 c 128,-1,18
 480 269 480 269 435 292 c 128,-1,19
 390 315 390 315 320 315 c 2,20,-1
 186 315 l 1,21,-1
 186 46 l 2,22,23
 186 21 186 21 173 7 c 128,-1,24
 160 -7 160 -7 134 -7 c 0,25,26
 109 -7 109 -7 95.5 7 c 128,-1,27
 82 21 82 21 82 46 c 2,28,-1
 82 660 l 2,29,30
 82 686 82 686 95.5 699 c 128,-1,31
 109 712 109 712 134 712 c 256,32,33
 159 712 159 712 172.5 699 c 128,-1,34
 186 686 186 686 186 660 c 2,35,-1
 186 402 l 1,36,-1
 322 402 l 1,37,-1
 293 381 l 1,38,-1
 490 685 l 2,39,40
 502 702 502 702 517 708 c 128,-1,41
 532 714 532 714 546.5 710.5 c 128,-1,42
 561 707 561 707 571.5 696.5 c 128,-1,43
 582 686 582 686 583.5 671 c 128,-1,44
 585 656 585 656 573 638 c 2,45,-1
 390 363 l 1,46,-1
 374 398 l 1,47,48
 458 393 458 393 514.5 359.5 c 128,-1,49
 571 326 571 326 599.5 263.5 c 128,-1,50
 628 201 628 201 628 110 c 2,51,-1
 628 55 l 2,52,53
 628 -23 628 -23 602.5 -78 c 128,-1,54
 577 -133 577 -133 528.5 -161 c 128,-1,55
 480 -189 480 -189 414 -189 c 0,0,1
EndSplineSet
EndChar

StartChar: uni04C5
Encoding: 1221 1221 613
Width: 767
GlyphClass: 1
Flags: W
LayerCount: 2
Fore
SplineSet
705 -136 m 2,0,1
 700 -152 700 -152 688.5 -160 c 128,-1,2
 677 -168 677 -168 663.5 -168.5 c 128,-1,3
 650 -169 650 -169 639 -162.5 c 128,-1,4
 628 -156 628 -156 623.5 -143.5 c 128,-1,5
 619 -131 619 -131 625 -113 c 2,6,-1
 667 16 l 1,7,-1
 677 0 l 1,8,-1
 612 0 l 2,9,10
 587 0 587 0 573.5 11.5 c 128,-1,11
 560 23 560 23 560 48 c 2,12,-1
 560 618 l 1,13,-1
 278 618 l 1,14,-1
 278 466 l 2,15,16
 278 369 278 369 266 295 c 128,-1,17
 254 221 254 221 231.5 165.5 c 128,-1,18
 209 110 209 110 175.5 70 c 128,-1,19
 142 30 142 30 98 1 c 0,20,21
 80 -12 80 -12 61.5 -8 c 128,-1,22
 43 -4 43 -4 29 14 c 0,23,24
 17 33 17 33 21.5 51 c 128,-1,25
 26 69 26 69 46 82 c 0,26,27
 79 103 79 103 104.5 135 c 128,-1,28
 130 167 130 167 147 214.5 c 128,-1,29
 164 262 164 262 173 330 c 128,-1,30
 182 398 182 398 182 492 c 2,31,-1
 182 649 l 2,32,33
 182 676 182 676 196.5 690.5 c 128,-1,34
 211 705 211 705 238 705 c 2,35,-1
 608 705 l 2,36,37
 635 705 635 705 649 690.5 c 128,-1,38
 663 676 663 676 663 649 c 2,39,-1
 663 59 l 1,40,-1
 637 84 l 1,41,-1
 713 84 l 2,42,43
 743 84 743 84 756 68.5 c 128,-1,44
 769 53 769 53 759 24 c 2,45,-1
 705 -136 l 2,0,1
EndSplineSet
EndChar

StartChar: uni04C7
Encoding: 1223 1223 614
Width: 767
GlyphClass: 1
Flags: W
LayerCount: 2
Fore
SplineSet
496 -191 m 0,0,1
 473 -192 473 -192 461.5 -181 c 128,-1,2
 450 -170 450 -170 448.5 -155 c 128,-1,3
 447 -140 447 -140 455.5 -128 c 128,-1,4
 464 -116 464 -116 482 -114 c 0,5,6
 532 -111 532 -111 556.5 -87.5 c 128,-1,7
 581 -64 581 -64 581 -11 c 2,8,-1
 581 314 l 1,9,-1
 186 314 l 1,10,-1
 186 46 l 2,11,12
 186 21 186 21 173 7 c 128,-1,13
 160 -7 160 -7 134 -7 c 0,14,15
 109 -7 109 -7 95.5 7 c 128,-1,16
 82 21 82 21 82 46 c 2,17,-1
 82 659 l 2,18,19
 82 685 82 685 95.5 698.5 c 128,-1,20
 109 712 109 712 134 712 c 256,21,22
 159 712 159 712 172.5 698.5 c 128,-1,23
 186 685 186 685 186 659 c 2,24,-1
 186 401 l 1,25,-1
 581 401 l 1,26,-1
 581 659 l 2,27,28
 581 685 581 685 594.5 698.5 c 128,-1,29
 608 712 608 712 633 712 c 256,30,31
 658 712 658 712 671 698.5 c 128,-1,32
 684 685 684 685 684 659 c 2,33,-1
 684 -4 l 2,34,35
 684 -68 684 -68 662.5 -108 c 128,-1,36
 641 -148 641 -148 599 -167.5 c 128,-1,37
 557 -187 557 -187 496 -191 c 0,0,1
EndSplineSet
EndChar

StartChar: uni04C9
Encoding: 1225 1225 615
Width: 788
GlyphClass: 1
Flags: W
LayerCount: 2
Fore
SplineSet
726 -136 m 2,0,1
 720 -152 720 -152 709 -160 c 128,-1,2
 698 -168 698 -168 684.5 -168.5 c 128,-1,3
 671 -169 671 -169 660 -162.5 c 128,-1,4
 649 -156 649 -156 644 -143.5 c 128,-1,5
 639 -131 639 -131 645 -113 c 2,6,-1
 688 16 l 1,7,-1
 697 0 l 1,8,-1
 633 0 l 2,9,10
 608 0 608 0 594.5 11.5 c 128,-1,11
 581 23 581 23 581 48 c 2,12,-1
 581 314 l 1,13,-1
 186 314 l 1,14,-1
 186 46 l 2,15,16
 186 21 186 21 173 7 c 128,-1,17
 160 -7 160 -7 134 -7 c 0,18,19
 109 -7 109 -7 95.5 7 c 128,-1,20
 82 21 82 21 82 46 c 2,21,-1
 82 659 l 2,22,23
 82 685 82 685 95.5 698.5 c 128,-1,24
 109 712 109 712 134 712 c 256,25,26
 159 712 159 712 172.5 698.5 c 128,-1,27
 186 685 186 685 186 659 c 2,28,-1
 186 401 l 1,29,-1
 581 401 l 1,30,-1
 581 659 l 2,31,32
 581 685 581 685 594.5 698.5 c 128,-1,33
 608 712 608 712 633 712 c 256,34,35
 658 712 658 712 671 698.5 c 128,-1,36
 684 685 684 685 684 659 c 2,37,-1
 684 38 l 1,38,-1
 637 84 l 1,39,-1
 734 84 l 2,40,41
 764 84 764 84 776.5 68.5 c 128,-1,42
 789 53 789 53 780 24 c 2,43,-1
 726 -136 l 2,0,1
EndSplineSet
EndChar

StartChar: uni04CB
Encoding: 1227 1227 616
Width: 696
GlyphClass: 1
Flags: W
LayerCount: 2
Fore
SplineSet
445 -168 m 0,0,1
 423 -168 423 -168 411.5 -155.5 c 128,-1,2
 400 -143 400 -143 400 -120 c 2,3,-1
 400 35 l 2,4,5
 400 59 400 59 413 71.5 c 128,-1,6
 426 84 426 84 450 84 c 2,7,-1
 547 84 l 1,8,-1
 500 38 l 1,9,-1
 500 287 l 1,10,11
 471 272 471 272 425.5 263.5 c 128,-1,12
 380 255 380 255 335 255 c 0,13,14
 246 255 246 255 183 287.5 c 128,-1,15
 120 320 120 320 88 385 c 128,-1,16
 56 450 56 450 56 547 c 2,17,-1
 56 659 l 2,18,19
 56 685 56 685 69 698.5 c 128,-1,20
 82 712 82 712 107 712 c 256,21,22
 132 712 132 712 145.5 698.5 c 128,-1,23
 159 685 159 685 159 659 c 2,24,-1
 159 553 l 2,25,26
 159 445 159 445 206 395 c 128,-1,27
 253 345 253 345 345 345 c 0,28,29
 386 345 386 345 426 353 c 128,-1,30
 466 361 466 361 500 380 c 1,31,-1
 500 659 l 2,32,33
 500 685 500 685 513 698.5 c 128,-1,34
 526 712 526 712 551 712 c 256,35,36
 576 712 576 712 589.5 698.5 c 128,-1,37
 603 685 603 685 603 659 c 2,38,-1
 603 53 l 2,39,40
 603 27 603 27 589.5 13.5 c 128,-1,41
 576 0 576 0 551 0 c 2,42,-1
 492 0 l 1,43,-1
 492 -120 l 2,44,45
 492 -143 492 -143 480 -155.5 c 128,-1,46
 468 -168 468 -168 445 -168 c 0,0,1
EndSplineSet
EndChar

StartChar: uni04CD
Encoding: 1229 1229 617
Width: 883
GlyphClass: 1
Flags: W
LayerCount: 2
Fore
SplineSet
819 -136 m 2,0,1
 813 -152 813 -152 802 -160 c 128,-1,2
 791 -168 791 -168 777.5 -168.5 c 128,-1,3
 764 -169 764 -169 753 -162.5 c 128,-1,4
 742 -156 742 -156 737.5 -143.5 c 128,-1,5
 733 -131 733 -131 738 -113 c 2,6,-1
 781 16 l 1,7,-1
 790 0 l 1,8,-1
 735 0 l 2,9,10
 710 0 710 0 697 11.5 c 128,-1,11
 684 23 684 23 684 48 c 2,12,-1
 684 558 l 1,13,-1
 706 558 l 1,14,-1
 474 129 l 2,15,16
 466 114 466 114 457 107 c 128,-1,17
 448 100 448 100 432 100 c 256,18,19
 416 100 416 100 406 107.5 c 128,-1,20
 396 115 396 115 388 129 c 2,21,-1
 154 559 l 1,22,-1
 178 559 l 1,23,-1
 178 42 l 2,24,25
 178 19 178 19 166.5 6 c 128,-1,26
 155 -7 155 -7 132 -7 c 256,27,28
 109 -7 109 -7 96.5 6 c 128,-1,29
 84 19 84 19 84 42 c 2,30,-1
 84 663 l 2,31,32
 84 687 84 687 97 699.5 c 128,-1,33
 110 712 110 712 132 712 c 0,34,35
 153 712 153 712 164.5 704.5 c 128,-1,36
 176 697 176 697 186 678 c 2,37,-1
 448 189 l 1,38,-1
 417 189 l 1,39,-1
 677 678 l 2,40,41
 688 697 688 697 699 704.5 c 128,-1,42
 710 712 710 712 731 712 c 0,43,44
 753 712 753 712 765 699.5 c 128,-1,45
 777 687 777 687 777 663 c 2,46,-1
 777 59 l 1,47,-1
 751 84 l 1,48,-1
 827 84 l 2,49,50
 857 84 857 84 869.5 68.5 c 128,-1,51
 882 53 882 53 873 24 c 2,52,-1
 819 -136 l 2,0,1
EndSplineSet
EndChar

StartChar: uni04E0
Encoding: 1248 1248 626
Width: 638
GlyphClass: 1
Flags: W
LayerCount: 2
Fore
SplineSet
308 -9 m 0,0,1
 232 -9 232 -9 168.5 9 c 128,-1,2
 105 27 105 27 61 60 c 0,3,4
 47 70 47 70 41.5 84 c 128,-1,5
 36 98 36 98 39 111.5 c 128,-1,6
 42 125 42 125 50.5 134 c 128,-1,7
 59 143 59 143 73 144.5 c 128,-1,8
 87 146 87 146 103 136 c 0,9,10
 146 108 146 108 194.5 93.5 c 128,-1,11
 243 79 243 79 301 79 c 0,12,13
 362 79 362 79 401 92.5 c 128,-1,14
 440 106 440 106 458.5 133 c 128,-1,15
 477 160 477 160 477 200 c 256,16,17
 477 240 477 240 460.5 265.5 c 128,-1,18
 444 291 444 291 407 303.5 c 128,-1,19
 370 316 370 316 310 316 c 2,20,-1
 232 316 l 2,21,22
 217 316 217 316 207.5 323 c 128,-1,23
 198 330 198 330 195 341.5 c 128,-1,24
 192 353 192 353 196 366.5 c 128,-1,25
 200 380 200 380 212 393 c 2,26,-1
 450 646 l 1,27,-1
 450 618 l 1,28,-1
 90 618 l 2,29,30
 68 618 68 618 55.5 629.5 c 128,-1,31
 43 641 43 641 43 662 c 256,32,33
 43 683 43 683 55.5 694 c 128,-1,34
 68 705 68 705 90 705 c 2,35,-1
 517 705 l 2,36,37
 533 705 533 705 543.5 697.5 c 128,-1,38
 554 690 554 690 557.5 677.5 c 128,-1,39
 561 665 561 665 556.5 649.5 c 128,-1,40
 552 634 552 634 537 620 c 2,41,-1
 303 370 l 1,42,-1
 284 397 l 1,43,-1
 341 397 l 2,44,45
 417 397 417 397 470 375 c 128,-1,46
 523 353 523 353 551.5 310 c 128,-1,47
 580 267 580 267 580 204 c 0,48,49
 580 137 580 137 550.5 89 c 128,-1,50
 521 41 521 41 461 16 c 128,-1,51
 401 -9 401 -9 308 -9 c 0,0,1
EndSplineSet
EndChar

StartChar: uni04E8
Encoding: 1256 1256 630
Width: 776
GlyphClass: 2
Flags: W
AnchorPoint: "Anchor-5" 388 353 basechar 0
AnchorPoint: "Anchor-3" 446 0 basechar 0
AnchorPoint: "Anchor-2" 387 0 basechar 0
AnchorPoint: "Anchor-1" 457 705 basechar 0
AnchorPoint: "Anchor-0" 386 705 basechar 0
LayerCount: 2
Fore
SplineSet
118 318 m 1,0,-1
 118 398 l 1,1,-1
 661 398 l 1,2,-1
 661 318 l 1,3,-1
 118 318 l 1,0,-1
388 -9 m 0,4,5
 288 -9 288 -9 213.5 35.5 c 128,-1,6
 139 80 139 80 98.5 161.5 c 128,-1,7
 58 243 58 243 58 353 c 0,8,9
 58 436 58 436 81 502.5 c 128,-1,10
 104 569 104 569 147 616.5 c 128,-1,11
 190 664 190 664 251 689 c 128,-1,12
 312 714 312 714 388 714 c 0,13,14
 489 714 489 714 563 670 c 128,-1,15
 637 626 637 626 677.5 545 c 128,-1,16
 718 464 718 464 718 354 c 0,17,18
 718 271 718 271 695 204 c 128,-1,19
 672 137 672 137 628.5 89 c 128,-1,20
 585 41 585 41 524 16 c 128,-1,21
 463 -9 463 -9 388 -9 c 0,4,5
388 81 m 0,22,23
 458 81 458 81 507.5 113 c 128,-1,24
 557 145 557 145 583.5 206 c 128,-1,25
 610 267 610 267 610 353 c 0,26,27
 610 482 610 482 552 553 c 128,-1,28
 494 624 494 624 388 624 c 0,29,30
 318 624 318 624 268.5 592.5 c 128,-1,31
 219 561 219 561 192.5 500 c 128,-1,32
 166 439 166 439 166 353 c 0,33,34
 166 225 166 225 224.5 153 c 128,-1,35
 283 81 283 81 388 81 c 0,22,23
EndSplineSet
EndChar

StartChar: uni04FA
Encoding: 1274 1274 638
Width: 589
GlyphClass: 1
Flags: W
LayerCount: 2
Fore
SplineSet
124 -181 m 2,0,1
 104 -182 104 -182 92.5 -173.5 c 128,-1,2
 81 -165 81 -165 80 -148 c 0,3,4
 79 -132 79 -132 87.5 -121 c 128,-1,5
 96 -110 96 -110 118 -108 c 2,6,-1
 130 -107 l 2,7,8
 185 -102 185 -102 207.5 -76 c 128,-1,9
 230 -50 230 -50 230 0 c 1,10,-1
 170 0 l 2,11,12
 147 0 147 0 134 13 c 128,-1,13
 121 26 121 26 121 50 c 2,14,-1
 121 312 l 1,15,-1
 67 312 l 2,16,17
 47 312 47 312 36 322 c 128,-1,18
 25 332 25 332 25 351 c 256,19,20
 25 370 25 370 36 379.5 c 128,-1,21
 47 389 47 389 67 389 c 2,22,-1
 121 389 l 1,23,-1
 121 652 l 2,24,25
 121 678 121 678 135 691.5 c 128,-1,26
 149 705 149 705 175 705 c 2,27,-1
 535 705 l 2,28,29
 558 705 558 705 569.5 694 c 128,-1,30
 581 683 581 683 581 662 c 256,31,32
 581 641 581 641 569.5 629.5 c 128,-1,33
 558 618 558 618 535 618 c 2,34,-1
 224 618 l 1,35,-1
 224 389 l 1,36,-1
 365 389 l 2,37,38
 386 389 386 389 396.5 379.5 c 128,-1,39
 407 370 407 370 407 351 c 256,40,41
 407 332 407 332 396.5 322 c 128,-1,42
 386 312 386 312 365 312 c 2,43,-1
 224 312 l 1,44,-1
 224 38 l 1,45,-1
 178 84 l 1,46,-1
 275 84 l 2,47,48
 299 84 299 84 311.5 71.5 c 128,-1,49
 324 59 324 59 324 35 c 2,50,-1
 324 18 l 2,51,52
 324 -46 324 -46 304.5 -89 c 128,-1,53
 285 -132 285 -132 245 -154.5 c 128,-1,54
 205 -177 205 -177 143 -180 c 2,55,-1
 124 -181 l 2,0,1
EndSplineSet
EndChar

StartChar: uni04FC
Encoding: 1276 1276 639
Width: 660
GlyphClass: 1
Flags: W
LayerCount: 2
Fore
SplineSet
455 -179 m 0,0,1
 432 -184 432 -184 415 -174.5 c 128,-1,2
 398 -165 398 -165 394 -145 c 256,3,4
 390 -125 390 -125 398.5 -113 c 128,-1,5
 407 -101 407 -101 425 -98 c 0,6,7
 472 -88 472 -88 490.5 -66 c 128,-1,8
 509 -44 509 -44 509 -5 c 0,9,10
 509 16 509 16 495 46.5 c 128,-1,11
 481 77 481 77 452 115 c 2,12,-1
 311 308 l 1,13,-1
 349 308 l 1,14,-1
 144 26 l 2,15,16
 131 9 131 9 117.5 1 c 128,-1,17
 104 -7 104 -7 88 -7 c 0,18,19
 68 -7 68 -7 55 3.5 c 128,-1,20
 42 14 42 14 40 30.5 c 128,-1,21
 38 47 38 47 51 64 c 2,22,-1
 287 381 l 1,23,-1
 287 339 l 1,24,-1
 64 639 l 2,25,26
 51 657 51 657 52.5 674 c 128,-1,27
 54 691 54 691 67 701.5 c 128,-1,28
 80 712 80 712 99 712 c 0,29,30
 116 712 116 712 128 704.5 c 128,-1,31
 140 697 140 697 153 679 c 2,32,-1
 347 413 l 1,33,-1
 315 413 l 1,34,-1
 507 679 l 2,35,36
 520 697 520 697 532.5 704.5 c 128,-1,37
 545 712 545 712 562 712 c 0,38,39
 582 712 582 712 595 701.5 c 128,-1,40
 608 691 608 691 609.5 674.5 c 128,-1,41
 611 658 611 658 597 639 c 2,42,-1
 374 339 l 1,43,-1
 374 381 l 1,44,-1
 543 153 l 2,45,46
 581 101 581 101 597.5 60 c 128,-1,47
 614 19 614 19 614 -15 c 0,48,49
 614 -81 614 -81 576 -122 c 128,-1,50
 538 -163 538 -163 455 -179 c 0,0,1
EndSplineSet
EndChar

